G75*
%MOIN*%
%OFA0B0*%
%FSLAX24Y24*%
%IPPOS*%
%LPD*%
%AMOC8*
5,1,8,0,0,1.08239X$1,22.5*
%
%ADD10C,0.0600*%
%ADD11OC8,0.0600*%
%ADD12R,0.0560X0.0560*%
%ADD13C,0.0560*%
%ADD14C,0.0709*%
%ADD15C,0.0740*%
%ADD16C,0.0100*%
%ADD17C,0.0357*%
%ADD18C,0.0080*%
%ADD19R,0.0396X0.0396*%
%ADD20C,0.0200*%
%ADD21C,0.0120*%
D10*
X021761Y015525D03*
D11*
X022761Y015525D03*
X023761Y015525D03*
X023761Y016525D03*
X022761Y016525D03*
X021761Y016525D03*
D12*
X014867Y021705D03*
X008873Y021709D03*
X010857Y004497D03*
X004890Y004485D03*
X016875Y004480D03*
X032317Y008899D03*
D13*
X032217Y007899D03*
X032317Y006899D03*
X032217Y005899D03*
X022875Y004480D03*
X021875Y004580D03*
X020875Y004480D03*
X019875Y004580D03*
X018875Y004480D03*
X017875Y004580D03*
X014857Y004497D03*
X013857Y004597D03*
X012857Y004497D03*
X011857Y004597D03*
X008890Y004485D03*
X007890Y004585D03*
X006890Y004485D03*
X005890Y004585D03*
X005873Y021609D03*
X004873Y021709D03*
X006873Y021709D03*
X007873Y021609D03*
X010867Y021705D03*
X011867Y021605D03*
X012867Y021705D03*
X013867Y021605D03*
D14*
X032933Y020383D03*
X032953Y017633D03*
D15*
X022879Y006539D03*
X021879Y006439D03*
X020879Y006539D03*
X019879Y006439D03*
X018879Y006539D03*
X017879Y006439D03*
X016879Y006539D03*
X014855Y006539D03*
X013855Y006439D03*
X012855Y006539D03*
X011855Y006439D03*
X010855Y006539D03*
X008893Y006540D03*
X007893Y006440D03*
X006893Y006540D03*
X005893Y006440D03*
X004893Y006540D03*
X004871Y019685D03*
X005871Y019785D03*
X006871Y019685D03*
X007871Y019785D03*
X008871Y019685D03*
X010866Y019680D03*
X011866Y019780D03*
X012866Y019680D03*
X013866Y019780D03*
X014866Y019680D03*
D16*
X003947Y003914D02*
X004082Y003728D01*
X004268Y003593D01*
X004486Y003522D01*
X004601Y003513D01*
X032180Y003513D01*
X032034Y003574D01*
X031797Y003810D01*
X031669Y004119D01*
X031669Y004453D01*
X031797Y004762D01*
X032034Y004999D01*
X032343Y005127D01*
X032677Y005127D01*
X032986Y004999D01*
X033222Y004762D01*
X033289Y004601D01*
X033289Y017255D01*
X033281Y017248D01*
X033217Y017201D01*
X033146Y017165D01*
X033071Y017141D01*
X033003Y017130D01*
X033003Y017582D01*
X032903Y017582D01*
X032903Y017130D01*
X032835Y017141D01*
X032759Y017165D01*
X032689Y017201D01*
X032624Y017248D01*
X032568Y017304D01*
X032522Y017368D01*
X032485Y017439D01*
X032461Y017514D01*
X032450Y017583D01*
X032903Y017583D01*
X032903Y017683D01*
X032903Y018135D01*
X032835Y018124D01*
X032759Y018100D01*
X032689Y018064D01*
X032624Y018017D01*
X032568Y017961D01*
X032522Y017897D01*
X032485Y017826D01*
X032461Y017751D01*
X032450Y017683D01*
X032903Y017683D01*
X033003Y017683D01*
X033003Y018135D01*
X033071Y018124D01*
X033146Y018100D01*
X033217Y018064D01*
X033281Y018017D01*
X033289Y018010D01*
X033289Y020025D01*
X033261Y019998D01*
X033197Y019951D01*
X033126Y019915D01*
X033051Y019891D01*
X032983Y019880D01*
X032983Y020332D01*
X032883Y020332D01*
X032883Y019880D01*
X032815Y019891D01*
X032739Y019915D01*
X032669Y019951D01*
X032604Y019998D01*
X032548Y020054D01*
X032502Y020118D01*
X032465Y020189D01*
X032441Y020264D01*
X032430Y020333D01*
X032883Y020333D01*
X032883Y020433D01*
X032883Y020885D01*
X032815Y020874D01*
X032739Y020850D01*
X032669Y020814D01*
X032604Y020767D01*
X032548Y020711D01*
X032502Y020647D01*
X032465Y020576D01*
X032441Y020501D01*
X003867Y020501D01*
X003867Y020599D02*
X032477Y020599D01*
X032441Y020501D02*
X032430Y020433D01*
X032883Y020433D01*
X032983Y020433D01*
X032983Y020885D01*
X033051Y020874D01*
X033126Y020850D01*
X033197Y020814D01*
X033261Y020767D01*
X033289Y020740D01*
X033289Y021567D01*
X033251Y021474D01*
X033014Y021237D01*
X032705Y021109D01*
X032371Y021109D01*
X032062Y021237D01*
X031825Y021474D01*
X031697Y021783D01*
X031697Y022117D01*
X031825Y022426D01*
X032062Y022663D01*
X032148Y022698D01*
X004601Y022698D01*
X004486Y022689D01*
X004268Y022618D01*
X004082Y022483D01*
X003947Y022297D01*
X003876Y022079D01*
X003867Y021964D01*
X003867Y016575D01*
X003889Y016629D01*
X004125Y016866D01*
X004434Y016994D01*
X004769Y016994D01*
X005078Y016866D01*
X005314Y016629D01*
X005442Y016320D01*
X005442Y015986D01*
X005314Y015677D01*
X005078Y015440D01*
X004769Y015313D01*
X004434Y015313D01*
X004125Y015440D01*
X003889Y015677D01*
X003867Y015731D01*
X003867Y010484D01*
X003896Y010556D01*
X004133Y010793D01*
X004442Y010920D01*
X004776Y010920D01*
X005085Y010793D01*
X005321Y010556D01*
X005449Y010247D01*
X005449Y009913D01*
X005321Y009604D01*
X005085Y009367D01*
X004776Y009239D01*
X004442Y009239D01*
X004133Y009367D01*
X003896Y009604D01*
X003867Y009676D01*
X003867Y004247D01*
X003876Y004132D01*
X003947Y003914D01*
X003934Y003953D02*
X031738Y003953D01*
X031697Y004051D02*
X003902Y004051D01*
X003874Y004150D02*
X004510Y004150D01*
X004500Y004159D02*
X004565Y004095D01*
X005216Y004095D01*
X005280Y004159D01*
X005280Y004810D01*
X005216Y004875D01*
X004565Y004875D01*
X004500Y004810D01*
X004500Y004159D01*
X004500Y004248D02*
X003867Y004248D01*
X003867Y004347D02*
X004500Y004347D01*
X004500Y004445D02*
X003867Y004445D01*
X003867Y004544D02*
X004500Y004544D01*
X004500Y004642D02*
X003867Y004642D01*
X003867Y004741D02*
X004500Y004741D01*
X004529Y004839D02*
X003867Y004839D01*
X003867Y004938D02*
X005723Y004938D01*
X005669Y004915D02*
X005560Y004806D01*
X005500Y004662D01*
X005500Y004507D01*
X005560Y004364D01*
X005669Y004254D01*
X005813Y004195D01*
X005968Y004195D01*
X006111Y004254D01*
X006221Y004364D01*
X006280Y004507D01*
X006280Y004662D01*
X006221Y004806D01*
X006111Y004915D01*
X005968Y004975D01*
X005813Y004975D01*
X005669Y004915D01*
X005593Y004839D02*
X005251Y004839D01*
X005280Y004741D02*
X005533Y004741D01*
X005500Y004642D02*
X005280Y004642D01*
X005280Y004544D02*
X005500Y004544D01*
X005526Y004445D02*
X005280Y004445D01*
X005280Y004347D02*
X005577Y004347D01*
X005684Y004248D02*
X005280Y004248D01*
X005271Y004150D02*
X006680Y004150D01*
X006669Y004154D02*
X006813Y004095D01*
X006968Y004095D01*
X007111Y004154D01*
X007221Y004264D01*
X007280Y004407D01*
X007280Y004562D01*
X007221Y004706D01*
X007111Y004815D01*
X006968Y004875D01*
X006813Y004875D01*
X006669Y004815D01*
X006560Y004706D01*
X006500Y004562D01*
X006500Y004407D01*
X006560Y004264D01*
X006669Y004154D01*
X006575Y004248D02*
X006097Y004248D01*
X006204Y004347D02*
X006525Y004347D01*
X006500Y004445D02*
X006255Y004445D01*
X006280Y004544D02*
X006500Y004544D01*
X006533Y004642D02*
X006280Y004642D01*
X006248Y004741D02*
X006595Y004741D01*
X006727Y004839D02*
X006187Y004839D01*
X006058Y004938D02*
X007723Y004938D01*
X007669Y004915D02*
X007560Y004806D01*
X007500Y004662D01*
X007500Y004507D01*
X007560Y004364D01*
X007669Y004254D01*
X007813Y004195D01*
X007968Y004195D01*
X008111Y004254D01*
X008221Y004364D01*
X008280Y004507D01*
X008280Y004662D01*
X008221Y004806D01*
X008111Y004915D01*
X007968Y004975D01*
X007813Y004975D01*
X007669Y004915D01*
X007593Y004839D02*
X007054Y004839D01*
X007186Y004741D02*
X007533Y004741D01*
X007500Y004642D02*
X007247Y004642D01*
X007280Y004544D02*
X007500Y004544D01*
X007526Y004445D02*
X007280Y004445D01*
X007255Y004347D02*
X007577Y004347D01*
X007684Y004248D02*
X007205Y004248D01*
X007100Y004150D02*
X008680Y004150D01*
X008669Y004154D02*
X008813Y004095D01*
X008968Y004095D01*
X009111Y004154D01*
X009221Y004264D01*
X009280Y004407D01*
X009280Y004562D01*
X009221Y004706D01*
X009111Y004815D01*
X008968Y004875D01*
X008813Y004875D01*
X008669Y004815D01*
X008560Y004706D01*
X008500Y004562D01*
X008500Y004407D01*
X008560Y004264D01*
X008669Y004154D01*
X008575Y004248D02*
X008097Y004248D01*
X008204Y004347D02*
X008525Y004347D01*
X008500Y004445D02*
X008255Y004445D01*
X008280Y004544D02*
X008500Y004544D01*
X008533Y004642D02*
X008280Y004642D01*
X008248Y004741D02*
X008595Y004741D01*
X008727Y004839D02*
X008187Y004839D01*
X008058Y004938D02*
X011660Y004938D01*
X011636Y004928D02*
X011526Y004818D01*
X011467Y004675D01*
X011467Y004519D01*
X011526Y004376D01*
X011636Y004266D01*
X011779Y004207D01*
X011934Y004207D01*
X012078Y004266D01*
X012187Y004376D01*
X012247Y004519D01*
X012247Y004675D01*
X012218Y004744D01*
X012243Y004768D01*
X012576Y004768D01*
X012526Y004718D01*
X012467Y004575D01*
X012467Y004419D01*
X012526Y004276D01*
X012636Y004166D01*
X012779Y004107D01*
X012934Y004107D01*
X013078Y004166D01*
X013187Y004276D01*
X013247Y004419D01*
X013247Y004575D01*
X013216Y004649D01*
X013409Y004846D01*
X013554Y004846D01*
X013526Y004818D01*
X013467Y004675D01*
X013467Y004519D01*
X013526Y004376D01*
X013636Y004266D01*
X013779Y004207D01*
X013934Y004207D01*
X014078Y004266D01*
X014187Y004376D01*
X014247Y004519D01*
X014247Y004675D01*
X014217Y004747D01*
X014262Y004793D01*
X014601Y004793D01*
X014526Y004718D01*
X014467Y004575D01*
X014467Y004419D01*
X014526Y004276D01*
X014636Y004166D01*
X014779Y004107D01*
X014934Y004107D01*
X015078Y004166D01*
X015187Y004276D01*
X015247Y004419D01*
X015247Y004575D01*
X015217Y004646D01*
X015360Y004788D01*
X016485Y004788D01*
X016485Y004154D01*
X016550Y004090D01*
X017201Y004090D01*
X017265Y004154D01*
X017265Y004787D01*
X017446Y004787D01*
X017511Y004721D01*
X017485Y004657D01*
X017485Y004502D01*
X017544Y004359D01*
X017654Y004249D01*
X017798Y004190D01*
X017953Y004190D01*
X018096Y004249D01*
X018206Y004359D01*
X018265Y004502D01*
X018265Y004657D01*
X018206Y004801D01*
X018178Y004829D01*
X018313Y004829D01*
X018514Y004628D01*
X018485Y004557D01*
X018485Y004402D01*
X018544Y004259D01*
X018654Y004149D01*
X018798Y004090D01*
X018953Y004090D01*
X019096Y004149D01*
X019206Y004259D01*
X019265Y004402D01*
X019265Y004557D01*
X019206Y004701D01*
X019166Y004740D01*
X019500Y004740D01*
X019514Y004727D01*
X019485Y004657D01*
X019485Y004502D01*
X019544Y004359D01*
X019654Y004249D01*
X019798Y004190D01*
X019953Y004190D01*
X020096Y004249D01*
X020206Y004359D01*
X020265Y004502D01*
X020265Y004657D01*
X020206Y004801D01*
X020102Y004905D01*
X020244Y004905D01*
X020515Y004630D01*
X020485Y004557D01*
X020485Y004402D01*
X020544Y004259D01*
X020654Y004149D01*
X020798Y004090D01*
X020953Y004090D01*
X021096Y004149D01*
X021206Y004259D01*
X021265Y004402D01*
X021265Y004557D01*
X021206Y004701D01*
X021096Y004810D01*
X020953Y004870D01*
X020798Y004870D01*
X020729Y004841D01*
X020457Y005116D01*
X020457Y005117D01*
X020414Y005161D01*
X020370Y005204D01*
X020370Y005204D01*
X020369Y005205D01*
X020308Y005205D01*
X020246Y005205D01*
X020246Y005205D01*
X018842Y005205D01*
X018684Y005362D01*
X018596Y005450D01*
X017932Y005450D01*
X017855Y005527D01*
X017812Y005571D01*
X017812Y005571D01*
X017811Y005571D01*
X017749Y005571D01*
X015144Y005577D01*
X015144Y005577D01*
X015082Y005577D01*
X015020Y005577D01*
X015020Y005577D01*
X015020Y005577D01*
X014976Y005533D01*
X014932Y005490D01*
X014932Y005490D01*
X014861Y005419D01*
X013991Y005419D01*
X013904Y005331D01*
X013883Y005310D01*
X013218Y005310D01*
X013130Y005222D01*
X012976Y005068D01*
X012182Y005068D01*
X012120Y005069D01*
X012120Y005068D01*
X012119Y005068D01*
X012076Y005024D01*
X012007Y004957D01*
X011934Y004987D01*
X011779Y004987D01*
X011636Y004928D01*
X011547Y004839D02*
X011230Y004839D01*
X011247Y004823D02*
X011182Y004887D01*
X010531Y004887D01*
X010467Y004823D01*
X010467Y004171D01*
X010531Y004107D01*
X011182Y004107D01*
X011247Y004171D01*
X011247Y004823D01*
X011247Y004741D02*
X011494Y004741D01*
X011467Y004642D02*
X011247Y004642D01*
X011247Y004544D02*
X011467Y004544D01*
X011498Y004445D02*
X011247Y004445D01*
X011247Y004347D02*
X011556Y004347D01*
X011680Y004248D02*
X011247Y004248D01*
X011225Y004150D02*
X012677Y004150D01*
X012554Y004248D02*
X012033Y004248D01*
X012158Y004347D02*
X012497Y004347D01*
X012467Y004445D02*
X012216Y004445D01*
X012247Y004544D02*
X012467Y004544D01*
X012495Y004642D02*
X012247Y004642D01*
X012220Y004741D02*
X012549Y004741D01*
X013043Y005135D02*
X003867Y005135D01*
X003867Y005233D02*
X013141Y005233D01*
X013402Y004839D02*
X013547Y004839D01*
X013494Y004741D02*
X013306Y004741D01*
X013219Y004642D02*
X013467Y004642D01*
X013467Y004544D02*
X013247Y004544D01*
X013247Y004445D02*
X013498Y004445D01*
X013556Y004347D02*
X013217Y004347D01*
X013159Y004248D02*
X013680Y004248D01*
X014033Y004248D02*
X014554Y004248D01*
X014497Y004347D02*
X014158Y004347D01*
X014216Y004445D02*
X014467Y004445D01*
X014467Y004544D02*
X014247Y004544D01*
X014247Y004642D02*
X014495Y004642D01*
X014549Y004741D02*
X014220Y004741D01*
X013904Y005332D02*
X003867Y005332D01*
X003867Y005430D02*
X009049Y005430D01*
X009057Y005422D02*
X009100Y005379D01*
X009100Y005379D01*
X009101Y005378D01*
X009162Y005378D01*
X011585Y005375D01*
X011647Y005375D01*
X011709Y005375D01*
X011753Y005419D01*
X011769Y005435D01*
X012454Y005435D01*
X012542Y005523D01*
X012715Y005695D01*
X013568Y005695D01*
X013656Y005783D01*
X013668Y005796D01*
X014258Y005796D01*
X014320Y005796D01*
X014320Y005796D01*
X014320Y005796D01*
X014364Y005840D01*
X014636Y006110D01*
X014760Y006059D01*
X014951Y006059D01*
X015127Y006133D01*
X015262Y006268D01*
X015335Y006444D01*
X015335Y006635D01*
X015262Y006811D01*
X015127Y006946D01*
X014951Y007019D01*
X014760Y007019D01*
X014583Y006946D01*
X014448Y006811D01*
X014375Y006635D01*
X014375Y006444D01*
X014425Y006323D01*
X014196Y006096D01*
X014191Y006096D01*
X014262Y006168D01*
X014335Y006344D01*
X014335Y006535D01*
X014262Y006711D01*
X014127Y006846D01*
X013951Y006919D01*
X013760Y006919D01*
X013583Y006846D01*
X013448Y006711D01*
X013375Y006535D01*
X013375Y006344D01*
X013426Y006221D01*
X013369Y006163D01*
X013158Y006163D01*
X013262Y006268D01*
X013335Y006444D01*
X013335Y006635D01*
X013262Y006811D01*
X013127Y006946D01*
X012951Y007019D01*
X012760Y007019D01*
X012583Y006946D01*
X012448Y006811D01*
X012375Y006635D01*
X012375Y006444D01*
X012426Y006322D01*
X012191Y006087D01*
X012181Y006087D01*
X012262Y006168D01*
X012335Y006344D01*
X012335Y006535D01*
X012262Y006711D01*
X012127Y006846D01*
X011951Y006919D01*
X011760Y006919D01*
X011583Y006846D01*
X011448Y006711D01*
X011375Y006535D01*
X011375Y006344D01*
X011425Y006223D01*
X011386Y006184D01*
X011178Y006184D01*
X011262Y006268D01*
X011335Y006444D01*
X011335Y006635D01*
X011262Y006811D01*
X011127Y006946D01*
X011005Y006997D01*
X011005Y007552D01*
X015184Y011723D01*
X015198Y011718D01*
X015313Y011718D01*
X015419Y011761D01*
X015420Y011763D01*
X015413Y011746D01*
X015413Y011632D01*
X015457Y011526D01*
X015538Y011445D01*
X015644Y011401D01*
X015759Y011401D01*
X015865Y011445D01*
X015946Y011526D01*
X015952Y011539D01*
X017099Y011539D01*
X017312Y011326D01*
X017312Y009698D01*
X017270Y009656D01*
X017270Y009656D01*
X017226Y009613D01*
X017182Y009569D01*
X017182Y009569D01*
X017182Y009569D01*
X017181Y009507D01*
X017181Y009445D01*
X017180Y009228D01*
X017179Y009166D01*
X017179Y009166D01*
X017179Y009166D01*
X017223Y009122D01*
X017313Y009030D01*
X017313Y006897D01*
X017256Y006840D01*
X017151Y006946D01*
X016975Y007019D01*
X016784Y007019D01*
X016607Y006946D01*
X016472Y006811D01*
X016399Y006634D01*
X016399Y006443D01*
X016472Y006267D01*
X016607Y006132D01*
X016784Y006059D01*
X016975Y006059D01*
X017151Y006132D01*
X017286Y006267D01*
X017359Y006443D01*
X017359Y006519D01*
X017417Y006577D01*
X017399Y006534D01*
X017399Y006343D01*
X017472Y006167D01*
X017607Y006032D01*
X017784Y005959D01*
X017975Y005959D01*
X018151Y006032D01*
X018286Y006167D01*
X018359Y006343D01*
X018359Y006534D01*
X018286Y006711D01*
X018431Y006711D01*
X018450Y006756D02*
X018399Y006634D01*
X018399Y006443D01*
X018472Y006267D01*
X018607Y006132D01*
X018784Y006059D01*
X018975Y006059D01*
X019151Y006132D01*
X019286Y006267D01*
X019359Y006443D01*
X019359Y006634D01*
X019286Y006811D01*
X019193Y006904D01*
X019199Y006904D01*
X019449Y006655D01*
X019399Y006534D01*
X019399Y006343D01*
X019472Y006167D01*
X019607Y006032D01*
X019784Y005959D01*
X019975Y005959D01*
X020151Y006032D01*
X020286Y006167D01*
X020359Y006343D01*
X020359Y006534D01*
X020286Y006711D01*
X020431Y006711D01*
X020450Y006756D02*
X020399Y006634D01*
X020399Y006443D01*
X020472Y006267D01*
X020607Y006132D01*
X020784Y006059D01*
X020975Y006059D01*
X021151Y006132D01*
X021286Y006267D01*
X021359Y006443D01*
X021359Y006634D01*
X021286Y006811D01*
X021197Y006900D01*
X021203Y006900D01*
X021449Y006655D01*
X021399Y006534D01*
X021399Y006343D01*
X021472Y006167D01*
X021607Y006032D01*
X021784Y005959D01*
X021975Y005959D01*
X022151Y006032D01*
X022286Y006167D01*
X022359Y006343D01*
X022359Y006534D01*
X022286Y006711D01*
X022431Y006711D01*
X022451Y006758D02*
X022399Y006634D01*
X022399Y006443D01*
X022472Y006267D01*
X022607Y006132D01*
X022784Y006059D01*
X022975Y006059D01*
X023151Y006132D01*
X023286Y006267D01*
X023359Y006443D01*
X023359Y006634D01*
X023286Y006811D01*
X023151Y006946D01*
X022975Y007019D01*
X022784Y007019D01*
X022664Y006969D01*
X022624Y007009D01*
X022624Y007009D01*
X022580Y007053D01*
X022537Y007097D01*
X022536Y007097D01*
X022474Y007097D01*
X022413Y007098D01*
X022412Y007097D01*
X021676Y007097D01*
X021503Y007272D01*
X021503Y007273D01*
X021460Y007316D01*
X021417Y007360D01*
X021416Y007360D01*
X021415Y007360D01*
X021354Y007360D01*
X021292Y007361D01*
X021292Y007360D01*
X020768Y007359D01*
X020735Y007391D01*
X020692Y007434D01*
X020690Y007434D01*
X020689Y007435D01*
X020628Y007434D01*
X019855Y007435D01*
X019608Y007667D01*
X019566Y007709D01*
X019563Y007709D01*
X019561Y007711D01*
X019501Y007709D01*
X018950Y007709D01*
X018643Y008014D01*
X018644Y008335D01*
X018707Y008400D01*
X018742Y008400D01*
X018804Y008399D01*
X018804Y008400D01*
X018804Y008400D01*
X018848Y008444D01*
X019136Y008729D01*
X019151Y008723D01*
X019265Y008723D01*
X019371Y008767D01*
X019452Y008848D01*
X019496Y008954D01*
X019496Y009068D01*
X019452Y009174D01*
X019371Y009256D01*
X019265Y009300D01*
X019175Y009300D01*
X019178Y009308D01*
X019178Y009423D01*
X019134Y009529D01*
X019053Y009610D01*
X018947Y009654D01*
X018832Y009654D01*
X018726Y009610D01*
X018698Y009582D01*
X018688Y009592D01*
X018645Y009636D01*
X018644Y009636D01*
X018325Y009955D01*
X018325Y011646D01*
X018325Y011708D01*
X018325Y011708D01*
X018325Y011708D01*
X018281Y011752D01*
X014010Y016055D01*
X014015Y019322D01*
X014138Y019373D01*
X014273Y019508D01*
X014346Y019685D01*
X014346Y019875D01*
X014273Y020052D01*
X014138Y020187D01*
X013962Y020260D01*
X013771Y020260D01*
X013594Y020187D01*
X013459Y020052D01*
X013386Y019875D01*
X013386Y019685D01*
X013459Y019508D01*
X013594Y019373D01*
X013715Y019323D01*
X013715Y018948D01*
X013263Y019398D01*
X013273Y019408D01*
X013346Y019585D01*
X013346Y019775D01*
X013273Y019952D01*
X013138Y020087D01*
X012962Y020160D01*
X012771Y020160D01*
X012594Y020087D01*
X012459Y019952D01*
X012386Y019775D01*
X012386Y019585D01*
X012459Y019408D01*
X012594Y019273D01*
X012771Y019200D01*
X012962Y019200D01*
X013015Y019222D01*
X013545Y018693D01*
X013544Y018307D01*
X012295Y019562D01*
X012346Y019685D01*
X012346Y019875D01*
X012273Y020052D01*
X012138Y020187D01*
X011962Y020260D01*
X011771Y020260D01*
X011594Y020187D01*
X011459Y020052D01*
X011386Y019875D01*
X011386Y019685D01*
X011459Y019508D01*
X011594Y019373D01*
X011712Y019324D01*
X011435Y019323D01*
X011296Y019463D01*
X011346Y019585D01*
X011346Y019775D01*
X011273Y019952D01*
X011138Y020087D01*
X010962Y020160D01*
X010771Y020160D01*
X010594Y020087D01*
X010459Y019952D01*
X010386Y019775D01*
X010386Y019585D01*
X010459Y019408D01*
X010594Y019273D01*
X010771Y019200D01*
X010962Y019200D01*
X011084Y019250D01*
X011174Y019160D01*
X008705Y019163D01*
X008300Y019568D01*
X008351Y019690D01*
X008351Y019881D01*
X008277Y020057D01*
X008142Y020192D01*
X007966Y020265D01*
X007775Y020265D01*
X007599Y020192D01*
X007464Y020057D01*
X007391Y019881D01*
X007391Y019690D01*
X007464Y019513D01*
X007599Y019378D01*
X007775Y019305D01*
X007966Y019305D01*
X008088Y019356D01*
X008537Y018907D01*
X008580Y018863D01*
X008580Y018863D01*
X008580Y018863D01*
X008643Y018863D01*
X012111Y018858D01*
X013046Y017923D01*
X013042Y015273D01*
X013028Y015268D01*
X012947Y015186D01*
X012903Y015080D01*
X012903Y014966D01*
X012947Y014860D01*
X013028Y014779D01*
X013134Y014735D01*
X013249Y014735D01*
X013355Y014779D01*
X013436Y014860D01*
X013480Y014966D01*
X013480Y015080D01*
X013436Y015186D01*
X013355Y015268D01*
X013342Y015273D01*
X013342Y015535D01*
X017044Y011839D01*
X015952Y011839D01*
X015946Y011852D01*
X015865Y011934D01*
X015759Y011977D01*
X015644Y011977D01*
X015538Y011934D01*
X015537Y011932D01*
X015544Y011949D01*
X015544Y012063D01*
X015541Y012069D01*
X015635Y012031D01*
X015750Y012031D01*
X015856Y012074D01*
X015937Y012156D01*
X015981Y012262D01*
X015981Y012376D01*
X015937Y012482D01*
X015856Y012563D01*
X015750Y012607D01*
X015635Y012607D01*
X015529Y012563D01*
X015452Y012486D01*
X015443Y012495D01*
X015422Y012495D01*
X015404Y012506D01*
X015362Y012495D01*
X015050Y012495D01*
X014962Y012407D01*
X014777Y012222D01*
X014777Y012007D01*
X010237Y007467D01*
X005608Y007467D01*
X005521Y007379D01*
X005111Y006969D01*
X004989Y007020D01*
X004798Y007020D01*
X004621Y006947D01*
X004486Y006812D01*
X004413Y006635D01*
X004413Y006444D01*
X004486Y006268D01*
X004621Y006133D01*
X004798Y006060D01*
X004989Y006060D01*
X005165Y006133D01*
X005300Y006268D01*
X005373Y006444D01*
X005373Y006635D01*
X005323Y006757D01*
X005733Y007167D01*
X010361Y007167D01*
X010705Y007511D01*
X010705Y006997D01*
X010583Y006946D01*
X010448Y006811D01*
X010375Y006635D01*
X010375Y006444D01*
X010448Y006268D01*
X010533Y006183D01*
X009464Y006181D01*
X009323Y006322D01*
X009373Y006444D01*
X009373Y006635D01*
X009300Y006812D01*
X009165Y006947D01*
X008989Y007020D01*
X008798Y007020D01*
X008621Y006947D01*
X008486Y006812D01*
X008413Y006635D01*
X008413Y006444D01*
X008486Y006268D01*
X008578Y006176D01*
X008374Y006176D01*
X008324Y006226D01*
X008373Y006344D01*
X008373Y006535D01*
X008300Y006712D01*
X008165Y006847D01*
X007989Y006920D01*
X007798Y006920D01*
X007621Y006847D01*
X007486Y006712D01*
X007413Y006535D01*
X007413Y006344D01*
X007486Y006168D01*
X007581Y006074D01*
X007569Y006074D01*
X007322Y006321D01*
X007373Y006444D01*
X007373Y006635D01*
X007300Y006812D01*
X007165Y006947D01*
X006989Y007020D01*
X006798Y007020D01*
X006621Y006947D01*
X006486Y006812D01*
X006413Y006635D01*
X006413Y006444D01*
X006486Y006268D01*
X006587Y006167D01*
X006370Y006167D01*
X006321Y006217D01*
X006373Y006344D01*
X006373Y006535D01*
X006300Y006712D01*
X006165Y006847D01*
X005989Y006920D01*
X005798Y006920D01*
X005621Y006847D01*
X005486Y006712D01*
X005413Y006535D01*
X005413Y006344D01*
X005486Y006168D01*
X005621Y006033D01*
X005798Y005960D01*
X005989Y005960D01*
X006106Y006008D01*
X006157Y005956D01*
X006157Y005955D01*
X006201Y005911D01*
X006243Y005868D01*
X006244Y005868D01*
X006245Y005867D01*
X006306Y005867D01*
X006368Y005866D01*
X006368Y005867D01*
X007110Y005867D01*
X007374Y005602D01*
X008000Y005602D01*
X008071Y005532D01*
X008947Y005532D01*
X009057Y005422D01*
X008950Y005529D02*
X003867Y005529D01*
X003867Y005627D02*
X007350Y005627D01*
X007251Y005726D02*
X003867Y005726D01*
X003867Y005824D02*
X007153Y005824D01*
X007523Y006120D02*
X007535Y006120D01*
X007466Y006218D02*
X007425Y006218D01*
X007425Y006317D02*
X007327Y006317D01*
X007361Y006415D02*
X007413Y006415D01*
X007413Y006514D02*
X007373Y006514D01*
X007373Y006612D02*
X007445Y006612D01*
X007486Y006711D02*
X007342Y006711D01*
X007301Y006809D02*
X007584Y006809D01*
X007768Y006908D02*
X007204Y006908D01*
X007022Y007006D02*
X008765Y007006D01*
X008582Y006908D02*
X008018Y006908D01*
X008203Y006809D02*
X008485Y006809D01*
X008445Y006711D02*
X008301Y006711D01*
X008342Y006612D02*
X008413Y006612D01*
X008413Y006514D02*
X008373Y006514D01*
X008373Y006415D02*
X008426Y006415D01*
X008466Y006317D02*
X008362Y006317D01*
X008332Y006218D02*
X008536Y006218D01*
X009329Y006317D02*
X010428Y006317D01*
X010387Y006415D02*
X009361Y006415D01*
X009373Y006514D02*
X010375Y006514D01*
X010375Y006612D02*
X009373Y006612D01*
X009342Y006711D02*
X010407Y006711D01*
X010447Y006809D02*
X009301Y006809D01*
X009204Y006908D02*
X010544Y006908D01*
X010705Y007006D02*
X009022Y007006D01*
X009427Y006218D02*
X010498Y006218D01*
X011213Y006218D02*
X011420Y006218D01*
X011387Y006317D02*
X011282Y006317D01*
X011323Y006415D02*
X011375Y006415D01*
X011375Y006514D02*
X011335Y006514D01*
X011335Y006612D02*
X011407Y006612D01*
X011448Y006711D02*
X011304Y006711D01*
X011263Y006809D02*
X011546Y006809D01*
X011731Y006908D02*
X011166Y006908D01*
X011005Y007006D02*
X012727Y007006D01*
X012544Y006908D02*
X011979Y006908D01*
X012164Y006809D02*
X012447Y006809D01*
X012407Y006711D02*
X012262Y006711D01*
X012303Y006612D02*
X012375Y006612D01*
X012375Y006514D02*
X012335Y006514D01*
X012335Y006415D02*
X012387Y006415D01*
X012420Y006317D02*
X012324Y006317D01*
X012322Y006218D02*
X012283Y006218D01*
X012224Y006120D02*
X012214Y006120D01*
X012646Y005627D02*
X031938Y005627D01*
X031886Y005678D02*
X031996Y005569D01*
X032139Y005509D01*
X032295Y005509D01*
X032438Y005569D01*
X032548Y005678D01*
X032607Y005822D01*
X032607Y005977D01*
X032548Y006120D01*
X033289Y006120D01*
X033289Y006218D02*
X032450Y006218D01*
X032438Y006230D02*
X032295Y006289D01*
X032139Y006289D01*
X031996Y006230D01*
X031886Y006120D01*
X023122Y006120D01*
X023237Y006218D02*
X031984Y006218D01*
X031886Y006120D02*
X031827Y005977D01*
X031827Y005822D01*
X031886Y005678D01*
X031867Y005726D02*
X013598Y005726D01*
X013423Y006218D02*
X013213Y006218D01*
X013282Y006317D02*
X013387Y006317D01*
X013375Y006415D02*
X013323Y006415D01*
X013335Y006514D02*
X013375Y006514D01*
X013407Y006612D02*
X013335Y006612D01*
X013304Y006711D02*
X013448Y006711D01*
X013546Y006809D02*
X013263Y006809D01*
X013166Y006908D02*
X013731Y006908D01*
X013979Y006908D02*
X014544Y006908D01*
X014447Y006809D02*
X014164Y006809D01*
X014262Y006711D02*
X014407Y006711D01*
X014375Y006612D02*
X014303Y006612D01*
X014335Y006514D02*
X014375Y006514D01*
X014387Y006415D02*
X014335Y006415D01*
X014324Y006317D02*
X014418Y006317D01*
X014319Y006218D02*
X014283Y006218D01*
X014220Y006120D02*
X014214Y006120D01*
X014447Y005923D02*
X031827Y005923D01*
X031827Y005824D02*
X014348Y005824D01*
X014546Y006021D02*
X017633Y006021D01*
X017519Y006120D02*
X017122Y006120D01*
X017237Y006218D02*
X017451Y006218D01*
X017410Y006317D02*
X017307Y006317D01*
X017348Y006415D02*
X017399Y006415D01*
X017399Y006514D02*
X017359Y006514D01*
X017313Y006908D02*
X017189Y006908D01*
X017313Y007006D02*
X017005Y007006D01*
X016753Y007006D02*
X014983Y007006D01*
X015166Y006908D02*
X016569Y006908D01*
X016472Y006809D02*
X015263Y006809D01*
X015304Y006711D02*
X016431Y006711D01*
X016399Y006612D02*
X015335Y006612D01*
X015335Y006514D02*
X016399Y006514D01*
X016411Y006415D02*
X015323Y006415D01*
X015282Y006317D02*
X016452Y006317D01*
X016521Y006218D02*
X015213Y006218D01*
X015096Y006120D02*
X016637Y006120D01*
X017313Y007105D02*
X011005Y007105D01*
X011005Y007203D02*
X017313Y007203D01*
X017313Y007302D02*
X011005Y007302D01*
X011005Y007400D02*
X017313Y007400D01*
X017313Y007499D02*
X011005Y007499D01*
X011051Y007597D02*
X017313Y007597D01*
X017313Y007696D02*
X011149Y007696D01*
X011248Y007794D02*
X017313Y007794D01*
X017313Y007893D02*
X011347Y007893D01*
X011445Y007991D02*
X017313Y007991D01*
X017313Y008090D02*
X011544Y008090D01*
X011643Y008188D02*
X017313Y008188D01*
X017313Y008287D02*
X011741Y008287D01*
X011840Y008385D02*
X017313Y008385D01*
X017313Y008484D02*
X011939Y008484D01*
X012037Y008582D02*
X017313Y008582D01*
X017313Y008681D02*
X012136Y008681D01*
X012235Y008779D02*
X017313Y008779D01*
X017313Y008878D02*
X012333Y008878D01*
X012432Y008976D02*
X017313Y008976D01*
X017269Y009075D02*
X012531Y009075D01*
X012630Y009173D02*
X017179Y009173D01*
X017180Y009272D02*
X012728Y009272D01*
X012827Y009370D02*
X017180Y009370D01*
X017181Y009445D02*
X017181Y009445D01*
X017181Y009469D02*
X012926Y009469D01*
X013024Y009567D02*
X017182Y009567D01*
X017279Y009666D02*
X013123Y009666D01*
X013222Y009764D02*
X017312Y009764D01*
X017312Y009863D02*
X013320Y009863D01*
X013419Y009961D02*
X017312Y009961D01*
X017312Y010060D02*
X013518Y010060D01*
X013616Y010158D02*
X017312Y010158D01*
X017312Y010257D02*
X013715Y010257D01*
X013814Y010355D02*
X017312Y010355D01*
X017312Y010454D02*
X013912Y010454D01*
X014011Y010552D02*
X017312Y010552D01*
X017312Y010651D02*
X014110Y010651D01*
X014208Y010749D02*
X017312Y010749D01*
X017312Y010848D02*
X014307Y010848D01*
X014406Y010946D02*
X017312Y010946D01*
X017312Y011045D02*
X014504Y011045D01*
X014603Y011143D02*
X017312Y011143D01*
X017312Y011242D02*
X014702Y011242D01*
X014800Y011340D02*
X017298Y011340D01*
X017200Y011439D02*
X015851Y011439D01*
X015951Y011537D02*
X017101Y011537D01*
X016952Y011931D02*
X015867Y011931D01*
X015909Y012128D02*
X016754Y012128D01*
X016656Y012227D02*
X015966Y012227D01*
X015981Y012325D02*
X016557Y012325D01*
X016458Y012424D02*
X015961Y012424D01*
X015897Y012522D02*
X016360Y012522D01*
X016261Y012621D02*
X008190Y012621D01*
X008122Y012553D02*
X008303Y012734D01*
X008401Y012970D01*
X008401Y013226D01*
X008303Y013463D01*
X008122Y013644D01*
X007885Y013742D01*
X007629Y013742D01*
X007392Y013644D01*
X007211Y013463D01*
X007113Y013226D01*
X007113Y012970D01*
X007211Y012734D01*
X007392Y012553D01*
X007629Y012455D01*
X007885Y012455D01*
X008122Y012553D01*
X008048Y012522D02*
X015487Y012522D01*
X015544Y012030D02*
X016853Y012030D01*
X017419Y012621D02*
X018744Y012621D01*
X018744Y012633D02*
X018743Y012572D01*
X018744Y012571D01*
X018743Y011440D01*
X018730Y011435D01*
X018649Y011354D01*
X018605Y011248D01*
X018605Y011133D01*
X018649Y011027D01*
X018730Y010946D01*
X018836Y010902D01*
X018951Y010902D01*
X019057Y010946D01*
X020821Y010946D01*
X020919Y010848D02*
X018325Y010848D01*
X018325Y010946D02*
X018730Y010946D01*
X018642Y011045D02*
X018325Y011045D01*
X018325Y011143D02*
X018605Y011143D01*
X018605Y011242D02*
X018325Y011242D01*
X018325Y011340D02*
X018643Y011340D01*
X018739Y011439D02*
X018325Y011439D01*
X018325Y011537D02*
X018743Y011537D01*
X018743Y011636D02*
X018325Y011636D01*
X018299Y011734D02*
X018744Y011734D01*
X018744Y011833D02*
X018202Y011833D01*
X018104Y011931D02*
X018744Y011931D01*
X018744Y012030D02*
X018006Y012030D01*
X017908Y012128D02*
X018744Y012128D01*
X018744Y012227D02*
X017810Y012227D01*
X017713Y012325D02*
X018744Y012325D01*
X018744Y012424D02*
X017615Y012424D01*
X017517Y012522D02*
X018744Y012522D01*
X018744Y012633D02*
X018744Y012695D01*
X018744Y012695D01*
X018749Y013558D01*
X018749Y013619D01*
X018750Y013620D01*
X018750Y013620D01*
X018789Y013659D01*
X017669Y013659D01*
X017664Y013645D01*
X017583Y013564D01*
X017477Y013520D01*
X017362Y013520D01*
X017256Y013564D01*
X017175Y013645D01*
X017131Y013751D01*
X017131Y013866D01*
X017175Y013972D01*
X017256Y014053D01*
X017362Y014097D01*
X017477Y014097D01*
X017583Y014053D01*
X017664Y013972D01*
X017669Y013959D01*
X025129Y013959D01*
X026567Y015397D01*
X026562Y015410D01*
X026562Y015525D01*
X026606Y015631D01*
X026687Y015712D01*
X026740Y015734D01*
X026676Y015761D01*
X026595Y015842D01*
X026551Y015948D01*
X026551Y016063D01*
X026595Y016169D01*
X026676Y016250D01*
X026782Y016294D01*
X026897Y016294D01*
X027003Y016250D01*
X027084Y016169D01*
X027128Y016063D01*
X027128Y015948D01*
X027122Y015934D01*
X027209Y015848D01*
X027209Y015848D01*
X027253Y015804D01*
X027297Y015760D01*
X027297Y015760D01*
X027297Y015698D01*
X027297Y015636D01*
X027296Y015636D01*
X027295Y015356D01*
X027296Y015294D01*
X027295Y015294D01*
X027295Y015293D01*
X027251Y015250D01*
X027062Y015060D01*
X027019Y015015D01*
X027018Y015015D01*
X027018Y015015D01*
X026956Y015015D01*
X026847Y015014D01*
X025331Y013498D01*
X019052Y013498D01*
X019049Y013495D01*
X019044Y012632D01*
X019043Y011440D01*
X019057Y011435D01*
X019138Y011354D01*
X019182Y011248D01*
X019182Y011133D01*
X019138Y011027D01*
X019057Y010946D01*
X019145Y011045D02*
X020722Y011045D01*
X020624Y011143D02*
X019182Y011143D01*
X019182Y011242D02*
X020525Y011242D01*
X020427Y011340D02*
X019143Y011340D01*
X019047Y011439D02*
X020329Y011439D01*
X020230Y011537D02*
X019043Y011537D01*
X019043Y011636D02*
X020132Y011636D01*
X020134Y011634D02*
X023732Y008031D01*
X023732Y007626D01*
X023732Y007564D01*
X023732Y007503D01*
X023732Y007502D01*
X023732Y007502D01*
X023776Y007458D01*
X023820Y007415D01*
X023820Y007415D01*
X024350Y006890D01*
X024345Y006878D01*
X024345Y006763D01*
X024389Y006657D01*
X024470Y006576D01*
X024576Y006532D01*
X024691Y006532D01*
X024797Y006576D01*
X024878Y006657D01*
X024920Y006758D01*
X025224Y006454D01*
X025318Y006360D01*
X026191Y006360D01*
X026192Y006357D01*
X026273Y006276D01*
X026379Y006232D01*
X026494Y006232D01*
X026600Y006276D01*
X026681Y006357D01*
X026725Y006463D01*
X026725Y006578D01*
X026681Y006684D01*
X026600Y006765D01*
X026494Y006809D01*
X026379Y006809D01*
X026273Y006765D01*
X026192Y006684D01*
X026191Y006680D01*
X025451Y006680D01*
X024822Y007309D01*
X024823Y007312D01*
X024823Y007427D01*
X024822Y007431D01*
X025806Y008418D01*
X025853Y008465D01*
X025853Y008466D01*
X025853Y008532D01*
X025859Y009294D01*
X025945Y009294D01*
X026009Y009358D01*
X026009Y009845D01*
X025945Y009910D01*
X025911Y009910D01*
X025904Y012841D01*
X028118Y015056D01*
X028241Y015179D01*
X028241Y016649D01*
X028241Y016736D01*
X028179Y016798D01*
X026782Y018198D01*
X026782Y018454D01*
X026718Y018518D01*
X026230Y018518D01*
X026166Y018454D01*
X026166Y017966D01*
X026230Y017902D01*
X026485Y017902D01*
X027821Y016562D01*
X027821Y015353D01*
X025606Y013138D01*
X025545Y013076D01*
X025483Y013015D01*
X025483Y013015D01*
X025483Y013015D01*
X019046Y013015D01*
X019047Y013113D02*
X025581Y013113D01*
X025606Y013138D02*
X025606Y013138D01*
X025680Y013212D02*
X019047Y013212D01*
X019048Y013310D02*
X025778Y013310D01*
X025877Y013409D02*
X019048Y013409D01*
X018748Y013409D02*
X016637Y013409D01*
X016539Y013507D02*
X018749Y013507D01*
X018749Y013606D02*
X017624Y013606D01*
X017636Y014000D02*
X025170Y014000D01*
X025268Y014098D02*
X015952Y014098D01*
X015854Y014197D02*
X025367Y014197D01*
X025465Y014295D02*
X015757Y014295D01*
X015659Y014394D02*
X025564Y014394D01*
X025662Y014492D02*
X015561Y014492D01*
X015463Y014591D02*
X025761Y014591D01*
X025859Y014689D02*
X015365Y014689D01*
X015268Y014788D02*
X025958Y014788D01*
X026056Y014886D02*
X015170Y014886D01*
X015072Y014985D02*
X020311Y014985D01*
X020279Y015017D02*
X020360Y014936D01*
X020466Y014892D01*
X020581Y014892D01*
X020687Y014936D01*
X020768Y015017D01*
X020812Y015123D01*
X020812Y015238D01*
X020810Y015241D01*
X021448Y015879D01*
X021543Y015879D01*
X021529Y015873D01*
X021413Y015758D01*
X021351Y015607D01*
X021351Y015444D01*
X021413Y015293D01*
X021529Y015178D01*
X021679Y015115D01*
X021842Y015115D01*
X021993Y015178D01*
X022109Y015293D01*
X022171Y015444D01*
X022171Y015607D01*
X022109Y015758D01*
X021993Y015873D01*
X021979Y015879D01*
X022534Y015879D01*
X022351Y015695D01*
X022351Y015355D01*
X022591Y015115D01*
X022931Y015115D01*
X023171Y015355D01*
X023171Y015695D01*
X022987Y015879D01*
X023174Y015879D01*
X023354Y015698D01*
X023351Y015695D01*
X023351Y015355D01*
X023591Y015115D01*
X023931Y015115D01*
X024171Y015355D01*
X024171Y015695D01*
X023931Y015935D01*
X023591Y015935D01*
X023580Y015924D01*
X023306Y016199D01*
X023014Y016199D01*
X023171Y016355D01*
X023171Y016695D01*
X022931Y016935D01*
X022591Y016935D01*
X022351Y016695D01*
X022351Y016355D01*
X022508Y016199D01*
X022014Y016199D01*
X022171Y016355D01*
X022171Y016695D01*
X021931Y016935D01*
X021591Y016935D01*
X021351Y016695D01*
X021351Y016355D01*
X021508Y016199D01*
X021315Y016199D01*
X021222Y016105D01*
X020584Y015467D01*
X020581Y015469D01*
X020466Y015469D01*
X020360Y015425D01*
X020279Y015344D01*
X020235Y015238D01*
X020235Y015123D01*
X020279Y015017D01*
X020251Y015083D02*
X014974Y015083D01*
X014876Y015182D02*
X020235Y015182D01*
X020252Y015280D02*
X014779Y015280D01*
X014681Y015379D02*
X020314Y015379D01*
X020523Y015180D02*
X021382Y016039D01*
X023240Y016039D01*
X023753Y015525D01*
X023761Y015525D01*
X024171Y015477D02*
X026562Y015477D01*
X026549Y015379D02*
X024171Y015379D01*
X024096Y015280D02*
X026450Y015280D01*
X026352Y015182D02*
X023997Y015182D01*
X024171Y015576D02*
X026583Y015576D01*
X026648Y015674D02*
X024171Y015674D01*
X024093Y015773D02*
X026664Y015773D01*
X026583Y015871D02*
X023995Y015871D01*
X023947Y016075D02*
X023811Y016075D01*
X023811Y016475D01*
X023711Y016475D01*
X023711Y016075D01*
X023575Y016075D01*
X023311Y016339D01*
X023311Y016475D01*
X023711Y016475D01*
X023711Y016575D01*
X023311Y016575D01*
X023311Y016712D01*
X023575Y016975D01*
X023711Y016975D01*
X023711Y016575D01*
X023811Y016575D01*
X023811Y016475D01*
X024211Y016475D01*
X024211Y016339D01*
X023947Y016075D01*
X024039Y016167D02*
X026594Y016167D01*
X026553Y016068D02*
X023437Y016068D01*
X023483Y016167D02*
X023338Y016167D01*
X023385Y016265D02*
X023081Y016265D01*
X023171Y016364D02*
X023311Y016364D01*
X023311Y016462D02*
X023171Y016462D01*
X023171Y016561D02*
X023711Y016561D01*
X023711Y016659D02*
X023811Y016659D01*
X023811Y016575D02*
X023811Y016975D01*
X023947Y016975D01*
X024211Y016712D01*
X024211Y016575D01*
X023811Y016575D01*
X023811Y016561D02*
X027821Y016561D01*
X027821Y016462D02*
X024211Y016462D01*
X024211Y016364D02*
X027821Y016364D01*
X027821Y016265D02*
X026966Y016265D01*
X027085Y016167D02*
X027821Y016167D01*
X027821Y016068D02*
X027126Y016068D01*
X027128Y015970D02*
X027821Y015970D01*
X027821Y015871D02*
X027186Y015871D01*
X027284Y015773D02*
X027821Y015773D01*
X027821Y015674D02*
X027297Y015674D01*
X027297Y015760D02*
X027297Y015760D01*
X027296Y015576D02*
X027821Y015576D01*
X027821Y015477D02*
X027296Y015477D01*
X027295Y015379D02*
X027821Y015379D01*
X027748Y015280D02*
X027282Y015280D01*
X027184Y015182D02*
X027650Y015182D01*
X027551Y015083D02*
X027086Y015083D01*
X026817Y014985D02*
X027453Y014985D01*
X027354Y014886D02*
X026719Y014886D01*
X026620Y014788D02*
X027256Y014788D01*
X027157Y014689D02*
X026522Y014689D01*
X026423Y014591D02*
X027059Y014591D01*
X026960Y014492D02*
X026325Y014492D01*
X026226Y014394D02*
X026862Y014394D01*
X026763Y014295D02*
X026128Y014295D01*
X026029Y014197D02*
X026665Y014197D01*
X026566Y014098D02*
X025931Y014098D01*
X025832Y014000D02*
X026468Y014000D01*
X026369Y013901D02*
X025734Y013901D01*
X025635Y013803D02*
X026271Y013803D01*
X026172Y013704D02*
X025537Y013704D01*
X025438Y013606D02*
X026074Y013606D01*
X025975Y013507D02*
X025340Y013507D01*
X025483Y013015D02*
X025483Y012928D01*
X025483Y012841D01*
X025484Y012841D01*
X025491Y009910D01*
X025458Y009910D01*
X025393Y009845D01*
X025393Y009358D01*
X025458Y009294D01*
X025539Y009294D01*
X025534Y008599D01*
X024937Y008000D01*
X024894Y008102D01*
X024813Y008183D01*
X024707Y008227D01*
X024593Y008227D01*
X024486Y008183D01*
X024405Y008102D01*
X024400Y008088D01*
X024360Y008088D01*
X020054Y012394D01*
X020060Y012407D01*
X020060Y012522D01*
X020016Y012628D01*
X019935Y012709D01*
X019829Y012753D01*
X019714Y012753D01*
X019608Y012709D01*
X019527Y012628D01*
X019483Y012522D01*
X019483Y012407D01*
X019527Y012301D01*
X019596Y012232D01*
X019526Y012162D01*
X019483Y012056D01*
X019483Y011941D01*
X019526Y011835D01*
X019608Y011754D01*
X019714Y011710D01*
X019828Y011710D01*
X019934Y011754D01*
X019973Y011793D01*
X020134Y011634D01*
X020033Y011734D02*
X019886Y011734D01*
X019656Y011734D02*
X019044Y011734D01*
X019044Y011833D02*
X019529Y011833D01*
X019487Y011931D02*
X019044Y011931D01*
X019044Y012030D02*
X019483Y012030D01*
X019512Y012128D02*
X019044Y012128D01*
X019044Y012227D02*
X019591Y012227D01*
X019517Y012325D02*
X019044Y012325D01*
X019044Y012424D02*
X019483Y012424D01*
X019483Y012522D02*
X019044Y012522D01*
X019044Y012621D02*
X019524Y012621D01*
X019632Y012719D02*
X019044Y012719D01*
X019045Y012818D02*
X025484Y012818D01*
X025483Y012916D02*
X019045Y012916D01*
X018745Y012916D02*
X017126Y012916D01*
X017224Y012818D02*
X018745Y012818D01*
X018744Y012719D02*
X017321Y012719D01*
X017028Y013015D02*
X018746Y013015D01*
X018747Y013113D02*
X016930Y013113D01*
X016832Y013212D02*
X018747Y013212D01*
X018748Y013310D02*
X016735Y013310D01*
X016441Y013606D02*
X017215Y013606D01*
X017151Y013704D02*
X016343Y013704D01*
X016246Y013803D02*
X017131Y013803D01*
X017145Y013901D02*
X016148Y013901D01*
X016050Y014000D02*
X017202Y014000D01*
X015867Y013015D02*
X008401Y013015D01*
X008401Y013113D02*
X015768Y013113D01*
X015669Y013212D02*
X008401Y013212D01*
X008366Y013310D02*
X015571Y013310D01*
X015472Y013409D02*
X008325Y013409D01*
X008258Y013507D02*
X015374Y013507D01*
X015275Y013606D02*
X008160Y013606D01*
X007976Y013704D02*
X015176Y013704D01*
X015078Y013803D02*
X003867Y013803D01*
X003867Y013901D02*
X014979Y013901D01*
X014880Y014000D02*
X003867Y014000D01*
X003867Y014098D02*
X014782Y014098D01*
X014683Y014197D02*
X003867Y014197D01*
X003867Y014295D02*
X014584Y014295D01*
X014486Y014394D02*
X003867Y014394D01*
X003867Y014492D02*
X014387Y014492D01*
X014289Y014591D02*
X003867Y014591D01*
X003867Y014689D02*
X014190Y014689D01*
X014091Y014788D02*
X013364Y014788D01*
X013447Y014886D02*
X013993Y014886D01*
X013894Y014985D02*
X013480Y014985D01*
X013479Y015083D02*
X013795Y015083D01*
X013697Y015182D02*
X013438Y015182D01*
X013342Y015280D02*
X013598Y015280D01*
X013500Y015379D02*
X013342Y015379D01*
X013342Y015477D02*
X013401Y015477D01*
X013042Y015477D02*
X005114Y015477D01*
X005213Y015576D02*
X013043Y015576D01*
X013043Y015674D02*
X005311Y015674D01*
X005354Y015773D02*
X013043Y015773D01*
X013043Y015871D02*
X005395Y015871D01*
X005435Y015970D02*
X013043Y015970D01*
X013043Y016068D02*
X005442Y016068D01*
X005442Y016167D02*
X013043Y016167D01*
X013044Y016265D02*
X005442Y016265D01*
X005424Y016364D02*
X013044Y016364D01*
X013044Y016462D02*
X005383Y016462D01*
X005343Y016561D02*
X013044Y016561D01*
X013044Y016659D02*
X005284Y016659D01*
X005186Y016758D02*
X013044Y016758D01*
X013044Y016856D02*
X005087Y016856D01*
X004863Y016955D02*
X013045Y016955D01*
X013045Y017053D02*
X003867Y017053D01*
X003867Y016955D02*
X004340Y016955D01*
X004116Y016856D02*
X003867Y016856D01*
X003867Y016758D02*
X004017Y016758D01*
X003919Y016659D02*
X003867Y016659D01*
X003867Y017152D02*
X013045Y017152D01*
X013045Y017250D02*
X003867Y017250D01*
X003867Y017349D02*
X013045Y017349D01*
X013045Y017447D02*
X003867Y017447D01*
X003867Y017546D02*
X013045Y017546D01*
X013046Y017644D02*
X003867Y017644D01*
X003867Y017743D02*
X013046Y017743D01*
X013046Y017841D02*
X003867Y017841D01*
X003867Y017940D02*
X013029Y017940D01*
X012931Y018038D02*
X003867Y018038D01*
X003867Y018137D02*
X012832Y018137D01*
X012734Y018235D02*
X003867Y018235D01*
X003867Y018334D02*
X012635Y018334D01*
X012537Y018432D02*
X003867Y018432D01*
X003867Y018531D02*
X012438Y018531D01*
X012340Y018629D02*
X003867Y018629D01*
X003867Y018728D02*
X012241Y018728D01*
X012143Y018826D02*
X003867Y018826D01*
X003867Y018925D02*
X008519Y018925D01*
X008420Y019023D02*
X003867Y019023D01*
X003867Y019122D02*
X008322Y019122D01*
X008223Y019220D02*
X007002Y019220D01*
X006966Y019205D02*
X007142Y019278D01*
X007277Y019413D01*
X007351Y019590D01*
X007351Y019781D01*
X007277Y019957D01*
X007142Y020092D01*
X006966Y020165D01*
X006775Y020165D01*
X006599Y020092D01*
X006464Y019957D01*
X006391Y019781D01*
X006391Y019590D01*
X006464Y019413D01*
X006599Y019278D01*
X006775Y019205D01*
X006966Y019205D01*
X006739Y019220D02*
X005002Y019220D01*
X004966Y019205D02*
X005142Y019278D01*
X005277Y019413D01*
X005351Y019590D01*
X005351Y019781D01*
X005277Y019957D01*
X005142Y020092D01*
X004966Y020165D01*
X004775Y020165D01*
X004599Y020092D01*
X004464Y019957D01*
X004391Y019781D01*
X004391Y019590D01*
X004464Y019413D01*
X004599Y019278D01*
X004775Y019205D01*
X004966Y019205D01*
X004739Y019220D02*
X003867Y019220D01*
X003867Y019319D02*
X004558Y019319D01*
X004462Y019417D02*
X003867Y019417D01*
X003867Y019516D02*
X004421Y019516D01*
X004391Y019614D02*
X003867Y019614D01*
X003867Y019713D02*
X004391Y019713D01*
X004403Y019811D02*
X003867Y019811D01*
X003867Y019910D02*
X004444Y019910D01*
X004515Y020008D02*
X003867Y020008D01*
X003867Y020107D02*
X004634Y020107D01*
X005107Y020107D02*
X005513Y020107D01*
X005464Y020057D02*
X005391Y019881D01*
X005391Y019690D01*
X005464Y019513D01*
X005599Y019378D01*
X005775Y019305D01*
X005966Y019305D01*
X006142Y019378D01*
X006277Y019513D01*
X006351Y019690D01*
X006351Y019881D01*
X006277Y020057D01*
X006142Y020192D01*
X005966Y020265D01*
X005775Y020265D01*
X005599Y020192D01*
X005464Y020057D01*
X005443Y020008D02*
X005226Y020008D01*
X005297Y019910D02*
X005403Y019910D01*
X005391Y019811D02*
X005338Y019811D01*
X005351Y019713D02*
X005391Y019713D01*
X005422Y019614D02*
X005351Y019614D01*
X005320Y019516D02*
X005463Y019516D01*
X005560Y019417D02*
X005279Y019417D01*
X005183Y019319D02*
X005742Y019319D01*
X005999Y019319D02*
X006558Y019319D01*
X006462Y019417D02*
X006181Y019417D01*
X006278Y019516D02*
X006421Y019516D01*
X006391Y019614D02*
X006319Y019614D01*
X006351Y019713D02*
X006391Y019713D01*
X006403Y019811D02*
X006351Y019811D01*
X006339Y019910D02*
X006444Y019910D01*
X006515Y020008D02*
X006298Y020008D01*
X006228Y020107D02*
X006634Y020107D01*
X007107Y020107D02*
X007513Y020107D01*
X007443Y020008D02*
X007226Y020008D01*
X007297Y019910D02*
X007403Y019910D01*
X007391Y019811D02*
X007338Y019811D01*
X007351Y019713D02*
X007391Y019713D01*
X007422Y019614D02*
X007351Y019614D01*
X007320Y019516D02*
X007463Y019516D01*
X007560Y019417D02*
X007279Y019417D01*
X007183Y019319D02*
X007742Y019319D01*
X007999Y019319D02*
X008125Y019319D01*
X008352Y019516D02*
X008421Y019516D01*
X008391Y019590D02*
X008464Y019413D01*
X008599Y019278D01*
X008775Y019205D01*
X008966Y019205D01*
X009142Y019278D01*
X009277Y019413D01*
X009351Y019590D01*
X009351Y019781D01*
X009277Y019957D01*
X009142Y020092D01*
X008966Y020165D01*
X008775Y020165D01*
X008599Y020092D01*
X008464Y019957D01*
X008391Y019781D01*
X008391Y019590D01*
X008391Y019614D02*
X008319Y019614D01*
X008351Y019713D02*
X008391Y019713D01*
X008403Y019811D02*
X008351Y019811D01*
X008339Y019910D02*
X008444Y019910D01*
X008515Y020008D02*
X008298Y020008D01*
X008228Y020107D02*
X008634Y020107D01*
X009107Y020107D02*
X010642Y020107D01*
X010515Y020008D02*
X009226Y020008D01*
X009297Y019910D02*
X010442Y019910D01*
X010401Y019811D02*
X009338Y019811D01*
X009351Y019713D02*
X010386Y019713D01*
X010386Y019614D02*
X009351Y019614D01*
X009320Y019516D02*
X010415Y019516D01*
X010456Y019417D02*
X009279Y019417D01*
X009183Y019319D02*
X010549Y019319D01*
X010722Y019220D02*
X009002Y019220D01*
X008739Y019220D02*
X008648Y019220D01*
X008558Y019319D02*
X008549Y019319D01*
X008462Y019417D02*
X008451Y019417D01*
X008111Y020205D02*
X011638Y020205D01*
X011514Y020107D02*
X011091Y020107D01*
X011217Y020008D02*
X011441Y020008D01*
X011400Y019910D02*
X011291Y019910D01*
X011331Y019811D02*
X011386Y019811D01*
X011386Y019713D02*
X011346Y019713D01*
X011346Y019614D02*
X011415Y019614D01*
X011456Y019516D02*
X011318Y019516D01*
X011341Y019417D02*
X011550Y019417D01*
X011114Y019220D02*
X011010Y019220D01*
X012094Y020205D02*
X013638Y020205D01*
X013514Y020107D02*
X013091Y020107D01*
X013217Y020008D02*
X013441Y020008D01*
X013400Y019910D02*
X013291Y019910D01*
X013331Y019811D02*
X013386Y019811D01*
X013386Y019713D02*
X013346Y019713D01*
X013346Y019614D02*
X013415Y019614D01*
X013456Y019516D02*
X013318Y019516D01*
X013277Y019417D02*
X013550Y019417D01*
X013715Y019319D02*
X013343Y019319D01*
X013441Y019220D02*
X013715Y019220D01*
X013715Y019122D02*
X013540Y019122D01*
X013639Y019023D02*
X013715Y019023D01*
X014015Y019023D02*
X028682Y019023D01*
X028625Y018967D02*
X029146Y019479D01*
X029142Y019490D01*
X029142Y019605D01*
X029185Y019711D01*
X029267Y019792D01*
X029373Y019836D01*
X029487Y019836D01*
X029593Y019792D01*
X029674Y019711D01*
X029718Y019605D01*
X029718Y019490D01*
X029674Y019384D01*
X029593Y019303D01*
X029487Y019259D01*
X029373Y019259D01*
X029357Y019265D01*
X029057Y018971D01*
X029171Y018971D01*
X029176Y018985D01*
X029258Y019066D01*
X029364Y019110D01*
X029478Y019110D01*
X029584Y019066D01*
X029666Y018985D01*
X029709Y018879D01*
X029709Y018764D01*
X029666Y018658D01*
X029584Y018577D01*
X029478Y018533D01*
X029364Y018533D01*
X029258Y018577D01*
X029176Y018658D01*
X029171Y018671D01*
X029013Y018671D01*
X029013Y018451D01*
X029009Y014804D01*
X029009Y014741D01*
X029009Y014741D01*
X028965Y014697D01*
X027235Y012969D01*
X027235Y012022D01*
X027301Y011956D01*
X027344Y011912D01*
X027344Y011912D01*
X027345Y011911D01*
X027345Y011850D01*
X027345Y011577D01*
X027347Y011516D01*
X027346Y011515D01*
X027346Y011513D01*
X027303Y011470D01*
X027173Y011333D01*
X027173Y011331D01*
X027131Y011288D01*
X027089Y011245D01*
X027087Y011245D01*
X027085Y011243D01*
X027025Y011243D01*
X026965Y011241D01*
X026963Y011243D01*
X026789Y011243D01*
X026784Y011230D01*
X026702Y011148D01*
X026596Y011105D01*
X026482Y011105D01*
X026376Y011148D01*
X026295Y011230D01*
X026251Y011336D01*
X026251Y011450D01*
X026295Y011556D01*
X026376Y011637D01*
X026482Y011681D01*
X026596Y011681D01*
X026621Y011671D01*
X026621Y011754D01*
X026665Y011860D01*
X026746Y011941D01*
X026759Y011946D01*
X026759Y013031D01*
X026759Y013031D01*
X026759Y013094D01*
X026759Y013155D01*
X026759Y013155D01*
X026759Y013156D01*
X026804Y013200D01*
X026847Y013243D01*
X026847Y013243D01*
X028537Y014934D01*
X028541Y018256D01*
X028541Y018256D01*
X028541Y018317D01*
X028541Y018380D01*
X028542Y018380D01*
X028542Y018490D01*
X028538Y018756D01*
X028537Y018757D01*
X028537Y018818D01*
X028537Y018878D01*
X028538Y018880D01*
X028538Y018882D01*
X028581Y018924D01*
X028623Y018967D01*
X028625Y018967D01*
X028582Y018925D02*
X014015Y018925D01*
X014015Y018826D02*
X028537Y018826D01*
X028539Y018728D02*
X014014Y018728D01*
X014014Y018629D02*
X028540Y018629D01*
X028541Y018531D02*
X014014Y018531D01*
X014014Y018432D02*
X026166Y018432D01*
X026166Y018334D02*
X014014Y018334D01*
X014013Y018235D02*
X026166Y018235D01*
X026166Y018137D02*
X014013Y018137D01*
X014013Y018038D02*
X026166Y018038D01*
X026193Y017940D02*
X014013Y017940D01*
X014013Y017841D02*
X026545Y017841D01*
X026644Y017743D02*
X014013Y017743D01*
X014012Y017644D02*
X026742Y017644D01*
X026840Y017546D02*
X014012Y017546D01*
X014012Y017447D02*
X026938Y017447D01*
X027037Y017349D02*
X014012Y017349D01*
X014012Y017250D02*
X027135Y017250D01*
X027233Y017152D02*
X014012Y017152D01*
X014011Y017053D02*
X027331Y017053D01*
X027430Y016955D02*
X023968Y016955D01*
X024067Y016856D02*
X027528Y016856D01*
X027626Y016758D02*
X024165Y016758D01*
X024211Y016659D02*
X027724Y016659D01*
X028023Y016955D02*
X028540Y016955D01*
X028540Y017053D02*
X027925Y017053D01*
X027826Y017152D02*
X028540Y017152D01*
X028540Y017250D02*
X027728Y017250D01*
X027630Y017349D02*
X028540Y017349D01*
X028540Y017447D02*
X027532Y017447D01*
X027433Y017546D02*
X028540Y017546D01*
X028540Y017644D02*
X027335Y017644D01*
X027237Y017743D02*
X028541Y017743D01*
X028541Y017841D02*
X027139Y017841D01*
X027040Y017940D02*
X028541Y017940D01*
X028541Y018038D02*
X026942Y018038D01*
X026844Y018137D02*
X028541Y018137D01*
X028541Y018235D02*
X026782Y018235D01*
X026782Y018334D02*
X028541Y018334D01*
X028542Y018432D02*
X026782Y018432D01*
X028121Y016856D02*
X028539Y016856D01*
X028539Y016758D02*
X028219Y016758D01*
X028241Y016736D02*
X028241Y016736D01*
X028241Y016736D01*
X028241Y016659D02*
X028539Y016659D01*
X028539Y016561D02*
X028241Y016561D01*
X028241Y016462D02*
X028539Y016462D01*
X028539Y016364D02*
X028241Y016364D01*
X028241Y016265D02*
X028539Y016265D01*
X028538Y016167D02*
X028241Y016167D01*
X028241Y016068D02*
X028538Y016068D01*
X028538Y015970D02*
X028241Y015970D01*
X028241Y015871D02*
X028538Y015871D01*
X028538Y015773D02*
X028241Y015773D01*
X028241Y015674D02*
X028538Y015674D01*
X028538Y015576D02*
X028241Y015576D01*
X028241Y015477D02*
X028538Y015477D01*
X028537Y015379D02*
X028241Y015379D01*
X028241Y015280D02*
X028537Y015280D01*
X028537Y015182D02*
X028241Y015182D01*
X028145Y015083D02*
X028537Y015083D01*
X028537Y014985D02*
X028047Y014985D01*
X027948Y014886D02*
X028489Y014886D01*
X028391Y014788D02*
X027850Y014788D01*
X027751Y014689D02*
X028292Y014689D01*
X028194Y014591D02*
X027653Y014591D01*
X027554Y014492D02*
X028095Y014492D01*
X027997Y014394D02*
X027456Y014394D01*
X027357Y014295D02*
X027898Y014295D01*
X027800Y014197D02*
X027259Y014197D01*
X027160Y014098D02*
X027701Y014098D01*
X027603Y014000D02*
X027062Y014000D01*
X026963Y013901D02*
X027504Y013901D01*
X027406Y013803D02*
X026865Y013803D01*
X026766Y013704D02*
X027307Y013704D01*
X027209Y013606D02*
X026668Y013606D01*
X026569Y013507D02*
X027110Y013507D01*
X027012Y013409D02*
X026471Y013409D01*
X026372Y013310D02*
X026913Y013310D01*
X026815Y013212D02*
X026274Y013212D01*
X026175Y013113D02*
X026759Y013113D01*
X026759Y013015D02*
X026077Y013015D01*
X025978Y012916D02*
X026759Y012916D01*
X026759Y012818D02*
X025904Y012818D01*
X025904Y012719D02*
X026759Y012719D01*
X026759Y012621D02*
X025904Y012621D01*
X025904Y012522D02*
X026759Y012522D01*
X026759Y012424D02*
X025905Y012424D01*
X025905Y012325D02*
X026759Y012325D01*
X026759Y012227D02*
X025905Y012227D01*
X025905Y012128D02*
X026759Y012128D01*
X026759Y012030D02*
X025905Y012030D01*
X025906Y011931D02*
X026736Y011931D01*
X026653Y011833D02*
X025906Y011833D01*
X025906Y011734D02*
X026621Y011734D01*
X026374Y011636D02*
X025906Y011636D01*
X025907Y011537D02*
X026287Y011537D01*
X026251Y011439D02*
X025907Y011439D01*
X025907Y011340D02*
X026251Y011340D01*
X026290Y011242D02*
X025907Y011242D01*
X025908Y011143D02*
X026389Y011143D01*
X026689Y011143D02*
X033289Y011143D01*
X033289Y011045D02*
X025908Y011045D01*
X025908Y010946D02*
X033289Y010946D01*
X033289Y010848D02*
X025908Y010848D01*
X025909Y010749D02*
X033289Y010749D01*
X033289Y010651D02*
X025909Y010651D01*
X025909Y010552D02*
X033289Y010552D01*
X033289Y010454D02*
X025909Y010454D01*
X025909Y010355D02*
X033289Y010355D01*
X033289Y010257D02*
X025910Y010257D01*
X025910Y010158D02*
X033289Y010158D01*
X033289Y010060D02*
X025910Y010060D01*
X025910Y009961D02*
X033289Y009961D01*
X033289Y009863D02*
X025992Y009863D01*
X026009Y009764D02*
X033289Y009764D01*
X033289Y009666D02*
X026009Y009666D01*
X026009Y009567D02*
X033289Y009567D01*
X033289Y009469D02*
X026009Y009469D01*
X026009Y009370D02*
X033289Y009370D01*
X033289Y009272D02*
X032660Y009272D01*
X032643Y009289D02*
X032707Y009225D01*
X032707Y008574D01*
X032643Y008509D01*
X031992Y008509D01*
X031927Y008574D01*
X031927Y009225D01*
X031992Y009289D01*
X032643Y009289D01*
X032707Y009173D02*
X033289Y009173D01*
X033289Y009075D02*
X032707Y009075D01*
X032707Y008976D02*
X033289Y008976D01*
X033289Y008878D02*
X032707Y008878D01*
X032707Y008779D02*
X033289Y008779D01*
X033289Y008681D02*
X032707Y008681D01*
X032707Y008582D02*
X033289Y008582D01*
X033289Y008484D02*
X025853Y008484D01*
X025853Y008465D02*
X025853Y008465D01*
X025773Y008385D02*
X033289Y008385D01*
X033289Y008287D02*
X032301Y008287D01*
X032295Y008289D02*
X032139Y008289D01*
X031996Y008230D01*
X031886Y008120D01*
X031827Y007977D01*
X031827Y007822D01*
X031886Y007678D01*
X031996Y007569D01*
X032139Y007509D01*
X032295Y007509D01*
X032438Y007569D01*
X032548Y007678D01*
X032607Y007822D01*
X032607Y007977D01*
X032548Y008120D01*
X032438Y008230D01*
X032295Y008289D01*
X032133Y008287D02*
X025675Y008287D01*
X025576Y008188D02*
X031954Y008188D01*
X031874Y008090D02*
X025478Y008090D01*
X025380Y007991D02*
X031833Y007991D01*
X031827Y007893D02*
X025282Y007893D01*
X025184Y007794D02*
X031839Y007794D01*
X031879Y007696D02*
X025085Y007696D01*
X024987Y007597D02*
X031968Y007597D01*
X032096Y007230D02*
X031986Y007120D01*
X031927Y006977D01*
X031927Y006822D01*
X031986Y006678D01*
X032096Y006569D01*
X032239Y006509D01*
X032395Y006509D01*
X032538Y006569D01*
X032648Y006678D01*
X032707Y006822D01*
X032707Y006977D01*
X032648Y007120D01*
X032538Y007230D01*
X032395Y007289D01*
X032239Y007289D01*
X032096Y007230D01*
X032069Y007203D02*
X024928Y007203D01*
X025026Y007105D02*
X031980Y007105D01*
X031939Y007006D02*
X025125Y007006D01*
X025223Y006908D02*
X031927Y006908D01*
X031932Y006809D02*
X025322Y006809D01*
X025420Y006711D02*
X026219Y006711D01*
X026437Y006520D02*
X025384Y006520D01*
X024535Y007370D01*
X025693Y008532D01*
X025701Y009602D01*
X025393Y009567D02*
X022881Y009567D01*
X022979Y009469D02*
X025393Y009469D01*
X025393Y009370D02*
X023078Y009370D01*
X023176Y009272D02*
X025539Y009272D01*
X025538Y009173D02*
X023275Y009173D01*
X023373Y009075D02*
X025537Y009075D01*
X025537Y008976D02*
X023472Y008976D01*
X023570Y008878D02*
X025536Y008878D01*
X025535Y008779D02*
X023669Y008779D01*
X023767Y008681D02*
X025534Y008681D01*
X025517Y008582D02*
X023866Y008582D01*
X023964Y008484D02*
X025419Y008484D01*
X025321Y008385D02*
X024063Y008385D01*
X024161Y008287D02*
X025223Y008287D01*
X025125Y008188D02*
X024802Y008188D01*
X024900Y008090D02*
X025026Y008090D01*
X024498Y008188D02*
X024260Y008188D01*
X024358Y008090D02*
X024400Y008090D01*
X023732Y007991D02*
X018666Y007991D01*
X018644Y008090D02*
X023673Y008090D01*
X023575Y008188D02*
X018644Y008188D01*
X018644Y008287D02*
X023477Y008287D01*
X023378Y008385D02*
X018693Y008385D01*
X018889Y008484D02*
X023280Y008484D01*
X023182Y008582D02*
X018988Y008582D01*
X019087Y008681D02*
X023083Y008681D01*
X022985Y008779D02*
X019384Y008779D01*
X019465Y008878D02*
X022886Y008878D01*
X022788Y008976D02*
X019496Y008976D01*
X019494Y009075D02*
X022690Y009075D01*
X022591Y009173D02*
X019453Y009173D01*
X019333Y009272D02*
X022493Y009272D01*
X022395Y009370D02*
X019178Y009370D01*
X019159Y009469D02*
X022296Y009469D01*
X022198Y009567D02*
X019096Y009567D01*
X018615Y009666D02*
X022099Y009666D01*
X022001Y009764D02*
X018516Y009764D01*
X018418Y009863D02*
X021903Y009863D01*
X021804Y009961D02*
X018325Y009961D01*
X018325Y010060D02*
X021706Y010060D01*
X021608Y010158D02*
X018325Y010158D01*
X018325Y010257D02*
X021509Y010257D01*
X021411Y010355D02*
X018325Y010355D01*
X018325Y010454D02*
X021312Y010454D01*
X021214Y010552D02*
X018325Y010552D01*
X018325Y010651D02*
X021116Y010651D01*
X021017Y010749D02*
X018325Y010749D01*
X020123Y012325D02*
X025485Y012325D01*
X025485Y012227D02*
X020221Y012227D01*
X020320Y012128D02*
X025485Y012128D01*
X025485Y012030D02*
X020418Y012030D01*
X020517Y011931D02*
X025486Y011931D01*
X025486Y011833D02*
X020615Y011833D01*
X020714Y011734D02*
X025486Y011734D01*
X025486Y011636D02*
X020812Y011636D01*
X020911Y011537D02*
X025487Y011537D01*
X025487Y011439D02*
X021009Y011439D01*
X021108Y011340D02*
X025487Y011340D01*
X025487Y011242D02*
X021206Y011242D01*
X021305Y011143D02*
X025488Y011143D01*
X025488Y011045D02*
X021403Y011045D01*
X021502Y010946D02*
X025488Y010946D01*
X025488Y010848D02*
X021600Y010848D01*
X021699Y010749D02*
X025489Y010749D01*
X025489Y010651D02*
X021797Y010651D01*
X021896Y010552D02*
X025489Y010552D01*
X025489Y010454D02*
X021994Y010454D01*
X022093Y010355D02*
X025489Y010355D01*
X025490Y010257D02*
X022191Y010257D01*
X022290Y010158D02*
X025490Y010158D01*
X025490Y010060D02*
X022388Y010060D01*
X022487Y009961D02*
X025490Y009961D01*
X025410Y009863D02*
X022585Y009863D01*
X022684Y009764D02*
X025393Y009764D01*
X025393Y009666D02*
X022782Y009666D01*
X023732Y007893D02*
X018765Y007893D01*
X018864Y007794D02*
X023732Y007794D01*
X023732Y007696D02*
X019579Y007696D01*
X019683Y007597D02*
X023732Y007597D01*
X023732Y007626D02*
X023732Y007626D01*
X023736Y007499D02*
X019788Y007499D01*
X020199Y006798D02*
X020408Y006797D01*
X020450Y006756D01*
X020399Y006612D02*
X020327Y006612D01*
X020359Y006514D02*
X020399Y006514D01*
X020411Y006415D02*
X020359Y006415D01*
X020348Y006317D02*
X020452Y006317D01*
X020521Y006218D02*
X020307Y006218D01*
X020239Y006120D02*
X020637Y006120D01*
X021122Y006120D02*
X021519Y006120D01*
X021451Y006218D02*
X021237Y006218D01*
X021307Y006317D02*
X021410Y006317D01*
X021399Y006415D02*
X021348Y006415D01*
X021359Y006514D02*
X021399Y006514D01*
X021431Y006612D02*
X021359Y006612D01*
X021328Y006711D02*
X021393Y006711D01*
X021294Y006809D02*
X021287Y006809D01*
X021669Y007105D02*
X024133Y007105D01*
X024034Y007203D02*
X021572Y007203D01*
X021475Y007302D02*
X023934Y007302D01*
X023835Y007400D02*
X020726Y007400D01*
X020199Y006798D02*
X020286Y006711D01*
X020125Y006021D02*
X021633Y006021D01*
X022125Y006021D02*
X031845Y006021D01*
X032229Y006514D02*
X026725Y006514D01*
X026711Y006612D02*
X032053Y006612D01*
X031973Y006711D02*
X026654Y006711D01*
X026705Y006415D02*
X033289Y006415D01*
X033289Y006317D02*
X026641Y006317D01*
X026232Y006317D02*
X023307Y006317D01*
X023348Y006415D02*
X025263Y006415D01*
X025165Y006514D02*
X023359Y006514D01*
X023359Y006612D02*
X024434Y006612D01*
X024367Y006711D02*
X023328Y006711D01*
X023287Y006809D02*
X024345Y006809D01*
X024332Y006908D02*
X023189Y006908D01*
X023005Y007006D02*
X024233Y007006D01*
X024829Y007302D02*
X033289Y007302D01*
X033289Y007400D02*
X024823Y007400D01*
X024889Y007499D02*
X033289Y007499D01*
X033289Y007597D02*
X032466Y007597D01*
X032555Y007696D02*
X033289Y007696D01*
X033289Y007794D02*
X032596Y007794D01*
X032607Y007893D02*
X033289Y007893D01*
X033289Y007991D02*
X032601Y007991D01*
X032560Y008090D02*
X033289Y008090D01*
X033289Y008188D02*
X032480Y008188D01*
X031927Y008582D02*
X025854Y008582D01*
X025854Y008681D02*
X031927Y008681D01*
X031927Y008779D02*
X025855Y008779D01*
X025856Y008878D02*
X031927Y008878D01*
X031927Y008976D02*
X025857Y008976D01*
X025857Y009075D02*
X031927Y009075D01*
X031927Y009173D02*
X025858Y009173D01*
X025859Y009272D02*
X031974Y009272D01*
X032565Y007203D02*
X033289Y007203D01*
X033289Y007105D02*
X032654Y007105D01*
X032695Y007006D02*
X033289Y007006D01*
X033289Y006908D02*
X032707Y006908D01*
X032702Y006809D02*
X033289Y006809D01*
X033289Y006711D02*
X032661Y006711D01*
X032581Y006612D02*
X033289Y006612D01*
X033289Y006514D02*
X032405Y006514D01*
X032438Y006230D02*
X032548Y006120D01*
X032589Y006021D02*
X033289Y006021D01*
X033289Y005923D02*
X032607Y005923D01*
X032607Y005824D02*
X033289Y005824D01*
X033289Y005726D02*
X032567Y005726D01*
X032496Y005627D02*
X033289Y005627D01*
X033289Y005529D02*
X032341Y005529D01*
X032093Y005529D02*
X017854Y005529D01*
X018125Y006021D02*
X019633Y006021D01*
X019519Y006120D02*
X019122Y006120D01*
X019237Y006218D02*
X019451Y006218D01*
X019410Y006317D02*
X019307Y006317D01*
X019348Y006415D02*
X019399Y006415D01*
X019399Y006514D02*
X019359Y006514D01*
X019359Y006612D02*
X019431Y006612D01*
X019393Y006711D02*
X019328Y006711D01*
X019294Y006809D02*
X019287Y006809D01*
X018450Y006756D02*
X017781Y007424D01*
X017781Y006918D01*
X017784Y006919D01*
X017975Y006919D01*
X018151Y006846D01*
X018286Y006711D01*
X018327Y006612D02*
X018399Y006612D01*
X018399Y006514D02*
X018359Y006514D01*
X018359Y006415D02*
X018411Y006415D01*
X018452Y006317D02*
X018348Y006317D01*
X018307Y006218D02*
X018521Y006218D01*
X018637Y006120D02*
X018239Y006120D01*
X018188Y006809D02*
X018396Y006809D01*
X018298Y006908D02*
X018001Y006908D01*
X018100Y007105D02*
X017781Y007105D01*
X017781Y007203D02*
X018002Y007203D01*
X017903Y007302D02*
X017781Y007302D01*
X017781Y007400D02*
X017805Y007400D01*
X017781Y007006D02*
X018199Y007006D01*
X018616Y005430D02*
X033289Y005430D01*
X033289Y005332D02*
X018715Y005332D01*
X018684Y005362D02*
X018684Y005362D01*
X018813Y005233D02*
X033289Y005233D01*
X033289Y005135D02*
X020440Y005135D01*
X020536Y005036D02*
X032123Y005036D01*
X031972Y004938D02*
X022030Y004938D01*
X022096Y004910D02*
X021953Y004970D01*
X021798Y004970D01*
X021654Y004910D01*
X021544Y004801D01*
X021485Y004657D01*
X021485Y004502D01*
X021544Y004359D01*
X021654Y004249D01*
X021798Y004190D01*
X021953Y004190D01*
X022096Y004249D01*
X022206Y004359D01*
X022265Y004502D01*
X022265Y004657D01*
X022206Y004801D01*
X022096Y004910D01*
X022167Y004839D02*
X022723Y004839D01*
X022654Y004810D02*
X022544Y004701D01*
X022485Y004557D01*
X022485Y004402D01*
X022544Y004259D01*
X022654Y004149D01*
X022798Y004090D01*
X022953Y004090D01*
X023096Y004149D01*
X023206Y004259D01*
X023265Y004402D01*
X023265Y004557D01*
X023206Y004701D01*
X023096Y004810D01*
X022953Y004870D01*
X022798Y004870D01*
X022654Y004810D01*
X022584Y004741D02*
X022231Y004741D01*
X022265Y004642D02*
X022520Y004642D01*
X022485Y004544D02*
X022265Y004544D01*
X022241Y004445D02*
X022485Y004445D01*
X022508Y004347D02*
X022193Y004347D01*
X022093Y004248D02*
X022555Y004248D01*
X022654Y004150D02*
X021096Y004150D01*
X021195Y004248D02*
X021657Y004248D01*
X021557Y004347D02*
X021242Y004347D01*
X021265Y004445D02*
X021509Y004445D01*
X021485Y004544D02*
X021265Y004544D01*
X021230Y004642D02*
X021485Y004642D01*
X021520Y004741D02*
X021166Y004741D01*
X021027Y004839D02*
X021583Y004839D01*
X021720Y004938D02*
X020634Y004938D01*
X020407Y004741D02*
X020231Y004741D01*
X020265Y004642D02*
X020504Y004642D01*
X020485Y004544D02*
X020265Y004544D01*
X020241Y004445D02*
X020485Y004445D01*
X020508Y004347D02*
X020193Y004347D01*
X020093Y004248D02*
X020555Y004248D01*
X020654Y004150D02*
X019096Y004150D01*
X019195Y004248D02*
X019657Y004248D01*
X019557Y004347D02*
X019242Y004347D01*
X019265Y004445D02*
X019509Y004445D01*
X019485Y004544D02*
X019265Y004544D01*
X019230Y004642D02*
X019485Y004642D01*
X020167Y004839D02*
X020309Y004839D01*
X018654Y004150D02*
X017260Y004150D01*
X017265Y004248D02*
X017657Y004248D01*
X017557Y004347D02*
X017265Y004347D01*
X017265Y004445D02*
X017509Y004445D01*
X017485Y004544D02*
X017265Y004544D01*
X017265Y004642D02*
X017485Y004642D01*
X017492Y004741D02*
X017265Y004741D01*
X016485Y004741D02*
X015312Y004741D01*
X015219Y004642D02*
X016485Y004642D01*
X016485Y004544D02*
X015247Y004544D01*
X015247Y004445D02*
X016485Y004445D01*
X016485Y004347D02*
X015217Y004347D01*
X015159Y004248D02*
X016485Y004248D01*
X016490Y004150D02*
X015037Y004150D01*
X014677Y004150D02*
X013037Y004150D01*
X012087Y005036D02*
X003867Y005036D01*
X003867Y005923D02*
X006189Y005923D01*
X006321Y006218D02*
X006536Y006218D01*
X006466Y006317D02*
X006362Y006317D01*
X006373Y006415D02*
X006426Y006415D01*
X006413Y006514D02*
X006373Y006514D01*
X006342Y006612D02*
X006413Y006612D01*
X006445Y006711D02*
X006301Y006711D01*
X006203Y006809D02*
X006485Y006809D01*
X006582Y006908D02*
X006018Y006908D01*
X005768Y006908D02*
X005473Y006908D01*
X005572Y007006D02*
X006765Y007006D01*
X005670Y007105D02*
X010705Y007105D01*
X010705Y007203D02*
X010397Y007203D01*
X010496Y007302D02*
X010705Y007302D01*
X010705Y007400D02*
X010594Y007400D01*
X010693Y007499D02*
X010705Y007499D01*
X010466Y007696D02*
X003867Y007696D01*
X003867Y007794D02*
X010564Y007794D01*
X010663Y007893D02*
X003867Y007893D01*
X003867Y007991D02*
X010761Y007991D01*
X010860Y008090D02*
X003867Y008090D01*
X003867Y008188D02*
X010958Y008188D01*
X011057Y008287D02*
X003867Y008287D01*
X003867Y008385D02*
X011155Y008385D01*
X011254Y008484D02*
X003867Y008484D01*
X003867Y008582D02*
X011352Y008582D01*
X011451Y008681D02*
X003867Y008681D01*
X003867Y008779D02*
X011549Y008779D01*
X011648Y008878D02*
X003867Y008878D01*
X003867Y008976D02*
X011746Y008976D01*
X011845Y009075D02*
X003867Y009075D01*
X003867Y009173D02*
X011943Y009173D01*
X012042Y009272D02*
X004854Y009272D01*
X005088Y009370D02*
X012140Y009370D01*
X012239Y009469D02*
X005186Y009469D01*
X005285Y009567D02*
X012337Y009567D01*
X012436Y009666D02*
X005347Y009666D01*
X005388Y009764D02*
X012534Y009764D01*
X012633Y009863D02*
X005429Y009863D01*
X005449Y009961D02*
X012731Y009961D01*
X012830Y010060D02*
X005449Y010060D01*
X005449Y010158D02*
X012928Y010158D01*
X013027Y010257D02*
X005446Y010257D01*
X005405Y010355D02*
X013125Y010355D01*
X013224Y010454D02*
X005364Y010454D01*
X005323Y010552D02*
X013322Y010552D01*
X013421Y010651D02*
X005227Y010651D01*
X005128Y010749D02*
X013519Y010749D01*
X013618Y010848D02*
X004952Y010848D01*
X004266Y010848D02*
X003867Y010848D01*
X003867Y010946D02*
X013716Y010946D01*
X013815Y011045D02*
X003867Y011045D01*
X003867Y011143D02*
X013913Y011143D01*
X014012Y011242D02*
X003867Y011242D01*
X003867Y011340D02*
X014110Y011340D01*
X014209Y011439D02*
X003867Y011439D01*
X003867Y011537D02*
X014307Y011537D01*
X014406Y011636D02*
X003867Y011636D01*
X003867Y011734D02*
X014504Y011734D01*
X014603Y011833D02*
X003867Y011833D01*
X003867Y011931D02*
X014701Y011931D01*
X014777Y012030D02*
X003867Y012030D01*
X003867Y012128D02*
X014777Y012128D01*
X014782Y012227D02*
X003867Y012227D01*
X003867Y012325D02*
X014880Y012325D01*
X014979Y012424D02*
X003867Y012424D01*
X003867Y012522D02*
X004710Y012522D01*
X004636Y012553D02*
X004873Y012455D01*
X005129Y012455D01*
X005366Y012553D01*
X005547Y012734D01*
X005645Y012970D01*
X005645Y013226D01*
X005547Y013463D01*
X005366Y013644D01*
X005129Y013742D01*
X004873Y013742D01*
X004636Y013644D01*
X004455Y013463D01*
X004357Y013226D01*
X004357Y012970D01*
X004455Y012734D01*
X004636Y012553D01*
X004568Y012621D02*
X003867Y012621D01*
X003867Y012719D02*
X004470Y012719D01*
X004421Y012818D02*
X003867Y012818D01*
X003867Y012916D02*
X004380Y012916D01*
X004357Y013015D02*
X003867Y013015D01*
X003867Y013113D02*
X004357Y013113D01*
X004357Y013212D02*
X003867Y013212D01*
X003867Y013310D02*
X004392Y013310D01*
X004433Y013409D02*
X003867Y013409D01*
X003867Y013507D02*
X004500Y013507D01*
X004598Y013606D02*
X003867Y013606D01*
X003867Y013704D02*
X004782Y013704D01*
X005220Y013704D02*
X007537Y013704D01*
X007354Y013606D02*
X005404Y013606D01*
X005502Y013507D02*
X007255Y013507D01*
X007189Y013409D02*
X005569Y013409D01*
X005610Y013310D02*
X007148Y013310D01*
X007113Y013212D02*
X005645Y013212D01*
X005645Y013113D02*
X007113Y013113D01*
X007113Y013015D02*
X005645Y013015D01*
X005622Y012916D02*
X007136Y012916D01*
X007176Y012818D02*
X005581Y012818D01*
X005532Y012719D02*
X007226Y012719D01*
X007324Y012621D02*
X005434Y012621D01*
X005292Y012522D02*
X007466Y012522D01*
X008288Y012719D02*
X016163Y012719D01*
X016064Y012818D02*
X008337Y012818D01*
X008378Y012916D02*
X015965Y012916D01*
X015413Y011734D02*
X015352Y011734D01*
X015413Y011636D02*
X015096Y011636D01*
X014998Y011537D02*
X015452Y011537D01*
X015553Y011439D02*
X014899Y011439D01*
X013019Y014788D02*
X003867Y014788D01*
X003867Y014886D02*
X012936Y014886D01*
X012903Y014985D02*
X003867Y014985D01*
X003867Y015083D02*
X012904Y015083D01*
X012945Y015182D02*
X003867Y015182D01*
X003867Y015280D02*
X013042Y015280D01*
X013042Y015379D02*
X004928Y015379D01*
X004275Y015379D02*
X003867Y015379D01*
X003867Y015477D02*
X004089Y015477D01*
X003990Y015576D02*
X003867Y015576D01*
X003867Y015674D02*
X003892Y015674D01*
X003867Y020205D02*
X005630Y020205D01*
X006111Y020205D02*
X007630Y020205D01*
X007275Y020714D02*
X007275Y020714D01*
X010501Y020714D01*
X010563Y020714D01*
X010563Y020714D01*
X010564Y020714D01*
X010607Y020758D01*
X010794Y020943D01*
X012199Y020943D01*
X012199Y020942D01*
X012261Y020943D01*
X012323Y020943D01*
X012324Y020943D01*
X012367Y020987D01*
X012411Y021030D01*
X012411Y021031D01*
X012721Y021344D01*
X012790Y021315D01*
X012945Y021315D01*
X013088Y021374D01*
X013198Y021484D01*
X013257Y021627D01*
X013257Y021782D01*
X013198Y021926D01*
X013088Y022035D01*
X012945Y022095D01*
X012790Y022095D01*
X012646Y022035D01*
X012537Y021926D01*
X012477Y021782D01*
X012477Y021627D01*
X012507Y021555D01*
X012198Y021243D01*
X012012Y021243D01*
X012088Y021274D01*
X012198Y021384D01*
X012257Y021527D01*
X012257Y021682D01*
X012198Y021826D01*
X012088Y021935D01*
X011945Y021995D01*
X011790Y021995D01*
X011646Y021935D01*
X011537Y021826D01*
X011477Y021682D01*
X011477Y021527D01*
X011505Y021460D01*
X011457Y021413D01*
X011127Y021413D01*
X011198Y021484D01*
X011257Y021627D01*
X011257Y021782D01*
X011198Y021926D01*
X011088Y022035D01*
X010945Y022095D01*
X010790Y022095D01*
X010646Y022035D01*
X010537Y021926D01*
X010477Y021782D01*
X010477Y021627D01*
X010506Y021558D01*
X010312Y021365D01*
X009245Y021365D01*
X009263Y021384D01*
X009263Y022035D01*
X009199Y022099D01*
X008548Y022099D01*
X008483Y022035D01*
X008483Y021384D01*
X008502Y021365D01*
X008180Y021365D01*
X008204Y021389D01*
X008263Y021532D01*
X008263Y021687D01*
X008204Y021830D01*
X008094Y021940D01*
X007951Y021999D01*
X007796Y021999D01*
X007652Y021940D01*
X007543Y021830D01*
X007483Y021687D01*
X007483Y021532D01*
X007543Y021389D01*
X007566Y021365D01*
X007430Y021365D01*
X007234Y021561D01*
X007263Y021632D01*
X007263Y021787D01*
X007204Y021930D01*
X007094Y022040D01*
X006951Y022099D01*
X006796Y022099D01*
X006652Y022040D01*
X006543Y021930D01*
X006483Y021787D01*
X006483Y021632D01*
X006543Y021489D01*
X006601Y021430D01*
X006264Y021430D01*
X006234Y021461D01*
X006263Y021532D01*
X006263Y021687D01*
X006204Y021830D01*
X006094Y021940D01*
X005951Y021999D01*
X005796Y021999D01*
X005652Y021940D01*
X005543Y021830D01*
X005483Y021687D01*
X005483Y021532D01*
X005543Y021389D01*
X005652Y021279D01*
X005686Y021265D01*
X005527Y021265D01*
X005233Y021560D01*
X005263Y021632D01*
X005263Y021787D01*
X005204Y021930D01*
X005094Y022040D01*
X004951Y022099D01*
X004796Y022099D01*
X004652Y022040D01*
X004543Y021930D01*
X004483Y021787D01*
X004483Y021632D01*
X004543Y021489D01*
X004652Y021379D01*
X004796Y021319D01*
X004951Y021319D01*
X005021Y021348D01*
X005314Y021053D01*
X005358Y021009D01*
X005402Y020965D01*
X005464Y020965D01*
X005526Y020965D01*
X006899Y020965D01*
X007063Y020802D01*
X007063Y020802D01*
X007104Y020760D01*
X007150Y020714D01*
X007150Y020714D01*
X007150Y020714D01*
X007212Y020714D01*
X007275Y020714D01*
X007068Y020796D02*
X003867Y020796D01*
X003867Y020698D02*
X032538Y020698D01*
X032644Y020796D02*
X010646Y020796D01*
X010746Y020895D02*
X033289Y020895D01*
X033289Y020993D02*
X012373Y020993D01*
X012323Y020943D02*
X012323Y020943D01*
X012471Y021092D02*
X033289Y021092D01*
X033289Y021190D02*
X032900Y021190D01*
X033065Y021289D02*
X033289Y021289D01*
X033289Y021387D02*
X033164Y021387D01*
X033255Y021486D02*
X033289Y021486D01*
X033289Y020796D02*
X033222Y020796D01*
X032983Y020796D02*
X032883Y020796D01*
X032883Y020698D02*
X032983Y020698D01*
X032983Y020599D02*
X032883Y020599D01*
X032883Y020501D02*
X032983Y020501D01*
X032883Y020402D02*
X003867Y020402D01*
X003867Y020304D02*
X032435Y020304D01*
X032460Y020205D02*
X014094Y020205D01*
X014218Y020107D02*
X014642Y020107D01*
X014594Y020087D02*
X014459Y019952D01*
X014386Y019775D01*
X014386Y019585D01*
X014459Y019408D01*
X014594Y019273D01*
X014771Y019200D01*
X014962Y019200D01*
X015138Y019273D01*
X015273Y019408D01*
X015346Y019585D01*
X015346Y019775D01*
X015273Y019952D01*
X015138Y020087D01*
X014962Y020160D01*
X014771Y020160D01*
X014594Y020087D01*
X014515Y020008D02*
X014291Y020008D01*
X014332Y019910D02*
X014442Y019910D01*
X014401Y019811D02*
X014346Y019811D01*
X014346Y019713D02*
X014386Y019713D01*
X014386Y019614D02*
X014317Y019614D01*
X014276Y019516D02*
X014415Y019516D01*
X014456Y019417D02*
X014182Y019417D01*
X014015Y019319D02*
X014549Y019319D01*
X014722Y019220D02*
X014015Y019220D01*
X014015Y019122D02*
X028782Y019122D01*
X028883Y019220D02*
X015010Y019220D01*
X015184Y019319D02*
X028983Y019319D01*
X029083Y019417D02*
X015277Y019417D01*
X015318Y019516D02*
X029142Y019516D01*
X029145Y019614D02*
X015346Y019614D01*
X015346Y019713D02*
X029187Y019713D01*
X029313Y019811D02*
X015331Y019811D01*
X015291Y019910D02*
X032756Y019910D01*
X032883Y019910D02*
X032983Y019910D01*
X032983Y020008D02*
X032883Y020008D01*
X032883Y020107D02*
X032983Y020107D01*
X032983Y020205D02*
X032883Y020205D01*
X032883Y020304D02*
X032983Y020304D01*
X033272Y020008D02*
X033289Y020008D01*
X033289Y019910D02*
X033109Y019910D01*
X033289Y019811D02*
X029547Y019811D01*
X029673Y019713D02*
X033289Y019713D01*
X033289Y019614D02*
X029714Y019614D01*
X029718Y019516D02*
X033289Y019516D01*
X033289Y019417D02*
X029688Y019417D01*
X029609Y019319D02*
X033289Y019319D01*
X033289Y019220D02*
X029311Y019220D01*
X029211Y019122D02*
X033289Y019122D01*
X033289Y019023D02*
X029627Y019023D01*
X029690Y018925D02*
X033289Y018925D01*
X033289Y018826D02*
X029709Y018826D01*
X029694Y018728D02*
X033289Y018728D01*
X033289Y018629D02*
X029637Y018629D01*
X029205Y018629D02*
X029013Y018629D01*
X029013Y018531D02*
X033289Y018531D01*
X033289Y018432D02*
X029013Y018432D01*
X029013Y018334D02*
X033289Y018334D01*
X033289Y018235D02*
X029012Y018235D01*
X029012Y018137D02*
X033289Y018137D01*
X033289Y018038D02*
X033253Y018038D01*
X033003Y018038D02*
X032903Y018038D01*
X032903Y017940D02*
X033003Y017940D01*
X033003Y017841D02*
X032903Y017841D01*
X032903Y017743D02*
X033003Y017743D01*
X032903Y017644D02*
X029012Y017644D01*
X029012Y017546D02*
X032456Y017546D01*
X032483Y017447D02*
X029012Y017447D01*
X029011Y017349D02*
X032536Y017349D01*
X032622Y017250D02*
X029011Y017250D01*
X029011Y017152D02*
X032801Y017152D01*
X032903Y017152D02*
X033003Y017152D01*
X033003Y017250D02*
X032903Y017250D01*
X032903Y017349D02*
X033003Y017349D01*
X033003Y017447D02*
X032903Y017447D01*
X032903Y017546D02*
X033003Y017546D01*
X033105Y017152D02*
X033289Y017152D01*
X033284Y017250D02*
X033289Y017250D01*
X033289Y017053D02*
X029011Y017053D01*
X029011Y016955D02*
X033289Y016955D01*
X033289Y016856D02*
X029011Y016856D01*
X029011Y016758D02*
X033289Y016758D01*
X033289Y016659D02*
X029011Y016659D01*
X029011Y016561D02*
X033289Y016561D01*
X033289Y016462D02*
X029011Y016462D01*
X029010Y016364D02*
X033289Y016364D01*
X033289Y016265D02*
X029010Y016265D01*
X029010Y016167D02*
X033289Y016167D01*
X033289Y016068D02*
X029010Y016068D01*
X029010Y015970D02*
X033289Y015970D01*
X033289Y015871D02*
X029010Y015871D01*
X029010Y015773D02*
X033289Y015773D01*
X033289Y015674D02*
X029010Y015674D01*
X029010Y015576D02*
X033289Y015576D01*
X033289Y015477D02*
X029009Y015477D01*
X029009Y015379D02*
X033289Y015379D01*
X033289Y015280D02*
X029009Y015280D01*
X029009Y015182D02*
X033289Y015182D01*
X033289Y015083D02*
X029009Y015083D01*
X029009Y014985D02*
X033289Y014985D01*
X033289Y014886D02*
X029009Y014886D01*
X029009Y014788D02*
X033289Y014788D01*
X033289Y014689D02*
X028956Y014689D01*
X029009Y014741D02*
X029009Y014741D01*
X028858Y014591D02*
X033289Y014591D01*
X033289Y014492D02*
X028759Y014492D01*
X028661Y014394D02*
X033289Y014394D01*
X033289Y014295D02*
X028562Y014295D01*
X028464Y014197D02*
X033289Y014197D01*
X033289Y014098D02*
X028365Y014098D01*
X028267Y014000D02*
X033289Y014000D01*
X033289Y013901D02*
X028168Y013901D01*
X028070Y013803D02*
X033289Y013803D01*
X033289Y013704D02*
X032433Y013704D01*
X032530Y013664D02*
X032293Y013762D01*
X032037Y013762D01*
X031801Y013664D01*
X031620Y013483D01*
X031522Y013246D01*
X031522Y012990D01*
X031620Y012754D01*
X031801Y012573D01*
X032037Y012475D01*
X032293Y012475D01*
X032530Y012573D01*
X032711Y012754D01*
X032809Y012990D01*
X032809Y013246D01*
X032711Y013483D01*
X032530Y013664D01*
X032588Y013606D02*
X033289Y013606D01*
X033289Y013507D02*
X032687Y013507D01*
X032742Y013409D02*
X033289Y013409D01*
X033289Y013310D02*
X032783Y013310D01*
X032809Y013212D02*
X033289Y013212D01*
X033289Y013113D02*
X032809Y013113D01*
X032809Y013015D02*
X033289Y013015D01*
X033289Y012916D02*
X032778Y012916D01*
X032737Y012818D02*
X033289Y012818D01*
X033289Y012719D02*
X032676Y012719D01*
X032578Y012621D02*
X033289Y012621D01*
X033289Y012522D02*
X032408Y012522D01*
X031923Y012522D02*
X029652Y012522D01*
X029537Y012475D02*
X029774Y012573D01*
X029955Y012754D01*
X030053Y012990D01*
X030053Y013246D01*
X029955Y013483D01*
X029774Y013664D01*
X029537Y013762D01*
X029281Y013762D01*
X029045Y013664D01*
X028864Y013483D01*
X028766Y013246D01*
X028766Y012990D01*
X028864Y012754D01*
X029045Y012573D01*
X029281Y012475D01*
X029537Y012475D01*
X029822Y012621D02*
X031753Y012621D01*
X031654Y012719D02*
X029921Y012719D01*
X029982Y012818D02*
X031593Y012818D01*
X031552Y012916D02*
X030022Y012916D01*
X030053Y013015D02*
X031522Y013015D01*
X031522Y013113D02*
X030053Y013113D01*
X030053Y013212D02*
X031522Y013212D01*
X031548Y013310D02*
X030027Y013310D01*
X029986Y013409D02*
X031589Y013409D01*
X031644Y013507D02*
X029931Y013507D01*
X029832Y013606D02*
X031742Y013606D01*
X031897Y013704D02*
X029677Y013704D01*
X029142Y013704D02*
X027971Y013704D01*
X027873Y013606D02*
X028986Y013606D01*
X028888Y013507D02*
X027774Y013507D01*
X027676Y013409D02*
X028833Y013409D01*
X028792Y013310D02*
X027577Y013310D01*
X027479Y013212D02*
X028766Y013212D01*
X028766Y013113D02*
X027380Y013113D01*
X027281Y013015D02*
X028766Y013015D01*
X028796Y012916D02*
X027235Y012916D01*
X027235Y012818D02*
X028837Y012818D01*
X028898Y012719D02*
X027235Y012719D01*
X027235Y012621D02*
X028997Y012621D01*
X029167Y012522D02*
X027235Y012522D01*
X027235Y012424D02*
X033289Y012424D01*
X033289Y012325D02*
X027235Y012325D01*
X027235Y012227D02*
X033289Y012227D01*
X033289Y012128D02*
X027235Y012128D01*
X027235Y012030D02*
X033289Y012030D01*
X033289Y011931D02*
X027325Y011931D01*
X027345Y011833D02*
X033289Y011833D01*
X033289Y011734D02*
X027345Y011734D01*
X027345Y011636D02*
X033289Y011636D01*
X033289Y011537D02*
X027346Y011537D01*
X027273Y011439D02*
X033289Y011439D01*
X033289Y011340D02*
X027180Y011340D01*
X026973Y011242D02*
X033289Y011242D01*
X026965Y011242D02*
X026789Y011242D01*
X025485Y012424D02*
X020060Y012424D01*
X020060Y012522D02*
X025484Y012522D01*
X025484Y012621D02*
X020019Y012621D01*
X019911Y012719D02*
X025484Y012719D01*
X026155Y014985D02*
X020735Y014985D01*
X020795Y015083D02*
X026253Y015083D01*
X026551Y015970D02*
X023535Y015970D01*
X023711Y016167D02*
X023811Y016167D01*
X023811Y016265D02*
X023711Y016265D01*
X023711Y016364D02*
X023811Y016364D01*
X023811Y016462D02*
X023711Y016462D01*
X023711Y016758D02*
X023811Y016758D01*
X023811Y016856D02*
X023711Y016856D01*
X023711Y016955D02*
X023811Y016955D01*
X023554Y016955D02*
X014011Y016955D01*
X014011Y016856D02*
X021512Y016856D01*
X021413Y016758D02*
X014011Y016758D01*
X014011Y016659D02*
X021351Y016659D01*
X021351Y016561D02*
X014011Y016561D01*
X014010Y016462D02*
X021351Y016462D01*
X021351Y016364D02*
X014010Y016364D01*
X014010Y016265D02*
X021441Y016265D01*
X021283Y016167D02*
X014010Y016167D01*
X014010Y016068D02*
X021185Y016068D01*
X021086Y015970D02*
X014094Y015970D01*
X014192Y015871D02*
X020988Y015871D01*
X020889Y015773D02*
X014290Y015773D01*
X014387Y015674D02*
X020791Y015674D01*
X020692Y015576D02*
X014485Y015576D01*
X014583Y015477D02*
X020594Y015477D01*
X020849Y015280D02*
X021426Y015280D01*
X021378Y015379D02*
X020948Y015379D01*
X021046Y015477D02*
X021351Y015477D01*
X021351Y015576D02*
X021145Y015576D01*
X021243Y015674D02*
X021379Y015674D01*
X021342Y015773D02*
X021428Y015773D01*
X021440Y015871D02*
X021527Y015871D01*
X021995Y015871D02*
X022527Y015871D01*
X022428Y015773D02*
X022093Y015773D01*
X022143Y015674D02*
X022351Y015674D01*
X022351Y015576D02*
X022171Y015576D01*
X022171Y015477D02*
X022351Y015477D01*
X022351Y015379D02*
X022144Y015379D01*
X022096Y015280D02*
X022426Y015280D01*
X022525Y015182D02*
X021997Y015182D01*
X021525Y015182D02*
X020812Y015182D01*
X022081Y016265D02*
X022441Y016265D01*
X022351Y016364D02*
X022171Y016364D01*
X022171Y016462D02*
X022351Y016462D01*
X022351Y016561D02*
X022171Y016561D01*
X022171Y016659D02*
X022351Y016659D01*
X022413Y016758D02*
X022108Y016758D01*
X022010Y016856D02*
X022512Y016856D01*
X023010Y016856D02*
X023455Y016856D01*
X023357Y016758D02*
X023108Y016758D01*
X023171Y016659D02*
X023311Y016659D01*
X024137Y016265D02*
X026713Y016265D01*
X029012Y017743D02*
X032460Y017743D01*
X032493Y017841D02*
X029012Y017841D01*
X029012Y017940D02*
X032553Y017940D01*
X032653Y018038D02*
X029012Y018038D01*
X029110Y019023D02*
X029215Y019023D01*
X031821Y021486D02*
X015257Y021486D01*
X015257Y021584D02*
X031780Y021584D01*
X031739Y021683D02*
X015257Y021683D01*
X015257Y021781D02*
X031698Y021781D01*
X031697Y021880D02*
X015257Y021880D01*
X015257Y021978D02*
X031697Y021978D01*
X031697Y022077D02*
X015211Y022077D01*
X015193Y022095D02*
X015257Y022030D01*
X015257Y021379D01*
X015193Y021315D01*
X014542Y021315D01*
X014477Y021379D01*
X014477Y022030D01*
X014542Y022095D01*
X015193Y022095D01*
X014524Y022077D02*
X012989Y022077D01*
X013146Y021978D02*
X013749Y021978D01*
X013790Y021995D02*
X013646Y021935D01*
X013537Y021826D01*
X013477Y021682D01*
X013477Y021527D01*
X013537Y021384D01*
X013646Y021274D01*
X013790Y021215D01*
X013945Y021215D01*
X014088Y021274D01*
X014198Y021384D01*
X014257Y021527D01*
X014257Y021682D01*
X014198Y021826D01*
X014088Y021935D01*
X013945Y021995D01*
X013790Y021995D01*
X013985Y021978D02*
X014477Y021978D01*
X014477Y021880D02*
X014144Y021880D01*
X014216Y021781D02*
X014477Y021781D01*
X014477Y021683D02*
X014257Y021683D01*
X014257Y021584D02*
X014477Y021584D01*
X014477Y021486D02*
X014240Y021486D01*
X014199Y021387D02*
X014477Y021387D01*
X014103Y021289D02*
X032011Y021289D01*
X031912Y021387D02*
X015257Y021387D01*
X015091Y020107D02*
X032510Y020107D01*
X032594Y020008D02*
X015217Y020008D01*
X013632Y021289D02*
X012666Y021289D01*
X012568Y021190D02*
X032176Y021190D01*
X031721Y022175D02*
X003907Y022175D01*
X003875Y022077D02*
X004740Y022077D01*
X004590Y021978D02*
X003868Y021978D01*
X003867Y021880D02*
X004522Y021880D01*
X004483Y021781D02*
X003867Y021781D01*
X003867Y021683D02*
X004483Y021683D01*
X004503Y021584D02*
X003867Y021584D01*
X003867Y021486D02*
X004546Y021486D01*
X004644Y021387D02*
X003867Y021387D01*
X003867Y021289D02*
X005080Y021289D01*
X005178Y021190D02*
X003867Y021190D01*
X003867Y021092D02*
X005276Y021092D01*
X005314Y021053D02*
X005314Y021053D01*
X005374Y020993D02*
X003867Y020993D01*
X003867Y020895D02*
X006970Y020895D01*
X007309Y021486D02*
X007502Y021486D01*
X007483Y021584D02*
X007243Y021584D01*
X007263Y021683D02*
X007483Y021683D01*
X007522Y021781D02*
X007263Y021781D01*
X007225Y021880D02*
X007592Y021880D01*
X007744Y021978D02*
X007156Y021978D01*
X007006Y022077D02*
X008525Y022077D01*
X008483Y021978D02*
X008002Y021978D01*
X008155Y021880D02*
X008483Y021880D01*
X008483Y021781D02*
X008224Y021781D01*
X008263Y021683D02*
X008483Y021683D01*
X008483Y021584D02*
X008263Y021584D01*
X008244Y021486D02*
X008483Y021486D01*
X008483Y021387D02*
X008202Y021387D01*
X007544Y021387D02*
X007408Y021387D01*
X006740Y022077D02*
X005006Y022077D01*
X005156Y021978D02*
X005744Y021978D01*
X005592Y021880D02*
X005225Y021880D01*
X005263Y021781D02*
X005522Y021781D01*
X005483Y021683D02*
X005263Y021683D01*
X005243Y021584D02*
X005483Y021584D01*
X005502Y021486D02*
X005307Y021486D01*
X005405Y021387D02*
X005544Y021387D01*
X005503Y021289D02*
X005643Y021289D01*
X005526Y020965D02*
X005526Y020965D01*
X005402Y020965D02*
X005402Y020965D01*
X005402Y020965D01*
X006244Y021486D02*
X006546Y021486D01*
X006503Y021584D02*
X006263Y021584D01*
X006263Y021683D02*
X006483Y021683D01*
X006483Y021781D02*
X006224Y021781D01*
X006155Y021880D02*
X006522Y021880D01*
X006590Y021978D02*
X006002Y021978D01*
X004420Y022668D02*
X032074Y022668D01*
X031968Y022569D02*
X004200Y022569D01*
X004073Y022471D02*
X031870Y022471D01*
X031803Y022372D02*
X004001Y022372D01*
X003939Y022274D02*
X031762Y022274D01*
X023280Y015773D02*
X023093Y015773D01*
X023171Y015674D02*
X023351Y015674D01*
X023351Y015576D02*
X023171Y015576D01*
X023171Y015477D02*
X023351Y015477D01*
X023351Y015379D02*
X023171Y015379D01*
X023096Y015280D02*
X023426Y015280D01*
X023525Y015182D02*
X022997Y015182D01*
X022995Y015871D02*
X023181Y015871D01*
X022536Y007097D02*
X022536Y007097D01*
X022627Y007006D02*
X022753Y007006D01*
X022451Y006758D02*
X022412Y006797D01*
X022199Y006797D01*
X022286Y006711D01*
X022327Y006612D02*
X022399Y006612D01*
X022399Y006514D02*
X022359Y006514D01*
X022359Y006415D02*
X022411Y006415D01*
X022452Y006317D02*
X022348Y006317D01*
X022307Y006218D02*
X022521Y006218D01*
X022637Y006120D02*
X022239Y006120D01*
X023027Y004839D02*
X031874Y004839D01*
X031788Y004741D02*
X023166Y004741D01*
X023230Y004642D02*
X031747Y004642D01*
X031707Y004544D02*
X023265Y004544D01*
X023265Y004445D02*
X031669Y004445D01*
X031669Y004347D02*
X023242Y004347D01*
X023195Y004248D02*
X031669Y004248D01*
X031669Y004150D02*
X023096Y004150D01*
X024833Y006612D02*
X025066Y006612D01*
X024968Y006711D02*
X024900Y006711D01*
X018500Y004642D02*
X018265Y004642D01*
X018265Y004544D02*
X018485Y004544D01*
X018485Y004445D02*
X018241Y004445D01*
X018193Y004347D02*
X018508Y004347D01*
X018555Y004248D02*
X018093Y004248D01*
X018231Y004741D02*
X018402Y004741D01*
X014971Y005529D02*
X012548Y005529D01*
X011764Y005430D02*
X014873Y005430D01*
X014727Y007006D02*
X012983Y007006D01*
X011709Y005375D02*
X011709Y005375D01*
X011709Y005375D01*
X011585Y005375D02*
X011585Y005375D01*
X010483Y004839D02*
X009054Y004839D01*
X009186Y004741D02*
X010467Y004741D01*
X010467Y004642D02*
X009247Y004642D01*
X009280Y004544D02*
X010467Y004544D01*
X010467Y004445D02*
X009280Y004445D01*
X009255Y004347D02*
X010467Y004347D01*
X010467Y004248D02*
X009205Y004248D01*
X009100Y004150D02*
X010489Y004150D01*
X010269Y007499D02*
X003867Y007499D01*
X003867Y007597D02*
X010367Y007597D01*
X005541Y007400D02*
X003867Y007400D01*
X003867Y007302D02*
X005443Y007302D01*
X005344Y007203D02*
X003867Y007203D01*
X003867Y007105D02*
X005246Y007105D01*
X005147Y007006D02*
X005022Y007006D01*
X004765Y007006D02*
X003867Y007006D01*
X003867Y006908D02*
X004582Y006908D01*
X004485Y006809D02*
X003867Y006809D01*
X003867Y006711D02*
X004445Y006711D01*
X004413Y006612D02*
X003867Y006612D01*
X003867Y006514D02*
X004413Y006514D01*
X004426Y006415D02*
X003867Y006415D01*
X003867Y006317D02*
X004466Y006317D01*
X004536Y006218D02*
X003867Y006218D01*
X003867Y006120D02*
X004654Y006120D01*
X005133Y006120D02*
X005535Y006120D01*
X005466Y006218D02*
X005250Y006218D01*
X005320Y006317D02*
X005425Y006317D01*
X005413Y006415D02*
X005361Y006415D01*
X005373Y006514D02*
X005413Y006514D01*
X005445Y006612D02*
X005373Y006612D01*
X005342Y006711D02*
X005486Y006711D01*
X005584Y006809D02*
X005375Y006809D01*
X005650Y006021D02*
X003867Y006021D01*
X003990Y003854D02*
X031779Y003854D01*
X031852Y003756D02*
X004062Y003756D01*
X004179Y003657D02*
X031950Y003657D01*
X032070Y003559D02*
X004374Y003559D01*
X004364Y009272D02*
X003867Y009272D01*
X003867Y009370D02*
X004130Y009370D01*
X004032Y009469D02*
X003867Y009469D01*
X003867Y009567D02*
X003933Y009567D01*
X003871Y009666D02*
X003867Y009666D01*
X003867Y010552D02*
X003895Y010552D01*
X003867Y010651D02*
X003991Y010651D01*
X004089Y010749D02*
X003867Y010749D01*
X012635Y019220D02*
X012722Y019220D01*
X012733Y019122D02*
X013115Y019122D01*
X013016Y019220D02*
X013010Y019220D01*
X012831Y019023D02*
X013214Y019023D01*
X013313Y018925D02*
X012929Y018925D01*
X013027Y018826D02*
X013412Y018826D01*
X013511Y018728D02*
X013126Y018728D01*
X013224Y018629D02*
X013545Y018629D01*
X013545Y018531D02*
X013322Y018531D01*
X013420Y018432D02*
X013544Y018432D01*
X013544Y018334D02*
X013518Y018334D01*
X012549Y019319D02*
X012537Y019319D01*
X012456Y019417D02*
X012439Y019417D01*
X012415Y019516D02*
X012341Y019516D01*
X012317Y019614D02*
X012386Y019614D01*
X012386Y019713D02*
X012346Y019713D01*
X012346Y019811D02*
X012401Y019811D01*
X012442Y019910D02*
X012332Y019910D01*
X012291Y020008D02*
X012515Y020008D01*
X012642Y020107D02*
X012218Y020107D01*
X012244Y021289D02*
X012103Y021289D01*
X012199Y021387D02*
X012341Y021387D01*
X012439Y021486D02*
X012240Y021486D01*
X012257Y021584D02*
X012495Y021584D01*
X012477Y021683D02*
X012257Y021683D01*
X012216Y021781D02*
X012477Y021781D01*
X012518Y021880D02*
X012144Y021880D01*
X011985Y021978D02*
X012589Y021978D01*
X012746Y022077D02*
X010989Y022077D01*
X011146Y021978D02*
X011749Y021978D01*
X011591Y021880D02*
X011217Y021880D01*
X011257Y021781D02*
X011518Y021781D01*
X011477Y021683D02*
X011257Y021683D01*
X011239Y021584D02*
X011477Y021584D01*
X011495Y021486D02*
X011199Y021486D01*
X010495Y021584D02*
X009263Y021584D01*
X009263Y021486D02*
X010433Y021486D01*
X010333Y021387D02*
X009263Y021387D01*
X009263Y021683D02*
X010477Y021683D01*
X010477Y021781D02*
X009263Y021781D01*
X009263Y021880D02*
X010518Y021880D01*
X010589Y021978D02*
X009263Y021978D01*
X009222Y022077D02*
X010746Y022077D01*
X013101Y021387D02*
X013535Y021387D01*
X013495Y021486D02*
X013199Y021486D01*
X013239Y021584D02*
X013477Y021584D01*
X013477Y021683D02*
X013257Y021683D01*
X013257Y021781D02*
X013518Y021781D01*
X013591Y021880D02*
X013217Y021880D01*
X032896Y005036D02*
X033289Y005036D01*
X033289Y004938D02*
X033047Y004938D01*
X033146Y004839D02*
X033289Y004839D01*
X033289Y004741D02*
X033231Y004741D01*
X033272Y004642D02*
X033289Y004642D01*
D17*
X029122Y005915D03*
X029122Y007374D03*
X029156Y008421D03*
X029145Y009745D03*
X026909Y011696D03*
X026539Y011393D03*
X026171Y010987D03*
X026806Y009498D03*
X025215Y009099D03*
X024262Y008452D03*
X024650Y007939D03*
X024535Y007370D03*
X024633Y006820D03*
X026437Y006520D03*
X027052Y007396D03*
X026905Y004540D03*
X021520Y009466D03*
X023335Y010006D03*
X022882Y013050D03*
X020791Y014468D03*
X020523Y015180D03*
X020956Y016845D03*
X017419Y013809D03*
X018059Y013339D03*
X019771Y012465D03*
X019771Y011998D03*
X018893Y011190D03*
X018890Y009365D03*
X018580Y009009D03*
X018261Y009365D03*
X017947Y009011D03*
X017631Y009365D03*
X017016Y008924D03*
X014996Y009332D03*
X016976Y011374D03*
X015702Y011689D03*
X015255Y012006D03*
X015692Y012319D03*
X016374Y014648D03*
X015491Y016704D03*
X013192Y015023D03*
X012753Y014533D03*
X011842Y016117D03*
X013016Y012160D03*
X011917Y011631D03*
X009480Y010999D03*
X019208Y009011D03*
X020150Y013266D03*
X026850Y015468D03*
X026839Y016005D03*
X029421Y018821D03*
X029430Y019547D03*
X029879Y015650D03*
X032268Y015600D03*
D18*
X028859Y014804D02*
X027085Y013031D01*
X027085Y011961D01*
X027195Y011850D01*
X027195Y011574D01*
X027023Y011393D01*
X026539Y011393D01*
X026909Y011696D02*
X026909Y013093D01*
X028687Y014871D01*
X028691Y018317D01*
X028692Y018491D01*
X028687Y018818D01*
X029430Y019547D01*
X029421Y018821D02*
X028928Y018821D01*
X028863Y018757D01*
X028863Y018451D01*
X028859Y014804D01*
X027145Y015356D02*
X026956Y015165D01*
X026784Y015164D01*
X025269Y013648D01*
X018990Y013648D01*
X018899Y013557D01*
X018894Y012633D01*
X018893Y011190D01*
X018175Y011646D02*
X018175Y009893D01*
X018582Y009486D01*
X018580Y009009D01*
X018576Y008960D01*
X018159Y008538D01*
X018159Y007783D01*
X018711Y007228D01*
X019338Y007226D01*
X019618Y006949D01*
X020471Y006947D01*
X020879Y006539D01*
X020608Y007050D02*
X020551Y007110D01*
X019704Y007111D01*
X019418Y007397D01*
X018786Y007395D01*
X018328Y007856D01*
X018328Y008468D01*
X018564Y008705D01*
X018675Y008705D01*
X018890Y008917D01*
X018890Y009365D01*
X019208Y009011D02*
X018742Y008550D01*
X018644Y008550D01*
X018494Y008397D01*
X018493Y007952D01*
X018888Y007559D01*
X019504Y007559D01*
X019796Y007286D01*
X020629Y007284D01*
X020707Y007209D01*
X021354Y007210D01*
X021613Y006947D01*
X022474Y006947D01*
X022879Y006539D01*
X021879Y006439D02*
X021265Y007050D01*
X020608Y007050D01*
X019879Y006439D02*
X019261Y007054D01*
X018619Y007053D01*
X017982Y007689D01*
X017981Y008616D01*
X018261Y008897D01*
X018261Y009452D01*
X017989Y009723D01*
X017989Y011593D01*
X013690Y015908D01*
X013695Y018756D01*
X012866Y019582D01*
X012239Y019177D02*
X013354Y018060D01*
X013349Y015741D01*
X017472Y011623D01*
X017626Y011471D01*
X017631Y009169D01*
X017631Y009365D01*
X017631Y009169D02*
X017631Y006582D01*
X017879Y006439D01*
X017463Y006835D02*
X017463Y009092D01*
X017330Y009227D01*
X017331Y009506D01*
X017462Y009635D01*
X017462Y011388D01*
X017161Y011689D01*
X015702Y011689D01*
X015255Y012006D02*
X010855Y007614D01*
X010855Y006539D01*
X011448Y006034D02*
X009402Y006031D01*
X008893Y006540D01*
X009159Y006026D02*
X008313Y006026D01*
X007893Y006440D01*
X008144Y005924D02*
X007507Y005924D01*
X006893Y006540D01*
X007172Y006017D02*
X006307Y006017D01*
X005893Y006440D01*
X005671Y007317D02*
X010299Y007317D01*
X014927Y011945D01*
X014927Y012160D01*
X015112Y012345D01*
X015381Y012345D01*
X015425Y012319D01*
X015692Y012319D01*
X017419Y013809D02*
X025191Y013809D01*
X026850Y015468D01*
X027145Y015356D02*
X027147Y015698D01*
X026839Y016005D01*
X020239Y011740D02*
X019982Y011997D01*
X019771Y011998D01*
X019771Y012465D02*
X024298Y007938D01*
X024650Y007939D01*
X023882Y008093D02*
X023882Y007565D01*
X024633Y006820D01*
X023882Y008093D02*
X020239Y011740D01*
X018175Y011646D02*
X013860Y015993D01*
X013866Y019780D01*
X012239Y019177D02*
X011374Y019173D01*
X010866Y019680D01*
X011866Y019780D02*
X013522Y018117D01*
X013522Y015820D01*
X017811Y011527D01*
X017811Y009650D01*
X017948Y009512D01*
X017947Y009011D01*
X017808Y008874D01*
X017808Y007609D01*
X018879Y006539D01*
X017749Y005421D02*
X017870Y005300D01*
X018534Y005300D01*
X018780Y005055D01*
X020307Y005055D01*
X020875Y004480D01*
X019875Y004580D02*
X019562Y004890D01*
X018708Y004890D01*
X018460Y005139D01*
X017793Y005139D01*
X017669Y005262D01*
X015151Y005255D01*
X014997Y005104D01*
X014122Y005104D01*
X014013Y004996D01*
X013346Y004996D01*
X012857Y004497D01*
X013038Y004918D02*
X012182Y004918D01*
X011857Y004597D01*
X011647Y005525D02*
X009163Y005528D01*
X009010Y005682D01*
X008133Y005682D01*
X008062Y005752D01*
X007436Y005752D01*
X007172Y006017D01*
X008144Y005924D02*
X008215Y005853D01*
X009082Y005853D01*
X009242Y005693D01*
X011580Y005693D01*
X011650Y005763D01*
X012328Y005763D01*
X012578Y006013D01*
X013431Y006013D01*
X013855Y006439D01*
X013606Y005946D02*
X013506Y005845D01*
X012652Y005845D01*
X012392Y005585D01*
X011707Y005585D01*
X011647Y005525D01*
X011513Y005864D02*
X009319Y005867D01*
X009159Y006026D01*
X011448Y006034D02*
X011855Y006439D01*
X011586Y005937D02*
X011513Y005864D01*
X011586Y005937D02*
X012253Y005937D01*
X012855Y006539D01*
X013606Y005946D02*
X014258Y005946D01*
X014855Y006539D01*
X015082Y005427D02*
X017749Y005421D01*
X017587Y005097D02*
X017706Y004979D01*
X018375Y004979D01*
X018875Y004480D01*
X017875Y004568D02*
X017508Y004937D01*
X015298Y004938D01*
X014857Y004497D01*
X015069Y004943D02*
X015225Y005098D01*
X017587Y005097D01*
X017167Y006539D02*
X016879Y006539D01*
X017167Y006539D02*
X017463Y006835D01*
X018261Y008897D02*
X018261Y009365D01*
X015082Y005427D02*
X014924Y005269D01*
X014054Y005269D01*
X013945Y005160D01*
X013280Y005160D01*
X013038Y004918D01*
X013857Y004597D02*
X014199Y004943D01*
X015069Y004943D01*
X005671Y007317D02*
X004893Y006540D01*
X013192Y015023D02*
X013196Y017985D01*
X012173Y019008D01*
X008643Y019013D01*
X007871Y019785D01*
X007213Y020864D02*
X010502Y020864D01*
X010733Y021093D01*
X012261Y021093D01*
X012867Y021705D01*
X011867Y021605D02*
X011518Y021263D01*
X010662Y021263D01*
X010441Y021041D01*
X007293Y021041D01*
X007053Y021280D01*
X006202Y021280D01*
X005873Y021609D01*
X005464Y021115D02*
X006961Y021115D01*
X007213Y020864D01*
X007368Y021215D02*
X010373Y021215D01*
X010867Y021705D01*
X007368Y021215D02*
X006873Y021709D01*
X005464Y021115D02*
X004873Y021709D01*
D19*
X025701Y009602D03*
X026474Y018210D03*
D20*
X028031Y016649D01*
X028031Y015266D01*
X025693Y012928D01*
X025701Y009602D01*
D21*
X017875Y004580D02*
X017875Y004568D01*
X012866Y019582D02*
X012866Y019680D01*
M02*
