G75*
%MOIN*%
%OFA0B0*%
%FSLAX24Y24*%
%IPPOS*%
%LPD*%
%AMOC8*
5,1,8,0,0,1.08239X$1,22.5*
%
%ADD10C,0.0000*%
%ADD11C,0.0240*%
%ADD12C,0.0100*%
%ADD13C,0.0080*%
%ADD14C,0.0060*%
%ADD15C,0.0090*%
%ADD16C,0.0040*%
%ADD17R,0.0200X0.0020*%
%ADD18R,0.0500X0.0020*%
%ADD19R,0.0680X0.0020*%
%ADD20R,0.0900X0.0020*%
%ADD21R,0.0800X0.0020*%
%ADD22R,0.1720X0.0020*%
%ADD23R,0.0940X0.0020*%
%ADD24R,0.1220X0.0020*%
%ADD25R,0.2000X0.0020*%
%ADD26R,0.0920X0.0020*%
%ADD27R,0.0960X0.0020*%
%ADD28R,0.1380X0.0020*%
%ADD29R,0.1000X0.0020*%
%ADD30R,0.1700X0.0020*%
%ADD31R,0.1460X0.0020*%
%ADD32R,0.1100X0.0020*%
%ADD33R,0.1520X0.0020*%
%ADD34R,0.1180X0.0020*%
%ADD35R,0.1660X0.0020*%
%ADD36R,0.1580X0.0020*%
%ADD37R,0.1240X0.0020*%
%ADD38R,0.1620X0.0020*%
%ADD39R,0.1320X0.0020*%
%ADD40R,0.1640X0.0020*%
%ADD41R,0.1440X0.0020*%
%ADD42R,0.1740X0.0020*%
%ADD43R,0.1500X0.0020*%
%ADD44R,0.1780X0.0020*%
%ADD45R,0.1560X0.0020*%
%ADD46R,0.1800X0.0020*%
%ADD47R,0.1600X0.0020*%
%ADD48R,0.1820X0.0020*%
%ADD49R,0.1540X0.0020*%
%ADD50R,0.1860X0.0020*%
%ADD51R,0.1680X0.0020*%
%ADD52R,0.1880X0.0020*%
%ADD53R,0.1900X0.0020*%
%ADD54R,0.1760X0.0020*%
%ADD55R,0.1920X0.0020*%
%ADD56R,0.1940X0.0020*%
%ADD57R,0.1840X0.0020*%
%ADD58R,0.1960X0.0020*%
%ADD59R,0.1340X0.0020*%
%ADD60R,0.1980X0.0020*%
%ADD61R,0.1420X0.0020*%
%ADD62R,0.2020X0.0020*%
%ADD63R,0.1400X0.0020*%
%ADD64R,0.2040X0.0020*%
%ADD65R,0.2060X0.0020*%
%ADD66R,0.2080X0.0020*%
%ADD67R,0.2100X0.0020*%
%ADD68R,0.1360X0.0020*%
%ADD69R,0.2120X0.0020*%
%ADD70R,0.2160X0.0020*%
%ADD71R,0.1300X0.0020*%
%ADD72R,0.2200X0.0020*%
%ADD73R,0.1280X0.0020*%
%ADD74R,0.2140X0.0020*%
%ADD75R,0.2240X0.0020*%
%ADD76R,0.1260X0.0020*%
%ADD77R,0.2280X0.0020*%
%ADD78R,0.2320X0.0020*%
%ADD79R,0.1200X0.0020*%
%ADD80R,0.2180X0.0020*%
%ADD81R,0.2340X0.0020*%
%ADD82R,0.1160X0.0020*%
%ADD83R,0.0860X0.0020*%
%ADD84R,0.2360X0.0020*%
%ADD85R,0.1140X0.0020*%
%ADD86R,0.2380X0.0020*%
%ADD87R,0.2220X0.0020*%
%ADD88R,0.2400X0.0020*%
%ADD89R,0.2420X0.0020*%
%ADD90R,0.1120X0.0020*%
%ADD91R,0.1080X0.0020*%
%ADD92R,0.1040X0.0020*%
%ADD93R,0.1020X0.0020*%
%ADD94R,0.0880X0.0020*%
%ADD95R,0.0980X0.0020*%
%ADD96R,0.1060X0.0020*%
%ADD97R,0.2300X0.0020*%
%ADD98R,0.2260X0.0020*%
%ADD99R,0.1480X0.0020*%
%ADD100R,0.0720X0.0020*%
%ADD101R,0.0580X0.0020*%
%ADD102R,0.0360X0.0020*%
%ADD103C,0.0070*%
%ADD104C,0.0059*%
%ADD105C,0.0110*%
%ADD106R,0.0079X0.0079*%
%ADD107C,0.0050*%
%ADD108C,0.0164*%
D10*
X003617Y004247D02*
X003617Y021964D01*
X003619Y022026D01*
X003625Y022087D01*
X003634Y022148D01*
X003648Y022209D01*
X003665Y022268D01*
X003686Y022326D01*
X003711Y022383D01*
X003739Y022438D01*
X003770Y022491D01*
X003805Y022542D01*
X003843Y022591D01*
X003884Y022638D01*
X003927Y022681D01*
X003974Y022722D01*
X004023Y022760D01*
X004074Y022795D01*
X004127Y022826D01*
X004182Y022854D01*
X004239Y022879D01*
X004297Y022900D01*
X004356Y022917D01*
X004417Y022931D01*
X004478Y022940D01*
X004539Y022946D01*
X004601Y022948D01*
X032555Y022948D01*
X032617Y022946D01*
X032678Y022940D01*
X032739Y022931D01*
X032800Y022917D01*
X032859Y022900D01*
X032917Y022879D01*
X032974Y022854D01*
X033029Y022826D01*
X033082Y022795D01*
X033133Y022760D01*
X033182Y022722D01*
X033229Y022681D01*
X033272Y022638D01*
X033313Y022591D01*
X033351Y022542D01*
X033386Y022491D01*
X033417Y022438D01*
X033445Y022383D01*
X033470Y022326D01*
X033491Y022268D01*
X033508Y022209D01*
X033522Y022148D01*
X033531Y022087D01*
X033537Y022026D01*
X033539Y021964D01*
X033539Y004247D01*
X033537Y004185D01*
X033531Y004124D01*
X033522Y004063D01*
X033508Y004002D01*
X033491Y003943D01*
X033470Y003885D01*
X033445Y003828D01*
X033417Y003773D01*
X033386Y003720D01*
X033351Y003669D01*
X033313Y003620D01*
X033272Y003573D01*
X033229Y003530D01*
X033182Y003489D01*
X033133Y003451D01*
X033082Y003416D01*
X033029Y003385D01*
X032974Y003357D01*
X032917Y003332D01*
X032859Y003311D01*
X032800Y003294D01*
X032739Y003280D01*
X032678Y003271D01*
X032617Y003265D01*
X032555Y003263D01*
X004601Y003263D01*
X004539Y003265D01*
X004478Y003271D01*
X004417Y003280D01*
X004356Y003294D01*
X004297Y003311D01*
X004239Y003332D01*
X004182Y003357D01*
X004127Y003385D01*
X004074Y003416D01*
X004023Y003451D01*
X003974Y003489D01*
X003927Y003530D01*
X003884Y003573D01*
X003843Y003620D01*
X003805Y003669D01*
X003770Y003720D01*
X003739Y003773D01*
X003711Y003828D01*
X003686Y003885D01*
X003665Y003943D01*
X003648Y004002D01*
X003634Y004063D01*
X003625Y004124D01*
X003619Y004185D01*
X003617Y004247D01*
X004018Y010080D02*
X004020Y010128D01*
X004026Y010176D01*
X004036Y010223D01*
X004049Y010269D01*
X004067Y010314D01*
X004087Y010358D01*
X004112Y010400D01*
X004140Y010439D01*
X004170Y010476D01*
X004204Y010510D01*
X004241Y010542D01*
X004279Y010571D01*
X004320Y010596D01*
X004363Y010618D01*
X004408Y010636D01*
X004454Y010650D01*
X004501Y010661D01*
X004549Y010668D01*
X004597Y010671D01*
X004645Y010670D01*
X004693Y010665D01*
X004741Y010656D01*
X004787Y010644D01*
X004832Y010627D01*
X004876Y010607D01*
X004918Y010584D01*
X004958Y010557D01*
X004996Y010527D01*
X005031Y010494D01*
X005063Y010458D01*
X005093Y010420D01*
X005119Y010379D01*
X005141Y010336D01*
X005161Y010292D01*
X005176Y010247D01*
X005188Y010200D01*
X005196Y010152D01*
X005200Y010104D01*
X005200Y010056D01*
X005196Y010008D01*
X005188Y009960D01*
X005176Y009913D01*
X005161Y009868D01*
X005141Y009824D01*
X005119Y009781D01*
X005093Y009740D01*
X005063Y009702D01*
X005031Y009666D01*
X004996Y009633D01*
X004958Y009603D01*
X004918Y009576D01*
X004876Y009553D01*
X004832Y009533D01*
X004787Y009516D01*
X004741Y009504D01*
X004693Y009495D01*
X004645Y009490D01*
X004597Y009489D01*
X004549Y009492D01*
X004501Y009499D01*
X004454Y009510D01*
X004408Y009524D01*
X004363Y009542D01*
X004320Y009564D01*
X004279Y009589D01*
X004241Y009618D01*
X004204Y009650D01*
X004170Y009684D01*
X004140Y009721D01*
X004112Y009760D01*
X004087Y009802D01*
X004067Y009846D01*
X004049Y009891D01*
X004036Y009937D01*
X004026Y009984D01*
X004020Y010032D01*
X004018Y010080D01*
X004607Y013098D02*
X004609Y013137D01*
X004615Y013176D01*
X004625Y013214D01*
X004638Y013251D01*
X004655Y013286D01*
X004675Y013320D01*
X004699Y013351D01*
X004726Y013380D01*
X004755Y013406D01*
X004787Y013429D01*
X004821Y013449D01*
X004857Y013465D01*
X004894Y013477D01*
X004933Y013486D01*
X004972Y013491D01*
X005011Y013492D01*
X005050Y013489D01*
X005089Y013482D01*
X005126Y013471D01*
X005163Y013457D01*
X005198Y013439D01*
X005231Y013418D01*
X005262Y013393D01*
X005290Y013366D01*
X005315Y013336D01*
X005337Y013303D01*
X005356Y013269D01*
X005371Y013233D01*
X005383Y013195D01*
X005391Y013157D01*
X005395Y013118D01*
X005395Y013078D01*
X005391Y013039D01*
X005383Y013001D01*
X005371Y012963D01*
X005356Y012927D01*
X005337Y012893D01*
X005315Y012860D01*
X005290Y012830D01*
X005262Y012803D01*
X005231Y012778D01*
X005198Y012757D01*
X005163Y012739D01*
X005126Y012725D01*
X005089Y012714D01*
X005050Y012707D01*
X005011Y012704D01*
X004972Y012705D01*
X004933Y012710D01*
X004894Y012719D01*
X004857Y012731D01*
X004821Y012747D01*
X004787Y012767D01*
X004755Y012790D01*
X004726Y012816D01*
X004699Y012845D01*
X004675Y012876D01*
X004655Y012910D01*
X004638Y012945D01*
X004625Y012982D01*
X004615Y013020D01*
X004609Y013059D01*
X004607Y013098D01*
X004011Y016153D02*
X004013Y016201D01*
X004019Y016249D01*
X004029Y016296D01*
X004042Y016342D01*
X004060Y016387D01*
X004080Y016431D01*
X004105Y016473D01*
X004133Y016512D01*
X004163Y016549D01*
X004197Y016583D01*
X004234Y016615D01*
X004272Y016644D01*
X004313Y016669D01*
X004356Y016691D01*
X004401Y016709D01*
X004447Y016723D01*
X004494Y016734D01*
X004542Y016741D01*
X004590Y016744D01*
X004638Y016743D01*
X004686Y016738D01*
X004734Y016729D01*
X004780Y016717D01*
X004825Y016700D01*
X004869Y016680D01*
X004911Y016657D01*
X004951Y016630D01*
X004989Y016600D01*
X005024Y016567D01*
X005056Y016531D01*
X005086Y016493D01*
X005112Y016452D01*
X005134Y016409D01*
X005154Y016365D01*
X005169Y016320D01*
X005181Y016273D01*
X005189Y016225D01*
X005193Y016177D01*
X005193Y016129D01*
X005189Y016081D01*
X005181Y016033D01*
X005169Y015986D01*
X005154Y015941D01*
X005134Y015897D01*
X005112Y015854D01*
X005086Y015813D01*
X005056Y015775D01*
X005024Y015739D01*
X004989Y015706D01*
X004951Y015676D01*
X004911Y015649D01*
X004869Y015626D01*
X004825Y015606D01*
X004780Y015589D01*
X004734Y015577D01*
X004686Y015568D01*
X004638Y015563D01*
X004590Y015562D01*
X004542Y015565D01*
X004494Y015572D01*
X004447Y015583D01*
X004401Y015597D01*
X004356Y015615D01*
X004313Y015637D01*
X004272Y015662D01*
X004234Y015691D01*
X004197Y015723D01*
X004163Y015757D01*
X004133Y015794D01*
X004105Y015833D01*
X004080Y015875D01*
X004060Y015919D01*
X004042Y015964D01*
X004029Y016010D01*
X004019Y016057D01*
X004013Y016105D01*
X004011Y016153D01*
X007363Y013098D02*
X007365Y013137D01*
X007371Y013176D01*
X007381Y013214D01*
X007394Y013251D01*
X007411Y013286D01*
X007431Y013320D01*
X007455Y013351D01*
X007482Y013380D01*
X007511Y013406D01*
X007543Y013429D01*
X007577Y013449D01*
X007613Y013465D01*
X007650Y013477D01*
X007689Y013486D01*
X007728Y013491D01*
X007767Y013492D01*
X007806Y013489D01*
X007845Y013482D01*
X007882Y013471D01*
X007919Y013457D01*
X007954Y013439D01*
X007987Y013418D01*
X008018Y013393D01*
X008046Y013366D01*
X008071Y013336D01*
X008093Y013303D01*
X008112Y013269D01*
X008127Y013233D01*
X008139Y013195D01*
X008147Y013157D01*
X008151Y013118D01*
X008151Y013078D01*
X008147Y013039D01*
X008139Y013001D01*
X008127Y012963D01*
X008112Y012927D01*
X008093Y012893D01*
X008071Y012860D01*
X008046Y012830D01*
X008018Y012803D01*
X007987Y012778D01*
X007954Y012757D01*
X007919Y012739D01*
X007882Y012725D01*
X007845Y012714D01*
X007806Y012707D01*
X007767Y012704D01*
X007728Y012705D01*
X007689Y012710D01*
X007650Y012719D01*
X007613Y012731D01*
X007577Y012747D01*
X007543Y012767D01*
X007511Y012790D01*
X007482Y012816D01*
X007455Y012845D01*
X007431Y012876D01*
X007411Y012910D01*
X007394Y012945D01*
X007381Y012982D01*
X007371Y013020D01*
X007365Y013059D01*
X007363Y013098D01*
X029015Y013118D02*
X029017Y013157D01*
X029023Y013196D01*
X029033Y013234D01*
X029046Y013271D01*
X029063Y013306D01*
X029083Y013340D01*
X029107Y013371D01*
X029134Y013400D01*
X029163Y013426D01*
X029195Y013449D01*
X029229Y013469D01*
X029265Y013485D01*
X029302Y013497D01*
X029341Y013506D01*
X029380Y013511D01*
X029419Y013512D01*
X029458Y013509D01*
X029497Y013502D01*
X029534Y013491D01*
X029571Y013477D01*
X029606Y013459D01*
X029639Y013438D01*
X029670Y013413D01*
X029698Y013386D01*
X029723Y013356D01*
X029745Y013323D01*
X029764Y013289D01*
X029779Y013253D01*
X029791Y013215D01*
X029799Y013177D01*
X029803Y013138D01*
X029803Y013098D01*
X029799Y013059D01*
X029791Y013021D01*
X029779Y012983D01*
X029764Y012947D01*
X029745Y012913D01*
X029723Y012880D01*
X029698Y012850D01*
X029670Y012823D01*
X029639Y012798D01*
X029606Y012777D01*
X029571Y012759D01*
X029534Y012745D01*
X029497Y012734D01*
X029458Y012727D01*
X029419Y012724D01*
X029380Y012725D01*
X029341Y012730D01*
X029302Y012739D01*
X029265Y012751D01*
X029229Y012767D01*
X029195Y012787D01*
X029163Y012810D01*
X029134Y012836D01*
X029107Y012865D01*
X029083Y012896D01*
X029063Y012930D01*
X029046Y012965D01*
X029033Y013002D01*
X029023Y013040D01*
X029017Y013079D01*
X029015Y013118D01*
X031771Y013118D02*
X031773Y013157D01*
X031779Y013196D01*
X031789Y013234D01*
X031802Y013271D01*
X031819Y013306D01*
X031839Y013340D01*
X031863Y013371D01*
X031890Y013400D01*
X031919Y013426D01*
X031951Y013449D01*
X031985Y013469D01*
X032021Y013485D01*
X032058Y013497D01*
X032097Y013506D01*
X032136Y013511D01*
X032175Y013512D01*
X032214Y013509D01*
X032253Y013502D01*
X032290Y013491D01*
X032327Y013477D01*
X032362Y013459D01*
X032395Y013438D01*
X032426Y013413D01*
X032454Y013386D01*
X032479Y013356D01*
X032501Y013323D01*
X032520Y013289D01*
X032535Y013253D01*
X032547Y013215D01*
X032555Y013177D01*
X032559Y013138D01*
X032559Y013098D01*
X032555Y013059D01*
X032547Y013021D01*
X032535Y012983D01*
X032520Y012947D01*
X032501Y012913D01*
X032479Y012880D01*
X032454Y012850D01*
X032426Y012823D01*
X032395Y012798D01*
X032362Y012777D01*
X032327Y012759D01*
X032290Y012745D01*
X032253Y012734D01*
X032214Y012727D01*
X032175Y012724D01*
X032136Y012725D01*
X032097Y012730D01*
X032058Y012739D01*
X032021Y012751D01*
X031985Y012767D01*
X031951Y012787D01*
X031919Y012810D01*
X031890Y012836D01*
X031863Y012865D01*
X031839Y012896D01*
X031819Y012930D01*
X031802Y012965D01*
X031789Y013002D01*
X031779Y013040D01*
X031773Y013079D01*
X031771Y013118D01*
X031919Y004286D02*
X031921Y004334D01*
X031927Y004382D01*
X031937Y004429D01*
X031950Y004475D01*
X031968Y004520D01*
X031988Y004564D01*
X032013Y004606D01*
X032041Y004645D01*
X032071Y004682D01*
X032105Y004716D01*
X032142Y004748D01*
X032180Y004777D01*
X032221Y004802D01*
X032264Y004824D01*
X032309Y004842D01*
X032355Y004856D01*
X032402Y004867D01*
X032450Y004874D01*
X032498Y004877D01*
X032546Y004876D01*
X032594Y004871D01*
X032642Y004862D01*
X032688Y004850D01*
X032733Y004833D01*
X032777Y004813D01*
X032819Y004790D01*
X032859Y004763D01*
X032897Y004733D01*
X032932Y004700D01*
X032964Y004664D01*
X032994Y004626D01*
X033020Y004585D01*
X033042Y004542D01*
X033062Y004498D01*
X033077Y004453D01*
X033089Y004406D01*
X033097Y004358D01*
X033101Y004310D01*
X033101Y004262D01*
X033097Y004214D01*
X033089Y004166D01*
X033077Y004119D01*
X033062Y004074D01*
X033042Y004030D01*
X033020Y003987D01*
X032994Y003946D01*
X032964Y003908D01*
X032932Y003872D01*
X032897Y003839D01*
X032859Y003809D01*
X032819Y003782D01*
X032777Y003759D01*
X032733Y003739D01*
X032688Y003722D01*
X032642Y003710D01*
X032594Y003701D01*
X032546Y003696D01*
X032498Y003695D01*
X032450Y003698D01*
X032402Y003705D01*
X032355Y003716D01*
X032309Y003730D01*
X032264Y003748D01*
X032221Y003770D01*
X032180Y003795D01*
X032142Y003824D01*
X032105Y003856D01*
X032071Y003890D01*
X032041Y003927D01*
X032013Y003966D01*
X031988Y004008D01*
X031968Y004052D01*
X031950Y004097D01*
X031937Y004143D01*
X031927Y004190D01*
X031921Y004238D01*
X031919Y004286D01*
X031947Y021950D02*
X031949Y021998D01*
X031955Y022046D01*
X031965Y022093D01*
X031978Y022139D01*
X031996Y022184D01*
X032016Y022228D01*
X032041Y022270D01*
X032069Y022309D01*
X032099Y022346D01*
X032133Y022380D01*
X032170Y022412D01*
X032208Y022441D01*
X032249Y022466D01*
X032292Y022488D01*
X032337Y022506D01*
X032383Y022520D01*
X032430Y022531D01*
X032478Y022538D01*
X032526Y022541D01*
X032574Y022540D01*
X032622Y022535D01*
X032670Y022526D01*
X032716Y022514D01*
X032761Y022497D01*
X032805Y022477D01*
X032847Y022454D01*
X032887Y022427D01*
X032925Y022397D01*
X032960Y022364D01*
X032992Y022328D01*
X033022Y022290D01*
X033048Y022249D01*
X033070Y022206D01*
X033090Y022162D01*
X033105Y022117D01*
X033117Y022070D01*
X033125Y022022D01*
X033129Y021974D01*
X033129Y021926D01*
X033125Y021878D01*
X033117Y021830D01*
X033105Y021783D01*
X033090Y021738D01*
X033070Y021694D01*
X033048Y021651D01*
X033022Y021610D01*
X032992Y021572D01*
X032960Y021536D01*
X032925Y021503D01*
X032887Y021473D01*
X032847Y021446D01*
X032805Y021423D01*
X032761Y021403D01*
X032716Y021386D01*
X032670Y021374D01*
X032622Y021365D01*
X032574Y021360D01*
X032526Y021359D01*
X032478Y021362D01*
X032430Y021369D01*
X032383Y021380D01*
X032337Y021394D01*
X032292Y021412D01*
X032249Y021434D01*
X032208Y021459D01*
X032170Y021488D01*
X032133Y021520D01*
X032099Y021554D01*
X032069Y021591D01*
X032041Y021630D01*
X032016Y021672D01*
X031996Y021716D01*
X031978Y021761D01*
X031965Y021807D01*
X031955Y021854D01*
X031949Y021902D01*
X031947Y021950D01*
D11*
X021179Y014975D02*
X021181Y014987D01*
X021187Y014999D01*
X021195Y015007D01*
X021207Y015013D01*
X021219Y015015D01*
X021231Y015013D01*
X021243Y015007D01*
X021251Y014999D01*
X021257Y014987D01*
X021259Y014975D01*
X021257Y014963D01*
X021251Y014951D01*
X021243Y014943D01*
X021231Y014937D01*
X021219Y014935D01*
X021207Y014937D01*
X021195Y014943D01*
X021187Y014951D01*
X021181Y014963D01*
X021179Y014975D01*
X014854Y018736D02*
X014856Y018748D01*
X014862Y018760D01*
X014870Y018768D01*
X014882Y018774D01*
X014894Y018776D01*
X014906Y018774D01*
X014918Y018768D01*
X014926Y018760D01*
X014932Y018748D01*
X014934Y018736D01*
X014932Y018724D01*
X014926Y018712D01*
X014918Y018704D01*
X014906Y018698D01*
X014894Y018696D01*
X014882Y018698D01*
X014870Y018704D01*
X014862Y018712D01*
X014856Y018724D01*
X014854Y018736D01*
X008839Y018724D02*
X008841Y018736D01*
X008847Y018748D01*
X008855Y018756D01*
X008867Y018762D01*
X008879Y018764D01*
X008891Y018762D01*
X008903Y018756D01*
X008911Y018748D01*
X008917Y018736D01*
X008919Y018724D01*
X008917Y018712D01*
X008911Y018700D01*
X008903Y018692D01*
X008891Y018686D01*
X008879Y018684D01*
X008867Y018686D01*
X008855Y018692D01*
X008847Y018700D01*
X008841Y018712D01*
X008839Y018724D01*
X010847Y007550D02*
X010849Y007562D01*
X010855Y007574D01*
X010863Y007582D01*
X010875Y007588D01*
X010887Y007590D01*
X010899Y007588D01*
X010911Y007582D01*
X010919Y007574D01*
X010925Y007562D01*
X010927Y007550D01*
X010925Y007538D01*
X010919Y007526D01*
X010911Y007518D01*
X010899Y007512D01*
X010887Y007510D01*
X010875Y007512D01*
X010863Y007518D01*
X010855Y007526D01*
X010849Y007538D01*
X010847Y007550D01*
X004823Y007511D02*
X004825Y007523D01*
X004831Y007535D01*
X004839Y007543D01*
X004851Y007549D01*
X004863Y007551D01*
X004875Y007549D01*
X004887Y007543D01*
X004895Y007535D01*
X004901Y007523D01*
X004903Y007511D01*
X004901Y007499D01*
X004895Y007487D01*
X004887Y007479D01*
X004875Y007473D01*
X004863Y007471D01*
X004851Y007473D01*
X004839Y007479D01*
X004831Y007487D01*
X004825Y007499D01*
X004823Y007511D01*
X016815Y007554D02*
X016817Y007566D01*
X016823Y007578D01*
X016831Y007586D01*
X016843Y007592D01*
X016855Y007594D01*
X016867Y007592D01*
X016879Y007586D01*
X016887Y007578D01*
X016893Y007566D01*
X016895Y007554D01*
X016893Y007542D01*
X016887Y007530D01*
X016879Y007522D01*
X016867Y007516D01*
X016855Y007514D01*
X016843Y007516D01*
X016831Y007522D01*
X016823Y007530D01*
X016817Y007542D01*
X016815Y007554D01*
D12*
X015181Y007515D02*
X014984Y007637D01*
X014984Y007401D01*
X015173Y007515D01*
X015181Y007515D02*
X014594Y007507D01*
X014141Y007511D02*
X013555Y007503D01*
X013751Y007381D01*
X013751Y007617D01*
X013562Y007503D01*
X012964Y007389D02*
X012728Y007389D01*
X012842Y007200D01*
X012842Y007192D02*
X012834Y007779D01*
X011948Y007578D02*
X011834Y007767D01*
X011834Y007775D02*
X011712Y007578D01*
X011948Y007578D01*
X011834Y007775D02*
X011842Y007188D01*
X009157Y007476D02*
X008960Y007598D01*
X008960Y007362D01*
X009149Y007476D01*
X009157Y007476D02*
X008570Y007468D01*
X008118Y007472D02*
X007531Y007464D01*
X007728Y007342D01*
X007728Y007578D01*
X007539Y007464D01*
X006940Y007350D02*
X006818Y007153D01*
X006811Y007740D01*
X006704Y007350D02*
X006818Y007161D01*
X006704Y007350D02*
X006940Y007350D01*
X005925Y007539D02*
X005811Y007728D01*
X005811Y007736D02*
X005688Y007539D01*
X005925Y007539D01*
X005811Y007736D02*
X005818Y007149D01*
X005193Y011818D02*
X007613Y011818D01*
X008803Y011798D02*
X009343Y011798D01*
X009343Y012848D01*
X009323Y013968D02*
X009323Y014448D01*
X005863Y014448D01*
X010693Y018629D02*
X010736Y018629D01*
X010693Y018629D02*
X010662Y018636D01*
X010632Y018645D01*
X010604Y018659D01*
X010578Y018675D01*
X010554Y018695D01*
X010532Y018717D01*
X010513Y018742D01*
X010498Y018769D01*
X010485Y018798D01*
X010476Y018827D01*
X010471Y018858D01*
X010470Y018889D01*
X010472Y018920D01*
X011819Y018637D02*
X011848Y018642D01*
X011877Y018651D01*
X011904Y018662D01*
X011930Y018677D01*
X011954Y018694D01*
X011976Y018714D01*
X011996Y018737D01*
X012013Y018761D01*
X012027Y018787D01*
X012039Y018815D01*
X012047Y018844D01*
X012052Y018873D01*
X012053Y018903D01*
X012051Y018933D01*
X011819Y018637D02*
X011775Y018637D01*
X012558Y018945D02*
X012557Y018912D01*
X012560Y018879D01*
X012567Y018847D01*
X012578Y018816D01*
X012593Y018786D01*
X012611Y018758D01*
X012632Y018733D01*
X012656Y018711D01*
X012683Y018691D01*
X012711Y018675D01*
X012742Y018663D01*
X012774Y018654D01*
X012806Y018649D01*
X013803Y018649D02*
X013834Y018653D01*
X013864Y018660D01*
X013893Y018670D01*
X013920Y018684D01*
X013946Y018701D01*
X013969Y018721D01*
X013990Y018744D01*
X014008Y018769D01*
X014023Y018797D01*
X014034Y018825D01*
X014042Y018855D01*
X014046Y018886D01*
X014047Y018917D01*
X020040Y010748D02*
X020042Y010768D01*
X020047Y010788D01*
X020057Y010806D01*
X020069Y010823D01*
X020084Y010837D01*
X020102Y010847D01*
X020121Y010855D01*
X020141Y010859D01*
X020161Y010859D01*
X020181Y010855D01*
X020200Y010847D01*
X020218Y010837D01*
X020233Y010823D01*
X020245Y010806D01*
X020255Y010788D01*
X020260Y010768D01*
X020262Y010748D01*
X020260Y010728D01*
X020255Y010708D01*
X020245Y010690D01*
X020233Y010673D01*
X020218Y010659D01*
X020200Y010649D01*
X020181Y010641D01*
X020161Y010637D01*
X020141Y010637D01*
X020121Y010641D01*
X020102Y010649D01*
X020084Y010659D01*
X020069Y010673D01*
X020057Y010690D01*
X020047Y010708D01*
X020042Y010728D01*
X020040Y010748D01*
X027843Y011768D02*
X031303Y011768D01*
X031973Y014398D02*
X029553Y014398D01*
X028363Y014418D02*
X027823Y014418D01*
X027823Y013368D01*
X027843Y012248D02*
X027843Y011768D01*
D13*
X026328Y008041D02*
X026328Y007903D01*
X026328Y008041D02*
X026190Y008041D01*
X025133Y008041D02*
X024995Y008041D01*
X024995Y007903D01*
X024995Y006846D02*
X025071Y006770D01*
X025133Y006709D01*
X026190Y006709D02*
X026328Y006709D01*
X026328Y006846D01*
X023379Y006739D02*
X023379Y006239D01*
X023129Y005989D01*
X022629Y005989D01*
X022379Y006239D01*
X022129Y005989D01*
X021629Y005989D01*
X021379Y006239D01*
X021129Y005989D01*
X020629Y005989D01*
X020379Y006239D01*
X020129Y005989D01*
X019629Y005989D01*
X019379Y006239D01*
X019129Y005989D01*
X018629Y005989D01*
X018379Y006239D01*
X018129Y005989D01*
X017629Y005989D01*
X017379Y006239D01*
X017129Y005989D01*
X016629Y005989D01*
X016379Y006239D01*
X016379Y006739D01*
X016629Y006989D01*
X017129Y006989D01*
X017379Y006739D01*
X017629Y006989D01*
X018129Y006989D01*
X018379Y006739D01*
X018629Y006989D01*
X019129Y006989D01*
X019379Y006739D01*
X019629Y006989D01*
X020129Y006989D01*
X020379Y006739D01*
X020629Y006989D01*
X021129Y006989D01*
X021379Y006739D01*
X021629Y006989D01*
X022129Y006989D01*
X022379Y006739D01*
X022629Y006989D01*
X023129Y006989D01*
X023379Y006739D01*
X020308Y010433D02*
X016844Y010433D01*
X016686Y010590D01*
X016686Y014055D01*
X016844Y014212D01*
X020308Y014212D01*
X020466Y014055D01*
X020466Y010590D01*
X020308Y010433D01*
X015355Y006739D02*
X015355Y006239D01*
X015105Y005989D01*
X014605Y005989D01*
X014355Y006239D01*
X014105Y005989D01*
X013605Y005989D01*
X013355Y006239D01*
X013105Y005989D01*
X012605Y005989D01*
X012355Y006239D01*
X012105Y005989D01*
X011605Y005989D01*
X011355Y006239D01*
X011105Y005989D01*
X010605Y005989D01*
X010355Y006239D01*
X010355Y006739D01*
X010605Y006989D01*
X011105Y006989D01*
X011355Y006739D01*
X011605Y006989D01*
X012105Y006989D01*
X012355Y006739D01*
X012605Y006989D01*
X013105Y006989D01*
X013355Y006739D01*
X013605Y006989D01*
X014105Y006989D01*
X014355Y006739D01*
X014605Y006989D01*
X015105Y006989D01*
X015355Y006739D01*
X012964Y007389D02*
X012842Y007192D01*
X009393Y006740D02*
X009393Y006240D01*
X009143Y005990D01*
X008643Y005990D01*
X008393Y006240D01*
X008143Y005990D01*
X007643Y005990D01*
X007393Y006240D01*
X007143Y005990D01*
X006643Y005990D01*
X006393Y006240D01*
X006143Y005990D01*
X005643Y005990D01*
X005393Y006240D01*
X005143Y005990D01*
X004643Y005990D01*
X004393Y006240D01*
X004393Y006740D01*
X004643Y006990D01*
X005143Y006990D01*
X005393Y006740D01*
X005643Y006990D01*
X006143Y006990D01*
X006393Y006740D01*
X006643Y006990D01*
X007143Y006990D01*
X007393Y006740D01*
X007643Y006990D01*
X008143Y006990D01*
X008393Y006740D01*
X008643Y006990D01*
X009143Y006990D01*
X009393Y006740D01*
X020546Y019061D02*
X020546Y019541D01*
X020626Y019381D02*
X020546Y019301D01*
X020626Y019381D02*
X020786Y019381D01*
X020866Y019301D01*
X020866Y019061D01*
X021141Y019141D02*
X021141Y019461D01*
X021061Y019381D02*
X021221Y019381D01*
X021405Y019381D02*
X021565Y019381D01*
X021485Y019461D02*
X021485Y019141D01*
X021565Y019061D01*
X021749Y019061D02*
X021989Y019061D01*
X022069Y019141D01*
X022069Y019301D01*
X021989Y019381D01*
X021749Y019381D01*
X021749Y018901D01*
X022264Y019061D02*
X022264Y019141D01*
X022345Y019141D01*
X022345Y019061D01*
X022264Y019061D01*
X022264Y019301D02*
X022264Y019381D01*
X022345Y019381D01*
X022345Y019301D01*
X022264Y019301D01*
X022522Y019061D02*
X022843Y019541D01*
X023358Y019541D02*
X023038Y019061D01*
X023554Y019061D02*
X023794Y019061D01*
X023874Y019141D01*
X023874Y019301D01*
X023794Y019381D01*
X023554Y019381D01*
X023554Y018901D01*
X024069Y019061D02*
X024229Y019061D01*
X024149Y019061D02*
X024149Y019381D01*
X024069Y019381D01*
X024149Y019541D02*
X024149Y019622D01*
X024413Y019381D02*
X024493Y019381D01*
X024573Y019301D01*
X024653Y019381D01*
X024733Y019301D01*
X024733Y019061D01*
X024573Y019061D02*
X024573Y019301D01*
X024413Y019381D02*
X024413Y019061D01*
X024929Y019141D02*
X024929Y019301D01*
X025009Y019381D01*
X025169Y019381D01*
X025249Y019301D01*
X025249Y019141D01*
X025169Y019061D01*
X025009Y019061D01*
X024929Y019141D01*
X025444Y019061D02*
X025444Y019381D01*
X025444Y019221D02*
X025604Y019381D01*
X025684Y019381D01*
X025874Y019301D02*
X025874Y019141D01*
X025954Y019061D01*
X026114Y019061D01*
X026194Y019141D01*
X026194Y019301D01*
X026114Y019381D01*
X025954Y019381D01*
X025874Y019301D01*
X026390Y019381D02*
X026390Y019061D01*
X026710Y019061D02*
X026710Y019301D01*
X026630Y019381D01*
X026390Y019381D01*
X026905Y019381D02*
X026985Y019381D01*
X026985Y019061D01*
X026905Y019061D02*
X027065Y019061D01*
X027249Y019061D02*
X027329Y019061D01*
X027329Y019141D01*
X027249Y019141D01*
X027249Y019061D01*
X027507Y019141D02*
X027587Y019061D01*
X027827Y019061D01*
X028022Y019141D02*
X028022Y019301D01*
X028103Y019381D01*
X028263Y019381D01*
X028343Y019301D01*
X028343Y019141D01*
X028263Y019061D01*
X028103Y019061D01*
X028022Y019141D01*
X027827Y019381D02*
X027587Y019381D01*
X027507Y019301D01*
X027507Y019141D01*
X026985Y019541D02*
X026985Y019622D01*
X028538Y019381D02*
X028538Y019061D01*
X028698Y019061D02*
X028698Y019301D01*
X028778Y019381D01*
X028858Y019301D01*
X028858Y019061D01*
X028698Y019301D02*
X028618Y019381D01*
X028538Y019381D01*
X028620Y018102D02*
X028120Y018102D01*
X028120Y017502D02*
X028620Y017502D01*
X031811Y017674D02*
X031811Y018146D01*
X032362Y018146D01*
X032362Y019879D01*
X031811Y019879D01*
X031811Y020351D01*
X032441Y020351D01*
X033504Y020351D02*
X033504Y017674D01*
X032441Y017674D02*
X031811Y017674D01*
X021221Y019061D02*
X021141Y019141D01*
X015366Y019480D02*
X015116Y019230D01*
X014616Y019230D01*
X014366Y019480D01*
X014116Y019230D01*
X013616Y019230D01*
X013366Y019480D01*
X013116Y019230D01*
X012616Y019230D01*
X012366Y019480D01*
X012116Y019230D01*
X011616Y019230D01*
X011366Y019480D01*
X011116Y019230D01*
X010616Y019230D01*
X010366Y019480D01*
X010366Y019980D01*
X010616Y020230D01*
X011116Y020230D01*
X011366Y019980D01*
X011616Y020230D01*
X012116Y020230D01*
X012366Y019980D01*
X012616Y020230D01*
X013116Y020230D01*
X013366Y019980D01*
X013616Y020230D01*
X014116Y020230D01*
X014366Y019980D01*
X014616Y020230D01*
X015116Y020230D01*
X015366Y019980D01*
X015366Y019480D01*
X009371Y019485D02*
X009121Y019235D01*
X008621Y019235D01*
X008371Y019485D01*
X008121Y019235D01*
X007621Y019235D01*
X007371Y019485D01*
X007121Y019235D01*
X006621Y019235D01*
X006371Y019485D01*
X006121Y019235D01*
X005621Y019235D01*
X005371Y019485D01*
X005121Y019235D01*
X004621Y019235D01*
X004371Y019485D01*
X004371Y019985D01*
X004621Y020235D01*
X005121Y020235D01*
X005371Y019985D01*
X005621Y020235D01*
X006121Y020235D01*
X006371Y019985D01*
X006621Y020235D01*
X007121Y020235D01*
X007371Y019985D01*
X007621Y020235D01*
X008121Y020235D01*
X008371Y019985D01*
X008621Y020235D01*
X009121Y020235D01*
X009371Y019985D01*
X009371Y019485D01*
D14*
X010859Y018807D02*
X011153Y018807D01*
X010859Y018513D01*
X010859Y018440D01*
X010933Y018367D01*
X011080Y018367D01*
X011153Y018440D01*
X011320Y018440D02*
X011320Y018587D01*
X011393Y018660D01*
X011613Y018660D01*
X011613Y018807D02*
X011613Y018367D01*
X011393Y018367D01*
X011320Y018440D01*
X012867Y018807D02*
X013161Y018807D01*
X013014Y018807D02*
X013014Y018367D01*
X013161Y018513D01*
X013328Y018440D02*
X013328Y018587D01*
X013401Y018660D01*
X013621Y018660D01*
X013621Y018807D02*
X013621Y018367D01*
X013401Y018367D01*
X013328Y018440D01*
X016816Y015325D02*
X016929Y015438D01*
X017043Y015325D01*
X017043Y015098D01*
X017043Y015268D02*
X016816Y015268D01*
X016816Y015325D02*
X016816Y015098D01*
X017184Y015438D02*
X017411Y015438D01*
X017298Y015438D02*
X017298Y015098D01*
X017552Y015098D02*
X017552Y015438D01*
X017666Y015325D01*
X017779Y015438D01*
X017779Y015098D01*
X017921Y015098D02*
X018148Y015098D01*
X018289Y015155D02*
X018346Y015098D01*
X018459Y015098D01*
X018516Y015155D01*
X018516Y015268D01*
X018403Y015268D01*
X018516Y015381D02*
X018459Y015438D01*
X018346Y015438D01*
X018289Y015381D01*
X018289Y015155D01*
X018034Y015268D02*
X017921Y015268D01*
X017921Y015438D02*
X017921Y015098D01*
X017921Y015438D02*
X018148Y015438D01*
X018657Y015325D02*
X018657Y015098D01*
X018657Y015268D02*
X018884Y015268D01*
X018884Y015325D02*
X018884Y015098D01*
X019026Y015155D02*
X019082Y015098D01*
X019196Y015098D01*
X019253Y015155D01*
X019253Y015211D01*
X019196Y015268D01*
X019139Y015268D01*
X019196Y015268D02*
X019253Y015325D01*
X019253Y015381D01*
X019196Y015438D01*
X019082Y015438D01*
X019026Y015381D01*
X018884Y015325D02*
X018771Y015438D01*
X018657Y015325D01*
X019394Y015381D02*
X019451Y015438D01*
X019564Y015438D01*
X019621Y015381D01*
X019621Y015325D01*
X019394Y015098D01*
X019621Y015098D01*
X019762Y015155D02*
X019819Y015098D01*
X019933Y015098D01*
X019989Y015155D01*
X019989Y015438D01*
X020131Y015268D02*
X020358Y015268D01*
X020301Y015098D02*
X020301Y015438D01*
X020131Y015268D01*
X019762Y015155D02*
X019762Y015438D01*
X021261Y015275D02*
X021261Y016775D01*
X021511Y017025D01*
X022011Y017025D01*
X022261Y016775D01*
X022511Y017025D01*
X023011Y017025D01*
X023261Y016775D01*
X023511Y017025D01*
X024011Y017025D01*
X024261Y016775D01*
X024261Y015275D01*
X024011Y015025D01*
X023511Y015025D01*
X023261Y015275D01*
X023011Y015025D01*
X022511Y015025D01*
X022261Y015275D01*
X022011Y015025D01*
X021511Y015025D01*
X021261Y015275D01*
X028543Y016156D02*
X028543Y016326D01*
X028599Y016383D01*
X028656Y016383D01*
X028713Y016326D01*
X028713Y016156D01*
X028883Y016156D02*
X028883Y016326D01*
X028826Y016383D01*
X028769Y016383D01*
X028713Y016326D01*
X028883Y016156D02*
X028543Y016156D01*
X028543Y016525D02*
X028883Y016525D01*
X028883Y016751D01*
X029757Y016741D02*
X030097Y016514D01*
X030097Y016373D02*
X029984Y016259D01*
X029984Y016316D02*
X029984Y016146D01*
X030097Y016146D02*
X029757Y016146D01*
X029757Y016316D01*
X029813Y016373D01*
X029927Y016373D01*
X029984Y016316D01*
X029757Y016514D02*
X030097Y016741D01*
X030893Y016743D02*
X031234Y016516D01*
X031234Y016743D02*
X030893Y016516D01*
X030893Y016375D02*
X030893Y016148D01*
X030893Y016261D02*
X031234Y016261D01*
X032125Y016208D02*
X032182Y016152D01*
X032409Y016152D01*
X032466Y016208D01*
X032466Y016322D01*
X032409Y016378D01*
X032182Y016378D01*
X032125Y016322D01*
X032125Y016208D01*
X032125Y016520D02*
X032466Y016747D01*
X032125Y016747D01*
X032125Y016520D02*
X032466Y016520D01*
X023062Y007810D02*
X022915Y007736D01*
X022768Y007590D01*
X022988Y007590D01*
X023062Y007516D01*
X023062Y007443D01*
X022988Y007369D01*
X022842Y007369D01*
X022768Y007443D01*
X022768Y007590D01*
X022026Y007605D02*
X022026Y007458D01*
X021953Y007384D01*
X021806Y007384D01*
X021732Y007458D01*
X021732Y007605D02*
X021879Y007678D01*
X021953Y007678D01*
X022026Y007605D01*
X022026Y007825D02*
X021732Y007825D01*
X021732Y007605D01*
X021042Y007601D02*
X020748Y007601D01*
X020968Y007821D01*
X020968Y007381D01*
X020065Y007430D02*
X019992Y007357D01*
X019845Y007357D01*
X019772Y007430D01*
X019918Y007577D02*
X019992Y007577D01*
X020065Y007504D01*
X020065Y007430D01*
X019992Y007577D02*
X020065Y007650D01*
X020065Y007724D01*
X019992Y007797D01*
X019845Y007797D01*
X019772Y007724D01*
X019057Y007690D02*
X019057Y007763D01*
X018984Y007837D01*
X018837Y007837D01*
X018764Y007763D01*
X019057Y007690D02*
X018764Y007396D01*
X019057Y007396D01*
X018030Y007384D02*
X017736Y007384D01*
X017883Y007384D02*
X017883Y007825D01*
X017736Y007678D01*
D15*
X017828Y008150D02*
X018113Y008150D01*
X018208Y008245D01*
X018208Y008340D01*
X018113Y008435D01*
X017828Y008435D01*
X017828Y008150D02*
X017828Y008720D01*
X018113Y008720D01*
X018208Y008625D01*
X018208Y008530D01*
X018113Y008435D01*
X018436Y008245D02*
X018531Y008150D01*
X018721Y008150D01*
X018816Y008245D01*
X018816Y008720D01*
X019043Y008720D02*
X019424Y008720D01*
X019234Y008720D02*
X019234Y008150D01*
X019841Y008150D02*
X019841Y008720D01*
X019651Y008720D02*
X020031Y008720D01*
X020259Y008625D02*
X020259Y008245D01*
X020354Y008150D01*
X020544Y008150D01*
X020639Y008245D01*
X020639Y008625D01*
X020544Y008720D01*
X020354Y008720D01*
X020259Y008625D01*
X020867Y008720D02*
X021247Y008150D01*
X021247Y008720D01*
X021474Y008625D02*
X021474Y008530D01*
X021569Y008435D01*
X021760Y008435D01*
X021855Y008340D01*
X021855Y008245D01*
X021760Y008150D01*
X021569Y008150D01*
X021474Y008245D01*
X021474Y008625D02*
X021569Y008720D01*
X021760Y008720D01*
X021855Y008625D01*
X020867Y008720D02*
X020867Y008150D01*
X018436Y008245D02*
X018436Y008720D01*
X014311Y008716D02*
X014311Y008621D01*
X014121Y008431D01*
X014121Y008146D01*
X014121Y008431D02*
X013931Y008621D01*
X013931Y008716D01*
X013704Y008621D02*
X013609Y008716D01*
X013418Y008716D01*
X013323Y008621D01*
X013323Y008241D01*
X013418Y008146D01*
X013609Y008146D01*
X013704Y008241D01*
X013704Y008621D01*
X013096Y008716D02*
X012906Y008716D01*
X013001Y008716D02*
X013001Y008241D01*
X012906Y008146D01*
X012811Y008146D01*
X012716Y008241D01*
X012488Y008146D02*
X012108Y008146D01*
X012488Y008526D01*
X012488Y008621D01*
X012393Y008716D01*
X012203Y008716D01*
X012108Y008621D01*
X011881Y008621D02*
X011881Y008431D01*
X011785Y008336D01*
X011500Y008336D01*
X011500Y008146D02*
X011500Y008716D01*
X011785Y008716D01*
X011881Y008621D01*
X008153Y008641D02*
X008153Y008736D01*
X008153Y008641D02*
X007963Y008451D01*
X007963Y008166D01*
X007963Y008451D02*
X007772Y008641D01*
X007772Y008736D01*
X007545Y008641D02*
X007450Y008736D01*
X007260Y008736D01*
X007165Y008641D01*
X007165Y008261D01*
X007260Y008166D01*
X007450Y008166D01*
X007545Y008261D01*
X007545Y008641D01*
X006937Y008736D02*
X006747Y008736D01*
X006842Y008736D02*
X006842Y008261D01*
X006747Y008166D01*
X006652Y008166D01*
X006557Y008261D01*
X006330Y008166D02*
X005949Y008166D01*
X006139Y008166D02*
X006139Y008736D01*
X005949Y008546D01*
X005722Y008641D02*
X005722Y008451D01*
X005627Y008356D01*
X005342Y008356D01*
X005342Y008166D02*
X005342Y008736D01*
X005627Y008736D01*
X005722Y008641D01*
X006056Y014786D02*
X006056Y015356D01*
X006056Y015071D02*
X006437Y015071D01*
X006664Y015071D02*
X006854Y015071D01*
X006664Y014786D02*
X007044Y014786D01*
X007272Y014786D02*
X007272Y015166D01*
X007462Y015356D01*
X007652Y015166D01*
X007652Y014786D01*
X007880Y014786D02*
X008165Y014786D01*
X008260Y014881D01*
X008260Y015261D01*
X008165Y015356D01*
X007880Y015356D01*
X007880Y014786D01*
X007652Y015071D02*
X007272Y015071D01*
X007044Y015356D02*
X006664Y015356D01*
X006664Y014786D01*
X006437Y014786D02*
X006437Y015356D01*
X006348Y017366D02*
X006158Y017366D01*
X006253Y017366D02*
X006253Y017936D01*
X006348Y017936D02*
X006158Y017936D01*
X005753Y017936D02*
X005753Y017366D01*
X005943Y017366D02*
X005563Y017366D01*
X005335Y017366D02*
X005335Y017461D01*
X005145Y017651D01*
X005145Y017936D01*
X005145Y017651D02*
X004955Y017461D01*
X004955Y017366D01*
X006576Y017936D02*
X006956Y017936D01*
X006956Y017366D01*
X007171Y017366D02*
X007361Y017366D01*
X007266Y017366D02*
X007266Y017936D01*
X007361Y017936D02*
X007171Y017936D01*
X007779Y017936D02*
X007779Y017366D01*
X007969Y017366D02*
X007589Y017366D01*
X008196Y017366D02*
X008196Y017841D01*
X008291Y017936D01*
X008482Y017936D01*
X008577Y017841D01*
X008577Y017366D01*
X008487Y015356D02*
X008773Y015356D01*
X008868Y015261D01*
X008868Y015071D01*
X008773Y014976D01*
X008487Y014976D01*
X008487Y014786D02*
X008487Y015356D01*
X009095Y015356D02*
X009095Y014786D01*
X009095Y015071D02*
X009475Y015071D01*
X009475Y015356D02*
X009475Y014786D01*
X009703Y014881D02*
X009798Y014786D01*
X009988Y014786D01*
X010083Y014881D01*
X010083Y015261D01*
X009988Y015356D01*
X009798Y015356D01*
X009703Y015261D01*
X009703Y014881D01*
X010310Y014786D02*
X010310Y015356D01*
X010691Y014786D01*
X010691Y015356D01*
X010918Y015356D02*
X010918Y014786D01*
X011298Y014786D01*
X011108Y015071D02*
X010918Y015071D01*
X010918Y015356D02*
X011298Y015356D01*
X011774Y017391D02*
X011774Y017962D01*
X012154Y017391D01*
X012154Y017962D01*
X012369Y017962D02*
X012559Y017962D01*
X012464Y017962D02*
X012464Y017391D01*
X012559Y017391D02*
X012369Y017391D01*
X012787Y017486D02*
X012787Y017867D01*
X012882Y017962D01*
X013072Y017962D01*
X013167Y017867D01*
X013167Y017486D01*
X013072Y017391D01*
X012882Y017391D01*
X012787Y017486D01*
X013394Y017486D02*
X013489Y017391D01*
X013680Y017391D01*
X013775Y017486D01*
X013775Y017867D01*
X013680Y017962D01*
X013489Y017962D01*
X013394Y017867D01*
X013464Y027502D02*
X013464Y027787D01*
X013369Y027883D01*
X013274Y027787D01*
X013274Y027502D01*
X013084Y027502D02*
X013084Y027883D01*
X013179Y027883D01*
X013274Y027787D01*
X012856Y027787D02*
X012761Y027883D01*
X012571Y027883D01*
X012476Y027787D01*
X012476Y027597D01*
X012571Y027502D01*
X012761Y027502D01*
X012856Y027597D01*
X012856Y027787D01*
X012249Y027883D02*
X011963Y027883D01*
X011868Y027787D01*
X011868Y027597D01*
X011963Y027502D01*
X012249Y027502D01*
X011660Y027502D02*
X011564Y027502D01*
X011564Y027597D01*
X011660Y027597D01*
X011660Y027502D01*
X011349Y027502D02*
X011159Y027502D01*
X011254Y027502D02*
X011254Y027883D01*
X011159Y027883D01*
X011254Y028073D02*
X011254Y028168D01*
X011147Y028492D02*
X010957Y028492D01*
X011052Y028492D02*
X011052Y028873D01*
X010957Y028873D01*
X011052Y029063D02*
X011052Y029158D01*
X010742Y029063D02*
X010647Y028968D01*
X010647Y028492D01*
X010552Y028777D02*
X010742Y028777D01*
X010337Y028777D02*
X010146Y028777D01*
X010242Y028968D02*
X010242Y028492D01*
X009919Y028682D02*
X009539Y028682D01*
X009539Y028587D02*
X009539Y028777D01*
X009634Y028873D01*
X009824Y028873D01*
X009919Y028777D01*
X009919Y028682D01*
X009824Y028492D02*
X009634Y028492D01*
X009539Y028587D01*
X009311Y028492D02*
X009311Y028777D01*
X009216Y028873D01*
X009026Y028873D01*
X008931Y028777D01*
X008704Y028682D02*
X008704Y028587D01*
X008609Y028492D01*
X008418Y028492D01*
X008323Y028587D01*
X008418Y028777D02*
X008609Y028777D01*
X008704Y028682D01*
X008704Y028968D02*
X008609Y029063D01*
X008418Y029063D01*
X008323Y028968D01*
X008323Y028873D01*
X008418Y028777D01*
X008931Y028492D02*
X008931Y029063D01*
X008925Y027883D02*
X008830Y027787D01*
X008830Y027597D01*
X008925Y027502D01*
X009115Y027502D01*
X009210Y027597D01*
X009210Y027787D01*
X009115Y027883D01*
X008925Y027883D01*
X008602Y027787D02*
X008602Y027502D01*
X008412Y027502D02*
X008412Y027787D01*
X008507Y027883D01*
X008602Y027787D01*
X008412Y027787D02*
X008317Y027883D01*
X008222Y027883D01*
X008222Y027502D01*
X008007Y027502D02*
X007817Y027502D01*
X007912Y027502D02*
X007912Y027883D01*
X007817Y027883D01*
X007912Y028073D02*
X007912Y028168D01*
X007589Y027787D02*
X007589Y027597D01*
X007494Y027502D01*
X007209Y027502D01*
X007209Y027312D02*
X007209Y027883D01*
X007494Y027883D01*
X007589Y027787D01*
X006982Y028073D02*
X006601Y027502D01*
X005994Y027502D02*
X006374Y028073D01*
X006703Y028492D02*
X006893Y028492D01*
X006798Y028492D02*
X006798Y028873D01*
X006703Y028873D01*
X006798Y029063D02*
X006798Y029158D01*
X007108Y028873D02*
X007393Y028873D01*
X007488Y028777D01*
X007488Y028492D01*
X007108Y028492D02*
X007108Y028873D01*
X005868Y028777D02*
X005868Y028682D01*
X005487Y028682D01*
X005487Y028587D02*
X005487Y028777D01*
X005582Y028873D01*
X005773Y028873D01*
X005868Y028777D01*
X005773Y028492D02*
X005582Y028492D01*
X005487Y028587D01*
X005260Y028492D02*
X004975Y028492D01*
X004880Y028587D01*
X004880Y028777D01*
X004975Y028873D01*
X005260Y028873D01*
X005260Y029063D02*
X005260Y028492D01*
X005367Y027883D02*
X005082Y027883D01*
X005082Y027312D01*
X005082Y027502D02*
X005367Y027502D01*
X005462Y027597D01*
X005462Y027787D01*
X005367Y027883D01*
X005690Y027883D02*
X005690Y027787D01*
X005785Y027787D01*
X005785Y027883D01*
X005690Y027883D01*
X005690Y027597D02*
X005690Y027502D01*
X005785Y027502D01*
X005785Y027597D01*
X005690Y027597D01*
X004867Y027502D02*
X004772Y027597D01*
X004772Y027978D01*
X004677Y027883D02*
X004867Y027883D01*
X004462Y027883D02*
X004272Y027883D01*
X004367Y027978D02*
X004367Y027597D01*
X004462Y027502D01*
X004044Y027502D02*
X004044Y027787D01*
X003949Y027883D01*
X003759Y027883D01*
X003664Y027787D01*
X003664Y027502D02*
X003664Y028073D01*
X003664Y028492D02*
X003664Y029063D01*
X003854Y028873D01*
X004044Y029063D01*
X004044Y028492D01*
X004272Y028587D02*
X004367Y028682D01*
X004652Y028682D01*
X004652Y028777D02*
X004652Y028492D01*
X004367Y028492D01*
X004272Y028587D01*
X004367Y028873D02*
X004557Y028873D01*
X004652Y028777D01*
X009437Y027883D02*
X009437Y027502D01*
X009437Y027692D02*
X009628Y027883D01*
X009723Y027883D01*
X009944Y027787D02*
X009944Y027597D01*
X010039Y027502D01*
X010229Y027502D01*
X010324Y027597D01*
X010324Y027787D01*
X010229Y027883D01*
X010039Y027883D01*
X009944Y027787D01*
X010552Y027883D02*
X010552Y027502D01*
X010932Y027502D02*
X010932Y027787D01*
X010837Y027883D01*
X010552Y027883D01*
X011362Y028587D02*
X011362Y028777D01*
X011457Y028873D01*
X011647Y028873D01*
X011742Y028777D01*
X011742Y028682D01*
X011362Y028682D01*
X011362Y028587D02*
X011457Y028492D01*
X011647Y028492D01*
X011970Y028492D02*
X012160Y028492D01*
X012065Y028492D02*
X012065Y029063D01*
X011970Y029063D01*
X012375Y028777D02*
X012470Y028873D01*
X012755Y028873D01*
X012755Y029063D02*
X012755Y028492D01*
X012470Y028492D01*
X012375Y028587D01*
X012375Y028777D01*
X013078Y028587D02*
X013078Y028492D01*
X013173Y028492D01*
X013173Y028587D01*
X013078Y028587D01*
X013173Y028492D02*
X012982Y028302D01*
X013995Y028587D02*
X014090Y028492D01*
X014281Y028492D01*
X014376Y028587D01*
X014376Y029063D01*
X014603Y029063D02*
X014603Y028492D01*
X014603Y028682D02*
X014983Y029063D01*
X014698Y028777D02*
X014983Y028492D01*
X013995Y028587D02*
X013995Y029063D01*
X010337Y029063D02*
X010242Y028968D01*
X027473Y011447D02*
X027473Y010877D01*
X027853Y010877D01*
X028081Y010877D02*
X028271Y010877D01*
X028176Y010877D02*
X028176Y011447D01*
X028081Y011447D02*
X028271Y011447D01*
X028486Y011447D02*
X028866Y010877D01*
X028866Y011447D01*
X029094Y011447D02*
X029094Y010877D01*
X029474Y010877D01*
X029284Y011162D02*
X029094Y011162D01*
X029094Y011447D02*
X029474Y011447D01*
X030309Y011447D02*
X030499Y011447D01*
X030404Y011447D02*
X030404Y010877D01*
X030309Y010877D02*
X030499Y010877D01*
X030714Y010877D02*
X030714Y011447D01*
X031095Y010877D01*
X031095Y011447D01*
X029918Y009705D02*
X030013Y009610D01*
X030013Y009419D01*
X029918Y009324D01*
X029728Y009419D02*
X029728Y009610D01*
X029823Y009705D01*
X029918Y009705D01*
X029728Y009419D02*
X029633Y009324D01*
X029538Y009324D01*
X029443Y009419D01*
X029443Y009610D01*
X029538Y009705D01*
X029538Y009097D02*
X029728Y009097D01*
X029823Y009002D01*
X029823Y008717D01*
X029823Y008907D02*
X030013Y009097D01*
X030013Y008717D02*
X029443Y008717D01*
X029443Y009002D01*
X029538Y009097D01*
X029443Y008489D02*
X029443Y008109D01*
X030013Y008109D01*
X030013Y008489D01*
X029728Y008299D02*
X029728Y008109D01*
X029443Y007882D02*
X029823Y007501D01*
X029728Y007596D02*
X030013Y007882D01*
X030013Y007501D02*
X029443Y007501D01*
X029633Y007274D02*
X030013Y007274D01*
X029728Y007274D02*
X029728Y006894D01*
X029633Y006894D02*
X029443Y007084D01*
X029633Y007274D01*
X029633Y006894D02*
X030013Y006894D01*
X030013Y006666D02*
X030013Y006286D01*
X029443Y006286D01*
X029443Y006666D01*
X029728Y006476D02*
X029728Y006286D01*
X029728Y006058D02*
X029823Y005963D01*
X029823Y005678D01*
X030013Y005678D02*
X029443Y005678D01*
X029443Y005963D01*
X029538Y006058D01*
X029728Y006058D01*
X029823Y005451D02*
X029728Y005356D01*
X029728Y005165D01*
X029633Y005070D01*
X029538Y005070D01*
X029443Y005165D01*
X029443Y005356D01*
X029538Y005451D01*
X029823Y005451D02*
X029918Y005451D01*
X030013Y005356D01*
X030013Y005165D01*
X029918Y005070D01*
X028486Y010877D02*
X028486Y011447D01*
D16*
X004422Y003984D02*
X004422Y003275D01*
X008650Y003275D01*
X008650Y003432D01*
X009162Y003432D01*
X009162Y003275D01*
X008650Y003275D01*
X008138Y003275D02*
X008138Y003432D01*
X007626Y003432D01*
X007626Y003275D01*
X007154Y003275D02*
X007154Y003432D01*
X006642Y003432D01*
X006642Y003275D01*
X006130Y003275D02*
X006130Y003432D01*
X005619Y003432D01*
X005619Y003275D01*
X005154Y003275D02*
X005154Y003432D01*
X004642Y003432D01*
X004642Y003275D01*
X004422Y003984D02*
X009359Y003984D01*
X009359Y003275D01*
X009162Y003275D01*
X009359Y003984D02*
X009359Y005086D01*
X004422Y005086D01*
X004422Y005440D01*
X009359Y005440D01*
X009359Y005086D01*
X009359Y005440D02*
X009359Y005795D01*
X004422Y005795D01*
X004422Y005440D01*
X004422Y005086D02*
X004422Y003984D01*
X010388Y003996D02*
X010388Y003287D01*
X014617Y003287D01*
X014617Y003445D01*
X015128Y003445D01*
X015128Y003287D01*
X014617Y003287D01*
X014105Y003287D02*
X014105Y003445D01*
X013593Y003445D01*
X013593Y003287D01*
X013121Y003287D02*
X013121Y003445D01*
X012609Y003445D01*
X012609Y003287D01*
X012097Y003287D02*
X012097Y003445D01*
X011585Y003445D01*
X011585Y003287D01*
X011121Y003287D02*
X011121Y003445D01*
X010609Y003445D01*
X010609Y003287D01*
X010388Y003996D02*
X015325Y003996D01*
X015325Y003287D01*
X015128Y003287D01*
X015325Y003996D02*
X015325Y005098D01*
X010388Y005098D01*
X010388Y005453D01*
X015325Y005453D01*
X015325Y005098D01*
X015325Y005453D02*
X015325Y005807D01*
X010388Y005807D01*
X010388Y005453D01*
X010388Y005098D02*
X010388Y003996D01*
X016407Y003979D02*
X016407Y003270D01*
X022635Y003270D01*
X022635Y003427D01*
X023147Y003427D01*
X023147Y003270D01*
X022635Y003270D01*
X023147Y003270D02*
X023344Y003270D01*
X023344Y003979D01*
X016407Y003979D01*
X016407Y005081D01*
X023344Y005081D01*
X023344Y003979D01*
X023344Y005081D02*
X023344Y005435D01*
X016407Y005435D01*
X016407Y005790D01*
X023344Y005790D01*
X023344Y005435D01*
X025018Y005718D02*
X025064Y005671D01*
X025251Y005671D01*
X025298Y005718D01*
X025298Y005811D01*
X025251Y005858D01*
X025298Y005966D02*
X025298Y006153D01*
X025298Y006059D02*
X025018Y006059D01*
X025111Y005966D01*
X025064Y005858D02*
X025018Y005811D01*
X025018Y005718D01*
X025642Y004640D02*
X025595Y004593D01*
X025595Y004406D01*
X025642Y004360D01*
X025735Y004360D01*
X025782Y004406D01*
X025890Y004360D02*
X026077Y004546D01*
X026077Y004593D01*
X026030Y004640D01*
X025937Y004640D01*
X025890Y004593D01*
X025782Y004593D02*
X025735Y004640D01*
X025642Y004640D01*
X025890Y004360D02*
X026077Y004360D01*
X026184Y004406D02*
X026371Y004593D01*
X026371Y004406D01*
X026325Y004360D01*
X026231Y004360D01*
X026184Y004406D01*
X026184Y004593D01*
X026231Y004640D01*
X026325Y004640D01*
X026371Y004593D01*
X026778Y005336D02*
X026871Y005336D01*
X026918Y005383D01*
X027026Y005336D02*
X027213Y005523D01*
X027213Y005569D01*
X027166Y005616D01*
X027072Y005616D01*
X027026Y005569D01*
X026918Y005569D02*
X026871Y005616D01*
X026778Y005616D01*
X026731Y005569D01*
X026731Y005383D01*
X026778Y005336D01*
X027026Y005336D02*
X027213Y005336D01*
X027320Y005336D02*
X027507Y005523D01*
X027507Y005569D01*
X027461Y005616D01*
X027367Y005616D01*
X027320Y005569D01*
X027320Y005336D02*
X027507Y005336D01*
X027472Y004901D02*
X027519Y004854D01*
X027519Y004761D01*
X027472Y004714D01*
X027519Y004606D02*
X027519Y004419D01*
X027238Y004419D01*
X027285Y004714D02*
X027238Y004761D01*
X027238Y004854D01*
X027285Y004901D01*
X027332Y004901D01*
X027378Y004854D01*
X027425Y004901D01*
X027472Y004901D01*
X027378Y004854D02*
X027378Y004807D01*
X027486Y006013D02*
X027205Y006013D01*
X027486Y006013D02*
X027486Y006200D01*
X027345Y006308D02*
X027205Y006448D01*
X027486Y006448D01*
X027345Y006494D02*
X027345Y006308D01*
X027381Y006872D02*
X027335Y006919D01*
X027381Y006872D02*
X027475Y006872D01*
X027521Y006919D01*
X027521Y006965D01*
X027475Y007012D01*
X027428Y007012D01*
X027475Y007012D02*
X027521Y007059D01*
X027521Y007106D01*
X027475Y007152D01*
X027381Y007152D01*
X027335Y007106D01*
X027227Y007106D02*
X027180Y007152D01*
X027087Y007152D01*
X027040Y007106D01*
X026932Y007106D02*
X026885Y007152D01*
X026792Y007152D01*
X026745Y007106D01*
X026745Y006919D01*
X026792Y006872D01*
X026885Y006872D01*
X026932Y006919D01*
X027040Y006872D02*
X027227Y007059D01*
X027227Y007106D01*
X027227Y006872D02*
X027040Y006872D01*
X027228Y007581D02*
X027508Y007581D01*
X027508Y007768D01*
X027508Y007876D02*
X027322Y008063D01*
X027275Y008063D01*
X027228Y008016D01*
X027228Y007923D01*
X027275Y007876D01*
X027508Y007876D02*
X027508Y008063D01*
X027465Y008247D02*
X027512Y008294D01*
X027512Y008387D01*
X027465Y008434D01*
X027512Y008542D02*
X027512Y008729D01*
X027512Y008635D02*
X027231Y008635D01*
X027325Y008542D01*
X027278Y008434D02*
X027231Y008387D01*
X027231Y008294D01*
X027278Y008247D01*
X027465Y008247D01*
X027465Y008837D02*
X027418Y008837D01*
X027371Y008883D01*
X027371Y008977D01*
X027418Y009023D01*
X027465Y009023D01*
X027512Y008977D01*
X027512Y008883D01*
X027465Y008837D01*
X027371Y008883D02*
X027325Y008837D01*
X027278Y008837D01*
X027231Y008883D01*
X027231Y008977D01*
X027278Y009023D01*
X027325Y009023D01*
X027371Y008977D01*
X027506Y009215D02*
X027506Y009402D01*
X027506Y009510D02*
X027506Y009696D01*
X027506Y009603D02*
X027226Y009603D01*
X027319Y009510D01*
X027226Y009215D02*
X027506Y009215D01*
X027455Y010049D02*
X027502Y010096D01*
X027502Y010283D01*
X027455Y010329D01*
X027362Y010329D01*
X027315Y010283D01*
X027315Y010236D01*
X027362Y010189D01*
X027502Y010189D01*
X027455Y010049D02*
X027362Y010049D01*
X027315Y010096D01*
X027207Y010049D02*
X027020Y010049D01*
X027114Y010049D02*
X027114Y010329D01*
X027020Y010236D01*
X026912Y010283D02*
X026866Y010329D01*
X026772Y010329D01*
X026726Y010283D01*
X026726Y010096D01*
X026772Y010049D01*
X026866Y010049D01*
X026912Y010096D01*
X026347Y009694D02*
X026300Y009741D01*
X026207Y009741D01*
X026160Y009694D01*
X026052Y009694D02*
X026005Y009741D01*
X025912Y009741D01*
X025865Y009694D01*
X025865Y009507D01*
X025912Y009461D01*
X026005Y009461D01*
X026052Y009507D01*
X026160Y009461D02*
X026347Y009647D01*
X026347Y009694D01*
X026347Y009461D02*
X026160Y009461D01*
X025092Y010199D02*
X025092Y010292D01*
X025045Y010339D01*
X024998Y010339D01*
X024905Y010292D01*
X024905Y010432D01*
X025092Y010432D01*
X025092Y010199D02*
X025045Y010152D01*
X024952Y010152D01*
X024905Y010199D01*
X024797Y010152D02*
X024610Y010152D01*
X024704Y010152D02*
X024704Y010432D01*
X024610Y010339D01*
X024502Y010386D02*
X024456Y010432D01*
X024362Y010432D01*
X024316Y010386D01*
X024316Y010199D01*
X024362Y010152D01*
X024456Y010152D01*
X024502Y010199D01*
X023531Y009718D02*
X023531Y009624D01*
X023484Y009577D01*
X023531Y009470D02*
X023531Y009283D01*
X023531Y009376D02*
X023251Y009376D01*
X023344Y009283D01*
X023297Y009175D02*
X023251Y009128D01*
X023251Y009035D01*
X023297Y008988D01*
X023484Y008988D01*
X023531Y009035D01*
X023531Y009128D01*
X023484Y009175D01*
X023297Y009577D02*
X023251Y009624D01*
X023251Y009718D01*
X023297Y009764D01*
X023344Y009764D01*
X023391Y009718D01*
X023437Y009764D01*
X023484Y009764D01*
X023531Y009718D01*
X023391Y009718D02*
X023391Y009671D01*
X022173Y009729D02*
X022173Y009823D01*
X022127Y009869D01*
X022173Y009977D02*
X022173Y010164D01*
X022173Y010071D02*
X021893Y010071D01*
X021987Y009977D01*
X021940Y009869D02*
X021893Y009823D01*
X021893Y009729D01*
X021940Y009683D01*
X022127Y009683D01*
X022173Y009729D01*
X022127Y010272D02*
X021940Y010272D01*
X021893Y010319D01*
X021893Y010412D01*
X021940Y010459D01*
X022127Y010272D01*
X022173Y010319D01*
X022173Y010412D01*
X022127Y010459D01*
X021940Y010459D01*
X021925Y011461D02*
X022018Y011461D01*
X022065Y011507D01*
X022172Y011601D02*
X022313Y011741D01*
X022313Y011461D01*
X022359Y011601D02*
X022172Y011601D01*
X022065Y011694D02*
X022018Y011741D01*
X021925Y011741D01*
X021878Y011694D01*
X021878Y011507D01*
X021925Y011461D01*
X021953Y012701D02*
X022046Y012701D01*
X022093Y012748D01*
X022201Y012748D02*
X022248Y012701D01*
X022341Y012701D01*
X022388Y012748D01*
X022388Y012935D01*
X022341Y012981D01*
X022248Y012981D01*
X022201Y012935D01*
X022201Y012888D01*
X022248Y012841D01*
X022388Y012841D01*
X022093Y012935D02*
X022046Y012981D01*
X021953Y012981D01*
X021906Y012935D01*
X021906Y012748D01*
X021953Y012701D01*
X021981Y014047D02*
X022047Y014047D01*
X022179Y014179D01*
X022179Y014245D01*
X022113Y014311D01*
X022047Y014311D01*
X021915Y014179D01*
X021915Y014113D01*
X021981Y014047D01*
X021839Y014255D02*
X021773Y014255D01*
X021707Y014321D01*
X021707Y014387D01*
X021806Y014420D02*
X021872Y014354D01*
X021872Y014288D01*
X021839Y014255D01*
X021806Y014420D02*
X021806Y014486D01*
X021839Y014519D01*
X021905Y014519D01*
X021971Y014453D01*
X021971Y014387D01*
X021799Y014625D02*
X021733Y014691D01*
X021766Y014658D02*
X021568Y014460D01*
X021535Y014493D02*
X021601Y014427D01*
X021458Y014569D02*
X021657Y014767D01*
X021524Y014767D01*
X021524Y014899D01*
X021326Y014701D01*
X022355Y014712D02*
X022355Y014778D01*
X022355Y014712D02*
X022421Y014645D01*
X022488Y014645D01*
X022521Y014678D01*
X022521Y014745D01*
X022455Y014811D01*
X022455Y014877D01*
X022488Y014910D01*
X022554Y014910D01*
X022620Y014844D01*
X022620Y014778D01*
X022696Y014701D02*
X022564Y014569D01*
X022564Y014503D01*
X022630Y014437D01*
X022696Y014437D01*
X022805Y014394D02*
X023069Y014394D01*
X022937Y014526D02*
X022739Y014328D01*
X022871Y014394D02*
X022871Y014196D01*
X022828Y014569D02*
X022828Y014635D01*
X022762Y014701D01*
X022696Y014701D01*
X023330Y014721D02*
X023528Y014919D01*
X023628Y014820D01*
X023628Y014754D01*
X023561Y014688D01*
X023495Y014688D01*
X023396Y014787D01*
X023462Y014721D02*
X023462Y014589D01*
X023572Y014546D02*
X023572Y014480D01*
X023638Y014413D01*
X023704Y014413D01*
X023737Y014447D01*
X023737Y014513D01*
X023671Y014579D01*
X023671Y014645D01*
X023704Y014678D01*
X023770Y014678D01*
X023836Y014612D01*
X023836Y014546D01*
X023945Y014502D02*
X024077Y014370D01*
X024011Y014436D02*
X023813Y014238D01*
X026544Y016809D02*
X026544Y017089D01*
X026684Y017089D01*
X026731Y017042D01*
X026731Y016949D01*
X026684Y016902D01*
X026544Y016902D01*
X026638Y016902D02*
X026731Y016809D01*
X026839Y016809D02*
X026839Y016856D01*
X027026Y017042D01*
X027026Y017089D01*
X026839Y017089D01*
X026932Y016394D02*
X027212Y016394D01*
X027212Y016487D02*
X027212Y016300D01*
X027212Y016192D02*
X026932Y016192D01*
X027025Y016300D02*
X026932Y016394D01*
X027212Y016192D02*
X026932Y016006D01*
X027212Y016006D01*
X027212Y015898D02*
X027119Y015804D01*
X027119Y015851D02*
X027119Y015711D01*
X027212Y015711D02*
X026932Y015711D01*
X026932Y015851D01*
X026978Y015898D01*
X027072Y015898D01*
X027119Y015851D01*
X030053Y017013D02*
X030240Y017013D01*
X030348Y017060D02*
X030395Y017013D01*
X030488Y017013D01*
X030535Y017060D01*
X030535Y017153D01*
X030488Y017200D01*
X030441Y017200D01*
X030348Y017153D01*
X030348Y017293D01*
X030535Y017293D01*
X030053Y017293D02*
X030053Y017013D01*
X030976Y018470D02*
X030976Y018610D01*
X031023Y018657D01*
X031116Y018657D01*
X031163Y018610D01*
X031163Y018470D01*
X031163Y018563D02*
X031256Y018657D01*
X031210Y018764D02*
X031256Y018811D01*
X031256Y018904D01*
X031210Y018951D01*
X031116Y018951D01*
X031070Y018904D01*
X031070Y018858D01*
X031116Y018764D01*
X030976Y018764D01*
X030976Y018951D01*
X030980Y019238D02*
X030980Y019378D01*
X031027Y019425D01*
X031121Y019425D01*
X031167Y019378D01*
X031167Y019238D01*
X031167Y019331D02*
X031261Y019425D01*
X031214Y019533D02*
X031261Y019579D01*
X031261Y019673D01*
X031214Y019719D01*
X031167Y019719D01*
X031121Y019673D01*
X031121Y019533D01*
X031214Y019533D01*
X031121Y019533D02*
X031027Y019626D01*
X030980Y019719D01*
X030980Y019238D02*
X031261Y019238D01*
X031256Y018470D02*
X030976Y018470D01*
X024129Y017356D02*
X024030Y017455D01*
X023831Y017257D01*
X023930Y017157D01*
X023996Y017157D01*
X024129Y017290D01*
X024129Y017356D01*
X023953Y017531D02*
X023755Y017333D01*
X023821Y017663D01*
X023623Y017465D01*
X023580Y017574D02*
X023514Y017574D01*
X023448Y017640D01*
X023448Y017706D01*
X023580Y017838D01*
X023646Y017838D01*
X023712Y017772D01*
X023712Y017706D01*
X023646Y017640D02*
X023580Y017706D01*
X023646Y017640D02*
X023580Y017574D01*
X023219Y017369D02*
X023153Y017435D01*
X023186Y017402D02*
X022988Y017204D01*
X022955Y017237D02*
X023021Y017171D01*
X022911Y017346D02*
X022845Y017346D01*
X022779Y017412D01*
X022779Y017478D01*
X022878Y017511D02*
X022878Y017577D01*
X022911Y017610D01*
X022978Y017610D01*
X023044Y017544D01*
X023044Y017478D01*
X022944Y017445D02*
X022944Y017379D01*
X022911Y017346D01*
X022944Y017445D02*
X022878Y017511D01*
X022703Y017554D02*
X022835Y017687D01*
X022835Y017753D01*
X022769Y017819D01*
X022703Y017819D01*
X022571Y017687D01*
X022571Y017620D01*
X022637Y017554D01*
X022703Y017554D01*
X022462Y017730D02*
X022660Y017928D01*
X022528Y017928D01*
X022528Y018060D01*
X022330Y017862D01*
X021892Y017432D02*
X021760Y017300D01*
X021760Y017168D01*
X021892Y017168D01*
X022025Y017300D01*
X021816Y017509D02*
X021684Y017641D01*
X021585Y017542D01*
X021684Y017509D01*
X021717Y017476D01*
X021717Y017410D01*
X021651Y017343D01*
X021585Y017343D01*
X021519Y017410D01*
X021519Y017476D01*
X020610Y017516D02*
X020610Y017329D01*
X020610Y017423D02*
X020330Y017423D01*
X020424Y017329D01*
X020377Y017221D02*
X020330Y017175D01*
X020330Y017081D01*
X020377Y017035D01*
X020564Y017035D01*
X020610Y017081D01*
X020610Y017175D01*
X020564Y017221D01*
X020610Y017624D02*
X020424Y017811D01*
X020377Y017811D01*
X020330Y017764D01*
X020330Y017671D01*
X020377Y017624D01*
X020610Y017624D02*
X020610Y017811D01*
X020122Y016495D02*
X020028Y016448D01*
X019935Y016354D01*
X020075Y016354D01*
X020122Y016308D01*
X020122Y016261D01*
X020075Y016214D01*
X019982Y016214D01*
X019935Y016261D01*
X019935Y016354D01*
X019827Y016261D02*
X019780Y016214D01*
X019687Y016214D01*
X019640Y016261D01*
X019640Y016448D01*
X019687Y016495D01*
X019780Y016495D01*
X019827Y016448D01*
X018956Y016499D02*
X018769Y016499D01*
X018769Y016546D01*
X018956Y016732D01*
X018956Y016779D01*
X018769Y016779D01*
X018662Y016779D02*
X018662Y016499D01*
X018662Y016639D02*
X018475Y016639D01*
X018475Y016499D02*
X018475Y016779D01*
X018367Y016779D02*
X018367Y016499D01*
X018180Y016499D02*
X018180Y016779D01*
X018274Y016686D01*
X018367Y016779D01*
X018072Y016779D02*
X017979Y016732D01*
X017885Y016639D01*
X018026Y016639D01*
X018072Y016592D01*
X018072Y016546D01*
X018026Y016499D01*
X017932Y016499D01*
X017885Y016546D01*
X017885Y016639D01*
X017778Y016499D02*
X017591Y016499D01*
X017684Y016499D02*
X017684Y016779D01*
X017591Y016686D01*
X016173Y017114D02*
X016173Y017208D01*
X016126Y017254D01*
X016173Y017362D02*
X016173Y017549D01*
X016173Y017456D02*
X015892Y017456D01*
X015986Y017362D01*
X015939Y017254D02*
X015892Y017208D01*
X015892Y017114D01*
X015939Y017067D01*
X016126Y017067D01*
X016173Y017114D01*
X016173Y017657D02*
X016173Y017844D01*
X016173Y017750D02*
X015892Y017750D01*
X015986Y017657D01*
X015666Y014933D02*
X015479Y014933D01*
X015479Y014793D01*
X015573Y014840D01*
X015619Y014840D01*
X015666Y014793D01*
X015666Y014700D01*
X015619Y014653D01*
X015526Y014653D01*
X015479Y014700D01*
X015371Y014700D02*
X015325Y014653D01*
X015231Y014653D01*
X015184Y014700D01*
X015184Y014887D01*
X015231Y014933D01*
X015325Y014933D01*
X015371Y014887D01*
X014358Y014893D02*
X014358Y014846D01*
X014311Y014799D01*
X014358Y014752D01*
X014358Y014706D01*
X014311Y014659D01*
X014218Y014659D01*
X014171Y014706D01*
X014063Y014659D02*
X013877Y014659D01*
X013970Y014659D02*
X013970Y014939D01*
X013877Y014846D01*
X013769Y014893D02*
X013769Y014799D01*
X013722Y014752D01*
X013582Y014752D01*
X013582Y014659D02*
X013582Y014939D01*
X013722Y014939D01*
X013769Y014893D01*
X013675Y014752D02*
X013769Y014659D01*
X014171Y014893D02*
X014218Y014939D01*
X014311Y014939D01*
X014358Y014893D01*
X014311Y014799D02*
X014265Y014799D01*
X014320Y013114D02*
X014460Y013114D01*
X014507Y013067D01*
X014507Y012974D01*
X014460Y012927D01*
X014320Y012927D01*
X014320Y012834D02*
X014320Y013114D01*
X014413Y012927D02*
X014507Y012834D01*
X014615Y012834D02*
X014802Y012834D01*
X014708Y012834D02*
X014708Y013114D01*
X014615Y013021D01*
X014909Y013067D02*
X014956Y013114D01*
X015049Y013114D01*
X015096Y013067D01*
X015096Y013021D01*
X014909Y012834D01*
X015096Y012834D01*
X014798Y011916D02*
X014517Y011916D01*
X014611Y011916D02*
X014611Y011775D01*
X014658Y011729D01*
X014751Y011729D01*
X014798Y011775D01*
X014798Y011916D01*
X014611Y011822D02*
X014517Y011729D01*
X014517Y011621D02*
X014517Y011434D01*
X014517Y011528D02*
X014798Y011528D01*
X014704Y011621D01*
X014612Y010365D02*
X014659Y010318D01*
X014659Y010271D01*
X014612Y010224D01*
X014519Y010224D01*
X014472Y010271D01*
X014472Y010318D01*
X014519Y010365D01*
X014612Y010365D01*
X014612Y010224D02*
X014659Y010178D01*
X014659Y010131D01*
X014612Y010084D01*
X014519Y010084D01*
X014472Y010131D01*
X014472Y010178D01*
X014519Y010224D01*
X014364Y010224D02*
X014317Y010178D01*
X014177Y010178D01*
X014271Y010178D02*
X014364Y010084D01*
X014364Y010224D02*
X014364Y010318D01*
X014317Y010365D01*
X014177Y010365D01*
X014177Y010084D01*
X015761Y009556D02*
X015761Y009369D01*
X015808Y009322D01*
X015901Y009322D01*
X015948Y009369D01*
X016056Y009369D02*
X016056Y009322D01*
X016056Y009369D02*
X016243Y009556D01*
X016243Y009602D01*
X016056Y009602D01*
X015948Y009556D02*
X015901Y009602D01*
X015808Y009602D01*
X015761Y009556D01*
X016407Y005435D02*
X016407Y005081D01*
X016627Y003427D02*
X016627Y003270D01*
X016627Y003427D02*
X017139Y003427D01*
X017139Y003270D01*
X017603Y003270D02*
X017603Y003427D01*
X018115Y003427D01*
X018115Y003270D01*
X018627Y003270D02*
X018627Y003427D01*
X019139Y003427D01*
X019139Y003270D01*
X019603Y003270D02*
X019603Y003427D01*
X020115Y003427D01*
X020115Y003270D01*
X020627Y003270D02*
X020627Y003427D01*
X021139Y003427D01*
X021139Y003270D01*
X021611Y003270D02*
X021611Y003427D01*
X022123Y003427D01*
X022123Y003270D01*
X021182Y008878D02*
X021229Y008925D01*
X021229Y009018D01*
X021182Y009065D01*
X021182Y009173D02*
X021136Y009173D01*
X021089Y009220D01*
X021089Y009313D01*
X021136Y009360D01*
X021182Y009360D01*
X021229Y009313D01*
X021229Y009220D01*
X021182Y009173D01*
X021089Y009220D02*
X021042Y009173D01*
X020996Y009173D01*
X020949Y009220D01*
X020949Y009313D01*
X020996Y009360D01*
X021042Y009360D01*
X021089Y009313D01*
X020996Y009065D02*
X020949Y009018D01*
X020949Y008925D01*
X020996Y008878D01*
X021182Y008878D01*
X031007Y009368D02*
X031007Y005431D01*
X031362Y005431D01*
X031362Y009368D01*
X031716Y009368D01*
X031716Y005431D01*
X031362Y005431D01*
X031716Y005431D02*
X032818Y005431D01*
X032818Y009368D01*
X033527Y009368D01*
X033527Y009171D01*
X033369Y009171D01*
X033369Y008659D01*
X033527Y008659D01*
X033527Y005431D01*
X032818Y005431D01*
X033369Y005628D02*
X033527Y005628D01*
X033369Y005628D02*
X033369Y006140D01*
X033527Y006140D01*
X033527Y006651D02*
X033369Y006651D01*
X033369Y007163D01*
X033527Y007163D01*
X033527Y007636D02*
X033369Y007636D01*
X033369Y008147D01*
X033527Y008147D01*
X033527Y008659D02*
X033527Y009171D01*
X032818Y009368D02*
X031716Y009368D01*
X031362Y009368D02*
X031007Y009368D01*
X015336Y020395D02*
X010399Y020395D01*
X010399Y020749D01*
X015336Y020749D01*
X015336Y020395D01*
X015336Y020749D02*
X015336Y021104D01*
X010399Y021104D01*
X010399Y022206D01*
X015336Y022206D01*
X015336Y021104D01*
X015336Y022206D02*
X015336Y022915D01*
X011108Y022915D01*
X011108Y022757D01*
X010596Y022757D01*
X010596Y022915D01*
X011108Y022915D01*
X011619Y022915D02*
X011619Y022757D01*
X012131Y022757D01*
X012131Y022915D01*
X012604Y022915D02*
X012604Y022757D01*
X013115Y022757D01*
X013115Y022915D01*
X013627Y022915D02*
X013627Y022757D01*
X014139Y022757D01*
X014139Y022915D01*
X014604Y022915D02*
X014604Y022757D01*
X015115Y022757D01*
X015115Y022915D01*
X010596Y022915D02*
X010399Y022915D01*
X010399Y022206D01*
X009342Y022211D02*
X009342Y021108D01*
X004405Y021108D01*
X004405Y022211D01*
X009342Y022211D01*
X009342Y022919D01*
X005113Y022919D01*
X005113Y022762D01*
X004602Y022762D01*
X004602Y022919D01*
X005113Y022919D01*
X004602Y022919D02*
X004405Y022919D01*
X004405Y022211D01*
X004405Y021108D02*
X004405Y020754D01*
X009342Y020754D01*
X009342Y020400D01*
X004405Y020400D01*
X004405Y020754D01*
X005625Y022762D02*
X006137Y022762D01*
X006137Y022919D01*
X006609Y022919D02*
X006609Y022762D01*
X007121Y022762D01*
X007121Y022919D01*
X007633Y022919D02*
X007633Y022762D01*
X008145Y022762D01*
X008145Y022919D01*
X008609Y022919D02*
X008609Y022762D01*
X009121Y022762D01*
X009121Y022919D01*
X009342Y021108D02*
X009342Y020754D01*
X010399Y020749D02*
X010399Y021104D01*
X005625Y022762D02*
X005625Y022919D01*
X010864Y013111D02*
X011004Y013111D01*
X011051Y013064D01*
X011051Y012971D01*
X011004Y012924D01*
X010864Y012924D01*
X010864Y012831D02*
X010864Y013111D01*
X010958Y012924D02*
X011051Y012831D01*
X011159Y012877D02*
X011206Y012831D01*
X011299Y012831D01*
X011346Y012877D01*
X011346Y012924D01*
X011299Y012971D01*
X011252Y012971D01*
X011299Y012971D02*
X011346Y013018D01*
X011346Y013064D01*
X011299Y013111D01*
X011206Y013111D01*
X011159Y013064D01*
X010478Y011405D02*
X010384Y011405D01*
X010338Y011358D01*
X010230Y011358D02*
X010230Y011264D01*
X010183Y011218D01*
X010043Y011218D01*
X010136Y011218D02*
X010230Y011124D01*
X010338Y011124D02*
X010524Y011311D01*
X010524Y011358D01*
X010478Y011405D01*
X010230Y011358D02*
X010183Y011405D01*
X010043Y011405D01*
X010043Y011124D01*
X010338Y011124D02*
X010524Y011124D01*
D17*
X020654Y019758D03*
D18*
X020664Y019778D03*
D19*
X020654Y019798D03*
D20*
X022404Y020658D03*
X022424Y020718D03*
X022464Y020818D03*
X022484Y020878D03*
X022504Y020918D03*
X022524Y020978D03*
X022544Y021018D03*
X022544Y021038D03*
X022564Y021078D03*
X022564Y021098D03*
X022584Y021118D03*
X022584Y021138D03*
X022604Y021178D03*
X022604Y021198D03*
X022624Y021218D03*
X023544Y021218D03*
X023564Y021178D03*
X023584Y021118D03*
X018924Y021118D03*
X018924Y021098D03*
X018924Y021078D03*
X018924Y021058D03*
X018924Y021038D03*
X018924Y021018D03*
X018924Y020998D03*
X018924Y020978D03*
X018924Y020958D03*
X018924Y020938D03*
X018924Y020918D03*
X018924Y020898D03*
X018924Y020878D03*
X018924Y020858D03*
X018924Y020838D03*
X018924Y020818D03*
X018924Y020798D03*
X018924Y020778D03*
X018924Y020758D03*
X018924Y020738D03*
X018924Y020718D03*
X018924Y020698D03*
X018924Y020678D03*
X018924Y020658D03*
X018924Y020638D03*
X018924Y020618D03*
X018924Y020598D03*
X018924Y020578D03*
X018924Y020558D03*
X018924Y020538D03*
X018924Y020518D03*
X018924Y020498D03*
X018924Y020478D03*
X018924Y020458D03*
X018924Y020438D03*
X018924Y020418D03*
X018924Y020398D03*
X018924Y020378D03*
X018924Y020358D03*
X018924Y020338D03*
X018924Y020318D03*
X018924Y020298D03*
X018924Y020278D03*
X018924Y020258D03*
X018924Y020238D03*
X018924Y020218D03*
X018924Y020198D03*
X018924Y020178D03*
X018924Y020158D03*
X018924Y020138D03*
X018924Y020118D03*
X018924Y020098D03*
X018924Y020078D03*
X018924Y020058D03*
X018924Y020038D03*
X018924Y020018D03*
X018924Y019998D03*
X018924Y019978D03*
X018924Y019958D03*
X018924Y019938D03*
X018924Y019918D03*
X018924Y019898D03*
X018924Y019878D03*
X018924Y019858D03*
X018924Y019838D03*
X018924Y019818D03*
X018924Y021138D03*
X018924Y021158D03*
X018924Y021178D03*
X018924Y021198D03*
X018924Y021218D03*
X018924Y021238D03*
X018924Y021258D03*
X018924Y021278D03*
X018924Y021298D03*
X018924Y021318D03*
X018924Y021338D03*
X018924Y021358D03*
X018924Y021378D03*
X018924Y021398D03*
X018924Y021418D03*
X018924Y021438D03*
X018924Y021458D03*
X018924Y021478D03*
X018924Y021498D03*
X018924Y021518D03*
X018924Y021538D03*
X018924Y021558D03*
X018924Y021578D03*
X018924Y021598D03*
X018924Y021618D03*
X018924Y021638D03*
X018924Y021658D03*
X018924Y021678D03*
X018924Y021698D03*
X018924Y021718D03*
X018924Y021738D03*
X018924Y021758D03*
X018924Y021778D03*
X018924Y021798D03*
X018924Y021818D03*
X018924Y021838D03*
X018924Y021858D03*
X018924Y021878D03*
X018924Y021898D03*
X018924Y021918D03*
X018924Y021938D03*
X018924Y021958D03*
X018924Y021978D03*
X018924Y021998D03*
X018924Y022018D03*
X018924Y022038D03*
X018924Y022058D03*
X018924Y022078D03*
X018924Y022098D03*
X018924Y022118D03*
X018924Y022138D03*
X018924Y022158D03*
X018924Y022178D03*
X017984Y021218D03*
X017984Y021198D03*
X017984Y021178D03*
X017984Y021138D03*
X017984Y021118D03*
X017984Y021098D03*
X016664Y021098D03*
X016664Y021078D03*
X016664Y021058D03*
X016664Y021038D03*
X016664Y021018D03*
X016664Y021118D03*
X016664Y021138D03*
X016664Y021158D03*
X016664Y021178D03*
X016664Y021198D03*
X016664Y021218D03*
X016664Y021238D03*
X016664Y021258D03*
X016664Y021278D03*
X016664Y021298D03*
X016664Y021318D03*
X016664Y020158D03*
X016664Y020138D03*
X016664Y020118D03*
X016664Y020098D03*
X016664Y020078D03*
X016664Y020058D03*
X016664Y020038D03*
X016664Y020018D03*
X016664Y019998D03*
X016664Y019978D03*
X016664Y019958D03*
X016664Y019938D03*
X016664Y019918D03*
X016664Y019898D03*
X016664Y019878D03*
X016664Y019858D03*
X016664Y019838D03*
X016664Y019818D03*
D21*
X020654Y019818D03*
D22*
X020654Y020098D03*
X022474Y019838D03*
X022474Y019818D03*
X020654Y021918D03*
X025434Y022038D03*
D23*
X026364Y021138D03*
X026364Y021118D03*
X026364Y020898D03*
X026364Y020878D03*
X024024Y019978D03*
X024004Y020018D03*
X023984Y020078D03*
X023964Y020118D03*
X023964Y020138D03*
X023944Y020178D03*
X023944Y020198D03*
X023924Y020218D03*
X023924Y020238D03*
X023904Y020278D03*
X023904Y020298D03*
X023884Y020318D03*
X023884Y020338D03*
X023884Y020358D03*
X023864Y020378D03*
X023864Y020398D03*
X023844Y020438D03*
X023844Y020458D03*
X023824Y020478D03*
X023824Y020498D03*
X023804Y020538D03*
X023804Y020558D03*
X023784Y020598D03*
X023764Y020658D03*
X023744Y020698D03*
X023724Y020758D03*
X023684Y020858D03*
X024044Y019918D03*
X024084Y019818D03*
X021424Y020878D03*
X021424Y020898D03*
X019884Y020898D03*
X019884Y020878D03*
X019884Y020918D03*
X019884Y021098D03*
X019884Y021118D03*
X019884Y021138D03*
X017964Y021058D03*
X017964Y021278D03*
D24*
X022484Y020498D03*
X023084Y021998D03*
X025184Y019818D03*
D25*
X025574Y020198D03*
X025574Y020218D03*
X025574Y021798D03*
X027894Y021798D03*
X027894Y021778D03*
X027894Y021758D03*
X027894Y021738D03*
X027894Y021718D03*
X027894Y021698D03*
X027894Y021678D03*
X027894Y021658D03*
X027894Y021638D03*
X027894Y021618D03*
X027894Y021598D03*
X027894Y021578D03*
X027894Y021558D03*
X027894Y021538D03*
X027894Y021518D03*
X027894Y021498D03*
X027894Y021478D03*
X027894Y021298D03*
X027894Y021278D03*
X027894Y021258D03*
X027894Y021238D03*
X027894Y021218D03*
X027894Y021198D03*
X027894Y021178D03*
X027894Y021158D03*
X027894Y021138D03*
X027894Y021118D03*
X027894Y021098D03*
X027894Y021078D03*
X027894Y021058D03*
X027894Y021038D03*
X027894Y021018D03*
X027894Y020998D03*
X027894Y020978D03*
X027894Y020958D03*
X027894Y020938D03*
X027894Y020918D03*
X027894Y020898D03*
X027894Y020878D03*
X027894Y020858D03*
X027894Y020838D03*
X027894Y020818D03*
X027894Y020798D03*
X027894Y020778D03*
X027894Y020758D03*
X027894Y020738D03*
X027894Y020718D03*
X027894Y020698D03*
X027894Y020538D03*
X027894Y020518D03*
X027894Y020498D03*
X027894Y020478D03*
X027894Y020458D03*
X027894Y020438D03*
X027894Y020418D03*
X027894Y020398D03*
X027894Y020378D03*
X027894Y020358D03*
X027894Y020338D03*
X027894Y020318D03*
X027894Y020298D03*
X027894Y020278D03*
X027894Y020258D03*
X027894Y020238D03*
X027894Y020218D03*
X027894Y020198D03*
X027894Y020178D03*
X027894Y020158D03*
X027894Y020138D03*
X027894Y020118D03*
X027894Y020098D03*
X027894Y020078D03*
X027894Y020058D03*
X027894Y020038D03*
X027894Y020018D03*
X027894Y019998D03*
X027894Y019978D03*
X027894Y019958D03*
X027894Y019938D03*
X027894Y019918D03*
X027894Y019898D03*
X027894Y019878D03*
X027894Y019858D03*
X027894Y019838D03*
X027894Y019818D03*
X027894Y021818D03*
X027894Y021838D03*
X027894Y021858D03*
X027894Y021878D03*
X027894Y021898D03*
X027894Y021918D03*
X027894Y021938D03*
X027894Y021958D03*
X027894Y021978D03*
X027894Y021998D03*
X027894Y022018D03*
X027894Y022038D03*
X027894Y022058D03*
X027894Y022078D03*
X027894Y022098D03*
X027894Y022118D03*
X027894Y022138D03*
X027894Y022158D03*
X027894Y022178D03*
X020654Y021758D03*
X020654Y020258D03*
X017214Y020518D03*
X017214Y021798D03*
X017214Y021818D03*
D26*
X017974Y021258D03*
X017974Y021238D03*
X017974Y021078D03*
X019874Y021078D03*
X019874Y021058D03*
X019874Y021038D03*
X019874Y021018D03*
X019874Y020998D03*
X019874Y020978D03*
X019874Y020958D03*
X019874Y020938D03*
X020654Y019838D03*
X021434Y020918D03*
X021434Y020938D03*
X022394Y020638D03*
X022394Y020618D03*
X022414Y020678D03*
X022414Y020698D03*
X022434Y020738D03*
X022434Y020758D03*
X022454Y020778D03*
X022454Y020798D03*
X022474Y020838D03*
X022474Y020858D03*
X022494Y020898D03*
X022514Y020938D03*
X022514Y020958D03*
X022534Y020998D03*
X022554Y021058D03*
X022594Y021158D03*
X023554Y021198D03*
X023574Y021158D03*
X023574Y021138D03*
X023594Y021098D03*
X023594Y021078D03*
X023614Y021058D03*
X023614Y021038D03*
X023614Y021018D03*
X023634Y020998D03*
X023634Y020978D03*
X023654Y020958D03*
X023654Y020938D03*
X023654Y020918D03*
X023674Y020898D03*
X023674Y020878D03*
X023694Y020838D03*
X023694Y020818D03*
X023714Y020798D03*
X023714Y020778D03*
X023734Y020738D03*
X023734Y020718D03*
X023754Y020678D03*
X023774Y020638D03*
X023774Y020618D03*
X023794Y020578D03*
X023814Y020518D03*
X023854Y020418D03*
X026374Y020918D03*
X026374Y020938D03*
X026374Y020958D03*
X026374Y020978D03*
X026374Y020998D03*
X026374Y021018D03*
X026374Y021038D03*
X026374Y021058D03*
X026374Y021078D03*
X026374Y021098D03*
D27*
X026354Y021158D03*
X026354Y021178D03*
X026354Y020858D03*
X026354Y020838D03*
X024034Y019958D03*
X024034Y019938D03*
X024054Y019898D03*
X024054Y019878D03*
X024074Y019858D03*
X024074Y019838D03*
X024014Y019998D03*
X023994Y020038D03*
X023994Y020058D03*
X023974Y020098D03*
X023954Y020158D03*
X023914Y020258D03*
X021414Y020838D03*
X021414Y020858D03*
X020654Y022158D03*
X019894Y021158D03*
X019894Y020858D03*
X019894Y020838D03*
X017954Y021038D03*
D28*
X020664Y019958D03*
X022484Y020278D03*
X022484Y020298D03*
X023084Y021798D03*
X025264Y019838D03*
D29*
X026314Y020778D03*
X026334Y020798D03*
X021394Y020798D03*
X021394Y021218D03*
X021374Y021238D03*
X019934Y021238D03*
X019914Y020798D03*
X019934Y020778D03*
X020654Y019858D03*
X017934Y021018D03*
D30*
X017064Y020278D03*
X017064Y022058D03*
X022484Y019878D03*
X022484Y019858D03*
X023084Y021378D03*
X023084Y021398D03*
X025424Y019958D03*
D31*
X025304Y019858D03*
X023084Y021678D03*
X023084Y021698D03*
X022484Y020178D03*
X022484Y020158D03*
X020664Y022018D03*
X016944Y020198D03*
D32*
X020664Y019878D03*
X023084Y022138D03*
X023084Y022158D03*
D33*
X023074Y021618D03*
X022494Y020098D03*
X020654Y021998D03*
X016974Y022138D03*
X025334Y019878D03*
D34*
X022484Y020538D03*
X023084Y022038D03*
X023084Y022058D03*
X020664Y019898D03*
D35*
X022484Y019898D03*
X022484Y019918D03*
X023084Y021438D03*
X023084Y021458D03*
X020664Y021938D03*
X017044Y022078D03*
X025404Y019938D03*
D36*
X025364Y019898D03*
X023084Y021538D03*
X023084Y021558D03*
X022484Y020038D03*
X022484Y020018D03*
X022484Y019998D03*
X017004Y022118D03*
D37*
X020654Y019918D03*
X022494Y020458D03*
X022494Y020478D03*
X023074Y021978D03*
D38*
X023084Y021498D03*
X023084Y021478D03*
X022484Y019978D03*
X022484Y019958D03*
X020664Y021958D03*
X017024Y022098D03*
X025384Y019918D03*
D39*
X023074Y021878D03*
X022494Y020358D03*
X020654Y019938D03*
X016874Y022178D03*
D40*
X017034Y020258D03*
X020654Y020058D03*
X022474Y019938D03*
X025394Y022078D03*
D41*
X023074Y021718D03*
X022494Y020198D03*
X020654Y019978D03*
X016934Y022158D03*
D42*
X017084Y022038D03*
X017084Y020298D03*
X023084Y021338D03*
X023084Y021358D03*
X025444Y022018D03*
X025444Y019978D03*
D43*
X023084Y021638D03*
X023084Y021658D03*
X022484Y020138D03*
X022484Y020118D03*
X020664Y019998D03*
D44*
X023084Y021278D03*
X023084Y021298D03*
X025464Y021998D03*
X025464Y019998D03*
D45*
X020654Y020018D03*
X020654Y021978D03*
D46*
X020654Y021878D03*
X020654Y020138D03*
X017114Y020338D03*
X017114Y021998D03*
X025474Y021978D03*
X025474Y020018D03*
D47*
X025374Y022098D03*
X023074Y021518D03*
X020654Y020038D03*
X017014Y020238D03*
D48*
X017124Y021978D03*
X023084Y021258D03*
X023084Y021238D03*
X025484Y020038D03*
D49*
X025344Y022118D03*
X023084Y021598D03*
X023084Y021578D03*
X022484Y020078D03*
X022484Y020058D03*
X016984Y020218D03*
D50*
X017144Y020378D03*
X017144Y021958D03*
X020664Y021838D03*
X025504Y021938D03*
X025504Y020058D03*
D51*
X025414Y022058D03*
X023074Y021418D03*
X020654Y020078D03*
D52*
X020654Y020178D03*
X017154Y020398D03*
X017154Y021938D03*
X025514Y021918D03*
X025514Y020078D03*
D53*
X025524Y020098D03*
X025524Y021898D03*
X020664Y021818D03*
X017164Y021918D03*
X017164Y020418D03*
D54*
X017094Y020318D03*
X017094Y022018D03*
X020654Y021898D03*
X020654Y020118D03*
X023074Y021318D03*
D55*
X020654Y021798D03*
X020654Y020198D03*
X017174Y020438D03*
X017174Y021898D03*
X025534Y021878D03*
X025534Y020118D03*
D56*
X025544Y020138D03*
X025544Y021858D03*
X017184Y021878D03*
D57*
X017134Y020358D03*
X020654Y020158D03*
X020654Y021858D03*
X025494Y021958D03*
D58*
X025554Y021838D03*
X025554Y020158D03*
X020654Y020218D03*
X020654Y021778D03*
X017194Y021858D03*
X017194Y020478D03*
X017194Y020458D03*
D59*
X016884Y020178D03*
X020664Y022058D03*
X022484Y020338D03*
X023084Y021838D03*
X023084Y021858D03*
D60*
X020664Y020238D03*
X017204Y020498D03*
X017204Y021838D03*
X025564Y021818D03*
X025564Y020178D03*
D61*
X023084Y021738D03*
X023084Y021758D03*
X022484Y020238D03*
X022484Y020218D03*
D62*
X025584Y020238D03*
X025584Y021758D03*
X025584Y021778D03*
X017224Y021778D03*
X017224Y020538D03*
D63*
X020654Y022038D03*
X022494Y020258D03*
X023074Y021778D03*
X025274Y022158D03*
D64*
X025594Y021738D03*
X025594Y020258D03*
X020654Y020278D03*
X020654Y021738D03*
X017234Y021738D03*
X017234Y021758D03*
X017234Y020558D03*
D65*
X017244Y020578D03*
X017244Y020598D03*
X017244Y021718D03*
X020664Y021718D03*
X025604Y021718D03*
X025604Y021698D03*
X025604Y020298D03*
X025604Y020278D03*
D66*
X025614Y020318D03*
X025614Y021678D03*
X020654Y021698D03*
X020654Y020298D03*
X017254Y020618D03*
X017254Y020638D03*
X017254Y021678D03*
X017254Y021698D03*
D67*
X017264Y021658D03*
X017264Y021638D03*
X017264Y020658D03*
X020664Y020318D03*
X025624Y020338D03*
X025624Y020358D03*
X025624Y021638D03*
X025624Y021658D03*
D68*
X023074Y021818D03*
X022494Y020318D03*
D69*
X020654Y020338D03*
X020654Y021658D03*
X020654Y021678D03*
X017274Y021618D03*
X017274Y021598D03*
X017274Y020698D03*
X017274Y020678D03*
X025634Y020398D03*
X025634Y020378D03*
X025634Y021598D03*
X025634Y021618D03*
D70*
X025654Y021538D03*
X025654Y021518D03*
X025654Y020498D03*
X025654Y020478D03*
X025654Y020458D03*
X020654Y020378D03*
X020654Y020358D03*
X020654Y021638D03*
X017294Y021538D03*
X017294Y021518D03*
X017294Y021498D03*
X017294Y020798D03*
X017294Y020778D03*
D71*
X022484Y020398D03*
X022484Y020378D03*
X023084Y021898D03*
D72*
X020654Y021598D03*
X020654Y020418D03*
X020654Y020398D03*
X017314Y020898D03*
X017314Y020918D03*
X017314Y020938D03*
X017314Y020958D03*
X017314Y020978D03*
X017314Y021338D03*
X017314Y021358D03*
X017314Y021378D03*
X017314Y021398D03*
X025674Y021398D03*
X025674Y021418D03*
X025674Y021438D03*
X025674Y020598D03*
X025674Y020578D03*
X025674Y020558D03*
D73*
X025214Y022178D03*
X023074Y021918D03*
X022494Y020418D03*
X020654Y022078D03*
D74*
X017284Y021578D03*
X017284Y021558D03*
X017284Y020758D03*
X017284Y020738D03*
X017284Y020718D03*
X025644Y020438D03*
X025644Y020418D03*
X025644Y021558D03*
X025644Y021578D03*
D75*
X025694Y021298D03*
X025694Y021278D03*
X025694Y020738D03*
X025694Y020718D03*
X025694Y020698D03*
X020654Y020458D03*
X020654Y020438D03*
X020654Y021558D03*
D76*
X022484Y020438D03*
X023084Y021938D03*
X023084Y021958D03*
D77*
X020654Y021518D03*
X020654Y020498D03*
X020654Y020478D03*
D78*
X020654Y020518D03*
X020654Y020538D03*
X020654Y021458D03*
X020654Y021478D03*
D79*
X020654Y022098D03*
X022494Y020518D03*
X023074Y022018D03*
D80*
X020664Y021618D03*
X017304Y021478D03*
X017304Y021458D03*
X017304Y021438D03*
X017304Y021418D03*
X017304Y020878D03*
X017304Y020858D03*
X017304Y020838D03*
X017304Y020818D03*
X025664Y020538D03*
X025664Y020518D03*
X025664Y021458D03*
X025664Y021478D03*
X025664Y021498D03*
D81*
X020664Y021438D03*
X020664Y020558D03*
D82*
X022494Y020558D03*
X022494Y020578D03*
X023074Y022078D03*
D83*
X020664Y022178D03*
X027324Y021458D03*
X027324Y021438D03*
X027324Y021418D03*
X027324Y021398D03*
X027324Y021378D03*
X027324Y021358D03*
X027324Y021338D03*
X027324Y021318D03*
X027324Y020678D03*
X027324Y020658D03*
X027324Y020638D03*
X027324Y020618D03*
X027324Y020598D03*
X027324Y020578D03*
X027324Y020558D03*
D84*
X020654Y020578D03*
X020654Y020598D03*
X020654Y021398D03*
X020654Y021418D03*
D85*
X021304Y021318D03*
X020664Y022118D03*
X022484Y020598D03*
X023084Y022098D03*
D86*
X020664Y020618D03*
D87*
X020664Y021578D03*
X017324Y020998D03*
X025684Y020678D03*
X025684Y020658D03*
X025684Y020638D03*
X025684Y020618D03*
X025684Y021318D03*
X025684Y021338D03*
X025684Y021358D03*
X025684Y021378D03*
D88*
X020654Y021378D03*
X020654Y021358D03*
X020654Y021338D03*
X020654Y020658D03*
X020654Y020638D03*
D89*
X020664Y020678D03*
D90*
X021314Y020698D03*
X019994Y020698D03*
X020014Y021318D03*
X023074Y022118D03*
D91*
X023074Y022178D03*
X021334Y021298D03*
X021334Y020718D03*
X019974Y020718D03*
X019974Y021298D03*
D92*
X019954Y021278D03*
X019954Y020738D03*
X021354Y020738D03*
X021354Y021278D03*
X020654Y022138D03*
X026294Y020758D03*
D93*
X026304Y021238D03*
X021364Y021258D03*
X021384Y020778D03*
X021364Y020758D03*
X019944Y020758D03*
X019944Y021258D03*
X017904Y021318D03*
D94*
X017994Y021158D03*
X025014Y021158D03*
X025014Y021138D03*
X025014Y021118D03*
X025014Y021098D03*
X025014Y021078D03*
X025014Y021058D03*
X025014Y021038D03*
X025014Y021018D03*
X025014Y020998D03*
X025014Y020978D03*
X025014Y020958D03*
X025014Y020938D03*
X025014Y020918D03*
X025014Y020898D03*
X025014Y020878D03*
X025014Y020858D03*
X025014Y020838D03*
X025014Y020818D03*
X025014Y020798D03*
X025014Y020778D03*
X025014Y020758D03*
X025014Y021178D03*
X025014Y021198D03*
X025014Y021218D03*
X025014Y021238D03*
X025014Y021258D03*
D95*
X026324Y021218D03*
X026344Y021198D03*
X026344Y020818D03*
X021404Y020818D03*
X021404Y021198D03*
X019924Y021218D03*
X019904Y021198D03*
X019904Y021178D03*
X019904Y020818D03*
X017944Y021298D03*
D96*
X026284Y021258D03*
D97*
X020664Y021498D03*
D98*
X020664Y021538D03*
D99*
X025314Y022138D03*
D100*
X020654Y022198D03*
D101*
X020664Y022218D03*
D102*
X020654Y022238D03*
D103*
X018100Y019498D02*
X017956Y019498D01*
X017884Y019427D01*
X017884Y019140D01*
X018171Y019427D01*
X018171Y019140D01*
X018100Y019068D01*
X017956Y019068D01*
X017884Y019140D01*
X017711Y019140D02*
X017639Y019068D01*
X017496Y019068D01*
X017424Y019140D01*
X017711Y019427D01*
X017711Y019140D01*
X017711Y019427D02*
X017639Y019498D01*
X017496Y019498D01*
X017424Y019427D01*
X017424Y019140D01*
X017265Y019140D02*
X017265Y019068D01*
X017194Y019068D01*
X017194Y019140D01*
X017265Y019140D01*
X017020Y019068D02*
X016733Y019068D01*
X017020Y019355D01*
X017020Y019427D01*
X016949Y019498D01*
X016805Y019498D01*
X016733Y019427D01*
X016560Y019355D02*
X016416Y019068D01*
X016273Y019355D01*
X018100Y019498D02*
X018171Y019427D01*
X030326Y009250D02*
X030613Y009250D01*
X030469Y009107D02*
X030469Y009394D01*
X030469Y008933D02*
X030541Y008862D01*
X030541Y008646D01*
X030684Y008646D02*
X030254Y008646D01*
X030254Y008862D01*
X030326Y008933D01*
X030469Y008933D01*
X030541Y008790D02*
X030684Y008933D01*
X030473Y008366D02*
X030473Y008079D01*
X030473Y007906D02*
X030545Y007834D01*
X030545Y007619D01*
X030688Y007619D02*
X030258Y007619D01*
X030258Y007834D01*
X030330Y007906D01*
X030473Y007906D01*
X030545Y007762D02*
X030688Y007906D01*
X030457Y007339D02*
X030457Y007052D01*
X030672Y006878D02*
X030672Y006591D01*
X030242Y006591D01*
X030465Y006240D02*
X030465Y005953D01*
X030322Y006097D02*
X030609Y006097D01*
X030680Y005780D02*
X030680Y005493D01*
X030250Y005493D01*
D104*
X008155Y018674D02*
X007980Y018674D01*
X007980Y018867D01*
X007756Y018869D01*
X007760Y018869D02*
X007760Y018682D01*
X007728Y018674D01*
X007592Y018674D01*
X007871Y018442D01*
X008155Y018674D01*
X007023Y018688D02*
X006748Y018688D01*
X006748Y018745D02*
X007023Y018745D01*
X007023Y018751D02*
X006905Y018751D01*
X006748Y018909D01*
X006748Y018397D01*
X006905Y018554D01*
X007023Y018554D01*
X007023Y018751D01*
X007023Y018630D02*
X006748Y018630D01*
X006748Y018573D02*
X007023Y018573D01*
X006866Y018515D02*
X006748Y018515D01*
X006748Y018458D02*
X006808Y018458D01*
X006751Y018400D02*
X006748Y018400D01*
X006630Y018594D02*
X006619Y018606D01*
X006611Y018621D01*
X006607Y018637D01*
X006605Y018653D01*
X006607Y018669D01*
X006611Y018685D01*
X006619Y018700D01*
X006630Y018712D01*
X006748Y018803D02*
X006853Y018803D01*
X006796Y018861D02*
X006748Y018861D01*
X006149Y018743D02*
X006149Y018547D01*
X006008Y018547D01*
X005850Y018389D01*
X005850Y018901D01*
X006008Y018743D01*
X006149Y018743D01*
X006149Y018688D02*
X005850Y018688D01*
X005622Y018861D02*
X005599Y018836D01*
X005579Y018808D01*
X005562Y018778D01*
X005549Y018746D01*
X005540Y018713D01*
X005534Y018679D01*
X005532Y018645D01*
X005534Y018611D01*
X005540Y018577D01*
X005549Y018544D01*
X005562Y018512D01*
X005579Y018482D01*
X005599Y018454D01*
X005622Y018429D01*
X005850Y018458D02*
X005919Y018458D01*
X005976Y018515D02*
X005850Y018515D01*
X005850Y018573D02*
X006149Y018573D01*
X006149Y018630D02*
X005850Y018630D01*
X005677Y018507D02*
X005659Y018528D01*
X005644Y018552D01*
X005632Y018577D01*
X005624Y018604D01*
X005620Y018631D01*
X005620Y018659D01*
X005624Y018686D01*
X005632Y018713D01*
X005644Y018738D01*
X005659Y018762D01*
X005677Y018783D01*
X005850Y018803D02*
X005948Y018803D01*
X006005Y018745D02*
X005850Y018745D01*
X005850Y018861D02*
X005890Y018861D01*
X005732Y018704D02*
X005721Y018692D01*
X005713Y018677D01*
X005709Y018661D01*
X005707Y018645D01*
X005709Y018629D01*
X005713Y018613D01*
X005721Y018598D01*
X005732Y018586D01*
X005850Y018400D02*
X005861Y018400D01*
X005102Y018539D02*
X004984Y018539D01*
X004826Y018381D01*
X004826Y018893D01*
X004984Y018736D01*
X005102Y018736D01*
X005102Y018539D01*
X005102Y018573D02*
X004826Y018573D01*
X004826Y018630D02*
X005102Y018630D01*
X005102Y018688D02*
X004826Y018688D01*
X004826Y018745D02*
X004974Y018745D01*
X004916Y018803D02*
X004826Y018803D01*
X004826Y018861D02*
X004859Y018861D01*
X004708Y018736D02*
X004511Y018539D01*
X004511Y018736D02*
X004708Y018539D01*
X004826Y018515D02*
X004961Y018515D01*
X004903Y018458D02*
X004826Y018458D01*
X004826Y018400D02*
X004845Y018400D01*
D105*
X017861Y027640D02*
X017969Y027532D01*
X018186Y027532D01*
X018294Y027640D01*
X018294Y028183D01*
X018561Y028183D02*
X018561Y027532D01*
X018561Y027749D02*
X018994Y028183D01*
X019260Y027966D02*
X019369Y028074D01*
X019369Y028291D01*
X019719Y027966D02*
X020044Y027966D01*
X019936Y027749D02*
X019719Y027749D01*
X019610Y027857D01*
X019719Y027966D01*
X019936Y027749D02*
X020044Y027640D01*
X019936Y027532D01*
X019610Y027532D01*
X018994Y027532D02*
X018669Y027857D01*
X017861Y027640D02*
X017861Y028183D01*
X017861Y029812D02*
X018186Y029812D01*
X018294Y029920D01*
X018294Y030137D01*
X018186Y030246D01*
X017861Y030246D01*
X017861Y030463D02*
X017861Y029812D01*
X018561Y029920D02*
X018561Y030246D01*
X018561Y029920D02*
X018669Y029812D01*
X018994Y029812D01*
X018994Y030246D01*
X019260Y030246D02*
X019369Y030246D01*
X019369Y029812D01*
X019477Y029812D02*
X019260Y029812D01*
X019727Y029812D02*
X019944Y029812D01*
X019835Y029812D02*
X019835Y030463D01*
X019727Y030463D01*
X019369Y030463D02*
X019369Y030571D01*
X019369Y030952D02*
X019260Y031060D01*
X019369Y031169D01*
X019694Y031169D01*
X019694Y031277D02*
X019694Y030952D01*
X019369Y030952D01*
X018994Y031060D02*
X018994Y031277D01*
X018886Y031386D01*
X018669Y031386D01*
X018561Y031277D01*
X018561Y031060D01*
X018669Y030952D01*
X018886Y030952D01*
X018994Y031060D01*
X019369Y031386D02*
X019586Y031386D01*
X019694Y031277D01*
X019960Y031169D02*
X020177Y031386D01*
X020285Y031386D01*
X020543Y031277D02*
X020652Y031386D01*
X020977Y031386D01*
X020977Y031603D02*
X020977Y030952D01*
X020652Y030952D01*
X020543Y031060D01*
X020543Y031277D01*
X019960Y031386D02*
X019960Y030952D01*
X020302Y030246D02*
X020627Y030246D01*
X020627Y030463D02*
X020627Y029812D01*
X020302Y029812D01*
X020193Y029920D01*
X020193Y030137D01*
X020302Y030246D01*
X020893Y030246D02*
X021002Y030246D01*
X021002Y029812D01*
X021110Y029812D02*
X020893Y029812D01*
X021360Y029812D02*
X021360Y030246D01*
X021685Y030246D01*
X021793Y030137D01*
X021793Y029812D01*
X022060Y029920D02*
X022168Y029812D01*
X022493Y029812D01*
X022493Y029704D02*
X022493Y030246D01*
X022168Y030246D01*
X022060Y030137D01*
X022060Y029920D01*
X022276Y029595D02*
X022385Y029595D01*
X022493Y029704D01*
X023459Y029920D02*
X023568Y030029D01*
X023893Y030029D01*
X023893Y030137D02*
X023893Y029812D01*
X023568Y029812D01*
X023459Y029920D01*
X023568Y030246D02*
X023784Y030246D01*
X023893Y030137D01*
X024159Y030029D02*
X024376Y030246D01*
X024484Y030246D01*
X024742Y030137D02*
X024742Y029920D01*
X024851Y029812D01*
X025176Y029812D01*
X025442Y029920D02*
X025550Y030029D01*
X025876Y030029D01*
X025876Y030137D02*
X025876Y029812D01*
X025550Y029812D01*
X025442Y029920D01*
X025550Y030246D02*
X025767Y030246D01*
X025876Y030137D01*
X026142Y030137D02*
X026250Y030246D01*
X026575Y030246D01*
X026575Y030463D02*
X026575Y029812D01*
X026250Y029812D01*
X026142Y029920D01*
X026142Y030137D01*
X026841Y030137D02*
X026950Y030246D01*
X027167Y030246D01*
X027275Y030137D01*
X027275Y030029D01*
X026841Y030029D01*
X026841Y030137D02*
X026841Y029920D01*
X026950Y029812D01*
X027167Y029812D01*
X028241Y029920D02*
X028350Y029812D01*
X028675Y029812D01*
X028941Y029920D02*
X029049Y030029D01*
X029375Y030029D01*
X029375Y030137D02*
X029375Y029812D01*
X029049Y029812D01*
X028941Y029920D01*
X029049Y030246D02*
X029266Y030246D01*
X029375Y030137D01*
X029641Y030246D02*
X029966Y030246D01*
X030074Y030137D01*
X030074Y029920D01*
X029966Y029812D01*
X029641Y029812D01*
X029641Y030463D01*
X029174Y030952D02*
X029174Y031386D01*
X029391Y031386D02*
X029499Y031386D01*
X029391Y031386D02*
X029174Y031169D01*
X028908Y031060D02*
X028908Y031277D01*
X028800Y031386D01*
X028583Y031386D01*
X028474Y031277D01*
X028474Y031060D01*
X028583Y030952D01*
X028800Y030952D01*
X028908Y031060D01*
X028225Y031277D02*
X028008Y031277D01*
X028116Y031494D02*
X028116Y030952D01*
X028116Y031494D02*
X028225Y031603D01*
X028116Y032092D02*
X028008Y032200D01*
X028116Y032309D01*
X028442Y032309D01*
X028442Y032417D02*
X028442Y032092D01*
X028116Y032092D01*
X027742Y032200D02*
X027633Y032092D01*
X027308Y032092D01*
X027308Y031875D02*
X027308Y032526D01*
X027633Y032526D01*
X027742Y032417D01*
X027742Y032200D01*
X028116Y032526D02*
X028333Y032526D01*
X028442Y032417D01*
X028708Y032526D02*
X028924Y032526D01*
X028816Y032634D02*
X028816Y032200D01*
X028924Y032092D01*
X029174Y032092D02*
X029391Y032092D01*
X029283Y032092D02*
X029283Y032526D01*
X029174Y032526D01*
X029283Y032743D02*
X029283Y032851D01*
X029641Y032743D02*
X029641Y032092D01*
X029966Y032092D01*
X030074Y032200D01*
X030074Y032417D01*
X029966Y032526D01*
X029641Y032526D01*
X030340Y032743D02*
X030449Y032743D01*
X030449Y032092D01*
X030557Y032092D02*
X030340Y032092D01*
X030807Y032200D02*
X030807Y032417D01*
X030915Y032526D01*
X031132Y032526D01*
X031241Y032417D01*
X031241Y032309D01*
X030807Y032309D01*
X030807Y032200D02*
X030915Y032092D01*
X031132Y032092D01*
X030449Y030571D02*
X030449Y030463D01*
X030449Y030246D02*
X030449Y029812D01*
X030557Y029812D02*
X030340Y029812D01*
X030807Y029812D02*
X030807Y030246D01*
X031132Y030246D01*
X031241Y030137D01*
X031241Y029812D01*
X031507Y029920D02*
X031507Y030137D01*
X031615Y030246D01*
X031832Y030246D01*
X031940Y030137D01*
X031940Y030029D01*
X031507Y030029D01*
X031507Y029920D02*
X031615Y029812D01*
X031832Y029812D01*
X032315Y029920D02*
X032423Y029812D01*
X032315Y029920D02*
X032315Y030354D01*
X032207Y030246D02*
X032423Y030246D01*
X032673Y030137D02*
X032782Y030246D01*
X033107Y030246D01*
X032998Y030029D02*
X032782Y030029D01*
X032673Y030137D01*
X032673Y029812D02*
X032998Y029812D01*
X033107Y029920D01*
X032998Y030029D01*
X033373Y029920D02*
X033373Y029812D01*
X033481Y029812D01*
X033481Y029920D01*
X033373Y029920D01*
X031040Y028291D02*
X031040Y027857D01*
X031040Y027640D02*
X031040Y027532D01*
X030782Y027966D02*
X030674Y027966D01*
X030457Y027749D01*
X030457Y027532D02*
X030457Y027966D01*
X030191Y027857D02*
X030191Y027749D01*
X029757Y027749D01*
X029757Y027857D02*
X029757Y027640D01*
X029866Y027532D01*
X030083Y027532D01*
X030191Y027857D02*
X030083Y027966D01*
X029866Y027966D01*
X029757Y027857D01*
X029508Y027966D02*
X029291Y027966D01*
X029399Y028074D02*
X029399Y027640D01*
X029508Y027532D01*
X029033Y027966D02*
X028924Y027966D01*
X028708Y027749D01*
X028708Y027532D02*
X028708Y027966D01*
X028442Y027857D02*
X028442Y027532D01*
X028116Y027532D01*
X028008Y027640D01*
X028116Y027749D01*
X028442Y027749D01*
X028442Y027857D02*
X028333Y027966D01*
X028116Y027966D01*
X027758Y027966D02*
X027541Y027966D01*
X027650Y028074D02*
X027650Y027640D01*
X027758Y027532D01*
X027275Y027640D02*
X027167Y027749D01*
X026950Y027749D01*
X026841Y027857D01*
X026950Y027966D01*
X027275Y027966D01*
X027275Y027640D02*
X027167Y027532D01*
X026841Y027532D01*
X026584Y027532D02*
X026258Y027749D01*
X026584Y027966D01*
X026258Y028183D02*
X026258Y027532D01*
X025992Y027532D02*
X025667Y027532D01*
X025559Y027640D01*
X025559Y027857D01*
X025667Y027966D01*
X025992Y027966D01*
X025200Y027966D02*
X025200Y027532D01*
X025092Y027532D02*
X025309Y027532D01*
X025200Y027966D02*
X025092Y027966D01*
X025200Y028183D02*
X025200Y028291D01*
X024826Y028183D02*
X024392Y027749D01*
X024501Y027857D02*
X024826Y027532D01*
X024392Y027532D02*
X024392Y028183D01*
X023443Y027966D02*
X023226Y027966D01*
X023334Y028074D02*
X023334Y027640D01*
X023443Y027532D01*
X022960Y027640D02*
X022851Y027749D01*
X022634Y027749D01*
X022526Y027857D01*
X022634Y027966D01*
X022960Y027966D01*
X022960Y027640D02*
X022851Y027532D01*
X022526Y027532D01*
X022268Y027966D02*
X022160Y027966D01*
X021943Y027749D01*
X021943Y027532D02*
X021943Y027966D01*
X021585Y027966D02*
X021585Y027532D01*
X021693Y027532D02*
X021476Y027532D01*
X021118Y027532D02*
X021118Y028074D01*
X021227Y028183D01*
X021227Y027857D02*
X021010Y027857D01*
X021476Y027966D02*
X021585Y027966D01*
X021585Y028183D02*
X021585Y028291D01*
X021002Y030463D02*
X021002Y030571D01*
X021943Y031060D02*
X021943Y031277D01*
X022051Y031386D01*
X022377Y031386D01*
X022377Y031603D02*
X022377Y030952D01*
X022051Y030952D01*
X021943Y031060D01*
X022643Y031060D02*
X022643Y031277D01*
X022751Y031386D01*
X022968Y031386D01*
X023076Y031277D01*
X023076Y031169D01*
X022643Y031169D01*
X022643Y031060D02*
X022751Y030952D01*
X022968Y030952D01*
X023342Y030952D02*
X023668Y030952D01*
X023776Y031060D01*
X023668Y031169D01*
X023451Y031169D01*
X023342Y031277D01*
X023451Y031386D01*
X023776Y031386D01*
X024042Y031386D02*
X024151Y031386D01*
X024151Y030952D01*
X024259Y030952D02*
X024042Y030952D01*
X024509Y031060D02*
X024509Y031277D01*
X024617Y031386D01*
X024943Y031386D01*
X024943Y030844D01*
X024834Y030735D01*
X024726Y030735D01*
X024617Y030952D02*
X024943Y030952D01*
X025209Y030952D02*
X025209Y031386D01*
X025534Y031386D01*
X025642Y031277D01*
X025642Y030952D01*
X025908Y031060D02*
X025908Y031277D01*
X026017Y031386D01*
X026234Y031386D01*
X026342Y031277D01*
X026342Y031169D01*
X025908Y031169D01*
X025908Y031060D02*
X026017Y030952D01*
X026234Y030952D01*
X026608Y031060D02*
X026608Y031277D01*
X026717Y031386D01*
X027042Y031386D01*
X027042Y031603D02*
X027042Y030952D01*
X026717Y030952D01*
X026608Y031060D01*
X026608Y032092D02*
X026608Y032526D01*
X026717Y032526D01*
X026825Y032417D01*
X026933Y032526D01*
X027042Y032417D01*
X027042Y032092D01*
X026825Y032092D02*
X026825Y032417D01*
X026342Y032417D02*
X026234Y032526D01*
X026017Y032526D01*
X025908Y032417D01*
X025908Y032200D01*
X026017Y032092D01*
X026234Y032092D01*
X026342Y032200D01*
X026342Y032417D01*
X025642Y032526D02*
X025317Y032526D01*
X025209Y032417D01*
X025209Y032200D01*
X025317Y032092D01*
X025642Y032092D01*
X024509Y031060D02*
X024617Y030952D01*
X024851Y030246D02*
X024742Y030137D01*
X024851Y030246D02*
X025176Y030246D01*
X024159Y030246D02*
X024159Y029812D01*
X024151Y031603D02*
X024151Y031711D01*
X024134Y032092D02*
X024243Y032200D01*
X024243Y032417D01*
X024134Y032526D01*
X023917Y032526D01*
X023809Y032417D01*
X023809Y032200D01*
X023917Y032092D01*
X024134Y032092D01*
X023543Y032092D02*
X023543Y032417D01*
X023435Y032526D01*
X023109Y032526D01*
X023109Y032092D01*
X022860Y032092D02*
X022643Y032092D01*
X022751Y032092D02*
X022751Y032526D01*
X022643Y032526D01*
X022751Y032743D02*
X022751Y032851D01*
X022377Y032526D02*
X022377Y032092D01*
X022051Y032092D01*
X021943Y032200D01*
X021943Y032526D01*
X021677Y032526D02*
X021352Y032526D01*
X021243Y032417D01*
X021243Y032200D01*
X021352Y032092D01*
X021677Y032092D01*
X021677Y032743D01*
X020985Y032526D02*
X020877Y032526D01*
X020660Y032309D01*
X020660Y032092D02*
X020660Y032526D01*
X020394Y032526D02*
X020394Y032092D01*
X020394Y032417D02*
X019960Y032417D01*
X019960Y032526D02*
X019960Y032092D01*
X019960Y032526D02*
X020177Y032743D01*
X020394Y032526D01*
X018994Y032417D02*
X018994Y032092D01*
X018994Y032417D02*
X018886Y032526D01*
X018561Y032526D01*
X018561Y032092D01*
X018294Y032092D02*
X018294Y032526D01*
X018078Y032743D01*
X017861Y032526D01*
X017861Y032092D01*
X017861Y032417D02*
X018294Y032417D01*
X017861Y031603D02*
X017861Y030952D01*
X018186Y030952D01*
X018294Y031060D01*
X018294Y031277D01*
X018186Y031386D01*
X017861Y031386D01*
X028241Y030137D02*
X028241Y029920D01*
X028241Y030137D02*
X028350Y030246D01*
X028675Y030246D01*
X030340Y030246D02*
X030449Y030246D01*
D106*
X030487Y016128D03*
X029300Y016045D03*
X031655Y016130D03*
X032887Y016048D03*
D107*
X026104Y017116D02*
X026104Y014951D01*
X026103Y014934D01*
X026098Y014917D01*
X026091Y014902D01*
X026081Y014888D01*
X026069Y014876D01*
X026055Y014866D01*
X026040Y014859D01*
X026023Y014854D01*
X026006Y014853D01*
X025849Y014853D01*
X025711Y015443D02*
X025120Y015443D01*
X025120Y016624D01*
X025711Y016624D01*
X025711Y015443D01*
X024982Y014853D02*
X024825Y014853D01*
X024805Y014858D01*
X024786Y014867D01*
X024769Y014878D01*
X024754Y014893D01*
X024742Y014910D01*
X024733Y014929D01*
X024727Y014949D01*
X024725Y014970D01*
X024727Y014991D01*
X024727Y017116D01*
X024728Y017133D01*
X024733Y017150D01*
X024740Y017165D01*
X024750Y017179D01*
X024762Y017191D01*
X024776Y017201D01*
X024791Y017208D01*
X024808Y017213D01*
X024825Y017214D01*
X024825Y017215D02*
X024982Y017215D01*
X025849Y017215D02*
X026006Y017215D01*
X026006Y017214D02*
X026023Y017213D01*
X026040Y017208D01*
X026055Y017201D01*
X026069Y017191D01*
X026081Y017179D01*
X026091Y017165D01*
X026098Y017150D01*
X026103Y017133D01*
X026104Y017116D01*
X019251Y017028D02*
X019251Y018013D01*
X019249Y018032D01*
X019245Y018051D01*
X019237Y018069D01*
X019227Y018086D01*
X019215Y018101D01*
X019200Y018113D01*
X019183Y018123D01*
X019165Y018131D01*
X019146Y018135D01*
X019127Y018137D01*
X019127Y018138D02*
X017371Y018138D01*
X017354Y018136D01*
X017337Y018131D01*
X017322Y018123D01*
X017309Y018112D01*
X017298Y018099D01*
X017290Y018084D01*
X017285Y018067D01*
X017283Y018050D01*
X017283Y017028D01*
X017283Y017029D02*
X017282Y017008D01*
X017284Y016987D01*
X017289Y016967D01*
X017297Y016948D01*
X017308Y016931D01*
X017321Y016915D01*
X017337Y016902D01*
X017355Y016891D01*
X017374Y016883D01*
X017394Y016878D01*
X019140Y016878D01*
X019160Y016883D01*
X019179Y016891D01*
X019197Y016902D01*
X019213Y016915D01*
X019226Y016931D01*
X019237Y016948D01*
X019245Y016967D01*
X019250Y016987D01*
X019252Y017008D01*
X019251Y017029D01*
X019055Y017193D02*
X019055Y017744D01*
X019055Y017743D02*
X019056Y017774D01*
X019053Y017805D01*
X019046Y017835D01*
X019035Y017865D01*
X019021Y017892D01*
X019004Y017918D01*
X018984Y017942D01*
X018961Y017963D01*
X018936Y017981D01*
X018908Y017996D01*
X018880Y018007D01*
X018850Y018015D01*
X018819Y018019D01*
X018818Y018019D02*
X017716Y018019D01*
X017688Y018017D01*
X017660Y018012D01*
X017632Y018004D01*
X017606Y017992D01*
X017582Y017977D01*
X017560Y017960D01*
X017539Y017939D01*
X017522Y017917D01*
X017507Y017893D01*
X017495Y017867D01*
X017487Y017839D01*
X017482Y017811D01*
X017480Y017783D01*
X017480Y017232D01*
X017484Y017202D01*
X017492Y017172D01*
X017503Y017143D01*
X017518Y017115D01*
X017536Y017090D01*
X017557Y017067D01*
X017581Y017047D01*
X017607Y017030D01*
X017634Y017016D01*
X017664Y017005D01*
X017694Y016998D01*
X017725Y016995D01*
X017756Y016996D01*
X017755Y016996D02*
X018818Y016996D01*
X018847Y016995D01*
X018875Y016998D01*
X018903Y017005D01*
X018929Y017015D01*
X018954Y017029D01*
X018977Y017045D01*
X018997Y017065D01*
X019015Y017087D01*
X019030Y017111D01*
X019042Y017137D01*
X019050Y017164D01*
X019054Y017192D01*
D108*
X024951Y006641D03*
M02*
