G75*
%MOIN*%
%OFA0B0*%
%FSLAX24Y24*%
%IPPOS*%
%LPD*%
%AMOC8*
5,1,8,0,0,1.08239X$1,22.5*
%
%ADD10C,0.1261*%
%ADD11C,0.0680*%
%ADD12OC8,0.0680*%
%ADD13R,0.0640X0.0640*%
%ADD14C,0.0640*%
%ADD15C,0.0867*%
%ADD16C,0.0789*%
%ADD17C,0.0820*%
D10*
X004609Y010080D03*
X004602Y016153D03*
X032538Y021950D03*
X032510Y004286D03*
D11*
X021761Y015525D03*
D12*
X022761Y015525D03*
X023761Y015525D03*
X023761Y016525D03*
X022761Y016525D03*
X021761Y016525D03*
D13*
X004890Y004485D03*
X010857Y004497D03*
X016875Y004480D03*
X032317Y008899D03*
X014867Y021705D03*
X008873Y021709D03*
D14*
X007873Y021609D03*
X006873Y021709D03*
X005873Y021609D03*
X004873Y021709D03*
X010867Y021705D03*
X011867Y021605D03*
X012867Y021705D03*
X013867Y021605D03*
X032217Y007899D03*
X032317Y006899D03*
X032217Y005899D03*
X022875Y004480D03*
X021875Y004580D03*
X020875Y004480D03*
X019875Y004580D03*
X018875Y004480D03*
X017875Y004580D03*
X014857Y004497D03*
X013857Y004597D03*
X012857Y004497D03*
X011857Y004597D03*
X008890Y004485D03*
X007890Y004585D03*
X006890Y004485D03*
X005890Y004585D03*
D15*
X005001Y013098D03*
X007757Y013098D03*
X029409Y013118D03*
X032165Y013118D03*
D16*
X032953Y017633D03*
X032933Y020383D03*
D17*
X022879Y006539D03*
X021879Y006439D03*
X020879Y006539D03*
X019879Y006439D03*
X018879Y006539D03*
X017879Y006439D03*
X016879Y006539D03*
X014855Y006539D03*
X013855Y006439D03*
X012855Y006539D03*
X011855Y006439D03*
X010855Y006539D03*
X008893Y006540D03*
X007893Y006440D03*
X006893Y006540D03*
X005893Y006440D03*
X004893Y006540D03*
X004871Y019685D03*
X005871Y019785D03*
X006871Y019685D03*
X007871Y019785D03*
X008871Y019685D03*
X010866Y019680D03*
X011866Y019780D03*
X012866Y019680D03*
X013866Y019780D03*
X014866Y019680D03*
M02*
